{
.appVersion = "3119";
classes = (
{
code = "A Aacute Abreve Acircumflex Adieresis Agrave Amacron Aogonek Aring Aringacute Atilde AE B C Cacute Ccaron Ccedilla Cdotaccent D Eth Dcaron Dcroat E Eacute Ecaron Ecircumflex Edieresis Edotaccent Egrave Emacron Eogonek F G Gbreve Gdotaccent H Hbar I Iacute Icircumflex Idieresis Idotaccent Igrave Imacron Iogonek J K L Lacute Lcaron Ldot Lslash M N Nacute Ncaron Ntilde Eng O Oacute Ocircumflex Odieresis Ograve Ohungarumlaut Omacron Oslash Otilde OE P Thorn Q R Racute Rcaron S Sacute Scaron Scedilla T Tbar Tcaron U Uacute Ucircumflex Udieresis Ugrave Uhungarumlaut Umacron Uogonek Uring Utilde V W Wacute Wcircumflex Wdieresis Wgrave X Y Yacute Ycircumflex Ydieresis Ygrave Z Zacute Zcaron Zdotaccent uni0122 uni0136 uni013B uni0145 uni0156 uni0162 uni0191 uni01CD uni01CF uni01D1 uni01D3 uni01D5 uni01D7 uni01D9 uni01DB uni0218 uni021A uni1EF8 uni0394 uni03A9\012E_U F_E T_E A_E A_L A_O C_H C_Q D_E E_A Eacute_E E_O E_S E_T F_V I_E I_L L_E L_L L_U M_P N_A N_E O_F U_E X_S Ecircumflex_T_E H_O_F L_L_E R_S_E Xnb N_E_S T_E_S";
name = Uppercase;
}
);
copyright = "Copyright © 2022 by ANRT. All rights reserved. BBB Baskervvol (Eugénie Bidaut, Julie Colas, Camille Circlude, Louis Garrido, Enzo Le Garrec, Ludi Loiseau, Édouard Nazé, Julie Patard, Marouchka Payen, Mathilde Quentin), Bruxelles 2018-2022. Ajout de glyphes non-binaires.";
customParameters = (
{
disabled = 1;
name = glyphOrder;
value = (
.notdef,
space,
A,
Aacute,
Abreve,
uni01CD,
Acircumflex,
Adieresis,
Agrave,
Amacron,
Aogonek,
Aring,
Aringacute,
Atilde,
AE,
B,
C,
Cacute,
Ccaron,
Ccedilla,
Cdotaccent,
D,
Eth,
Dcaron,
Dcroat,
E,
Eacute,
Ecaron,
Ecircumflex,
Edieresis,
Edotaccent,
Egrave,
Emacron,
Eogonek,
F,
uni0191,
G,
Gbreve,
uni0122,
Gdotaccent,
H,
Hbar,
I,
Iacute,
uni01CF,
Icircumflex,
Idieresis,
Idotaccent,
Igrave,
Imacron,
Iogonek,
J,
K,
uni0136,
L,
Lacute,
Lcaron,
uni013B,
Ldot,
Lslash,
M,
N,
Nacute,
Ncaron,
uni0145,
Eng,
Ntilde,
O,
Oacute,
uni01D1,
Ocircumflex,

glyphs = (
{
glyphname = A;
layers = (
{
layerId = "72C12618-BAE4-4A2B-8370-CBFBBD108EB7";
paths = (
{
closed = 1;
nodes = (
"636 0 LINE",
"760 -3 LINE",
"760 22 LINE",
"740 24 LINE SMOOTH",
"686 29 OFFCURVE",
"660 58 OFFCURVE",
"634 123 CURVE",
"398 710 LINE",
"364 710 LINE",
"122 123 LINE SMOOTH",
"92 50 OFFCURVE",
"63 32 OFFCURVE",
"-6 23 CURVE",
"-15 22 LINE",
"-15 -3 LINE",
"106 0 LINE",
"233 -3 LINE",
"233 22 LINE",
"213 24 LINE SMOOTH",
"162 28 OFFCURVE",
"142 41 OFFCURVE",
"142 66 CURVE",
"142 81 OFFCURVE",
"149 100 OFFCURVE",
"159 124 CURVE",
"213 254 LINE",
"495 254 LINE",
"547 124 LINE SMOOTH",
"556 102 OFFCURVE",
"561 84 OFFCURVE",
"561 70 CURVE",
"561 43 OFFCURVE",
"543 29 OFFCURVE",
"496 24 CURVE",
"476 22 LINE",
"476 -3 LINE"
);
},
{
closed = 1;
nodes = (
"226 286 LINE",
"357 603 LINE",
"483 286 LINE"
);
}
);
width = 745;
}
);
leftKerningGroup = A;
note = "\012		A\012  ";
rightKerningGroup = A;
unicode = 0041;
},
{
glyphname = Aacute;
layers = (
{
layerId = "72C12618-BAE4-4A2B-8370-CBFBBD108EB7";
paths = (
{
closed = 1;
nodes = (
"395 940 LINE",
"369 760 LINE",
"381 760 LINE",
"476 940 LINE"
);
},
{
closed = 1;
nodes = (
"636 0 LINE",
"760 -3 LINE",
"760 22 LINE",
"740 24 LINE SMOOTH",
"686 29 OFFCURVE",
"660 58 OFFCURVE",
"634 123 CURVE",
"398 710 LINE",
"364 710 LINE",
"122 123 LINE SMOOTH",
"92 50 OFFCURVE",
"63 32 OFFCURVE",
"-6 23 CURVE",
"-15 22 LINE",
"-15 -3 LINE",
"106 0 LINE",
"233 -3 LINE",
"233 22 LINE",
"213 24 LINE SMOOTH",
"162 28 OFFCURVE",
"142 41 OFFCURVE",
"142 66 CURVE",
"142 81 OFFCURVE",
"149 100 OFFCURVE",
"159 124 CURVE",
"213 254 LINE",
"495 254 LINE",
"547 124 LINE SMOOTH",
"556 102 OFFCURVE",
"561 84 OFFCURVE",
"561 70 CURVE",
"561 43 OFFCURVE",
"543 29 OFFCURVE",
"496 24 CURVE",
"476 22 LINE",
"476 -3 LINE"
);
},
{
closed = 1;
nodes = (
"226 286 LINE",
"357 603 LINE",
"483 286 LINE"
);
}
);
width = 745;
}
);
leftKerningGroup = A;
note = "\012		Aacute\012  ";
rightKerningGroup = A;
unicode = 00C1;
},
{
glyphname = Abreve;
layers = (
{
layerId = "72C12618-BAE4-4A2B-8370-CBFBBD108EB7";
paths = (
{
closed = 1;
nodes = (
"375 788 LINE",
"442 788 OFFCURVE",
"476 839 OFFCURVE",
"476 904 CURVE",
"476 937 LINE",
"451 937 LINE",
"451 932 LINE SMOOTH",
"451 866 OFFCURVE",
"423 848 OFFCURVE",
"375 848 CURVE",
"327 848 OFFCURVE",
"299 866 OFFCURVE",
"299 932 CURVE",
"299 937 LINE",
"274 937 LINE",
"274 904 LINE SMOOTH",
"274 839 OFFCURVE",
"308 788 OFFCURVE",
"375 788 CURVE"
);
},
{
closed = 1;
nodes = (
"636 0 LINE",
"760 -3 LINE",
"760 22 LINE",
"740 24 LINE SMOOTH",
"686 29 OFFCURVE",
"660 58 OFFCURVE",
"634 123 CURVE",
"398 710 LINE",
"364 710 LINE",
"122 123 LINE SMOOTH",
"92 50 OFFCURVE",
"63 32 OFFCURVE",
"-6 23 CURVE",
"-15 22 LINE",
"-15 -3 LINE",
"106 0 LINE",
"233 -3 LINE",
"233 22 LINE",
"213 24 LINE SMOOTH",
"162 28 OFFCURVE",
"142 41 OFFCURVE",
"142 66 CURVE",
"142 81 OFFCURVE",
"149 100 OFFCURVE",
"159 124 CURVE",
"213 254 LINE",
"495 254 LINE",
"547 124 LINE SMOOTH",
"556 102 OFFCURVE",
"561 84 OFFCURVE",
"561 70 CURVE",
"561 43 OFFCURVE",
"543 29 OFFCURVE",
"496 24 CURVE",
"476 22 LINE",
"476 -3 LINE"
);
},
{
closed = 1;
nodes = (
"226 286 LINE",
"357 603 LINE",
"483 286 LINE"
);
}
);
width = 745;
}
);
leftKerningGroup = A;
note = "\012		Abreve\012  ";
rightKerningGroup = A;
unicode = 0102;
},
{
glyphname = Acircumflex;
layers = (
{
layerId = "72C12618-BAE4-4A2B-8370-CBFBBD108EB7";
paths = (
{
closed = 1;
nodes = (
"362 940 LINE",
"268 761 LINE",
"292 761 LINE",
"370 853 LINE",
"376 853 LINE",
"454 761 LINE",
"478 761 LINE",
"384 940 LINE"
);
},
{
closed = 1;
nodes = (
"636 0 LINE",
"760 -3 LINE",
"760 22 LINE",
"740 24 LINE SMOOTH",
"686 29 OFFCURVE",
"660 58 OFFCURVE",
"634 123 CURVE",
"398 710 LINE",
"364 710 LINE",
"122 123 LINE SMOOTH",
"92 50 OFFCURVE",
"63 32 OFFCURVE",
"-6 23 CURVE",
"-15 22 LINE",
"-15 -3 LINE",
"106 0 LINE",
"233 -3 LINE",
"233 22 LINE",
"213 24 LINE SMOOTH",
"162 28 OFFCURVE",
"142 41 OFFCURVE",
"142 66 CURVE",
"142 81 OFFCURVE",
"149 100 OFFCURVE",
"159 124 CURVE",
"213 254 LINE",
"495 254 LINE",
"547 124 LINE SMOOTH",
"556 102 OFFCURVE",
"561 84 OFFCURVE",
"561 70 CURVE",
"561 43 OFFCURVE",
"543 29 OFFCURVE",
"496 24 CURVE",
"476 22 LINE",
"476 -3 LINE"
);
},
{
closed = 1;
nodes = (
"226 286 LINE",
"357 603 LINE",
"483 286 LINE"
);
}
);
width = 745;
}
);
leftKerningGroup = A;
note = "\012		Acircumflex\012  ";
rightKerningGroup = A;
unicode = 00C2;
},
{
glyphname = Adieresis;
layers = (
{
layerId = "72C12618-BAE4-4A2B-8370-CBFBBD108EB7";
paths = (
{
closed = 1;
nodes = (
"283 822 LINE",
"317 822 OFFCURVE",
"333 847 OFFCURVE",
"333 879 CURVE",
"333 910 OFFCURVE",
"317 935 OFFCURVE",
"283 935 CURVE",
"251 935 OFFCURVE",
"232 910 OFFCURVE",
"232 879 CURVE",
"232 847 OFFCURVE",
"251 822 OFFCURVE",
"283 822 CURVE"
);
},
{
closed = 1;
nodes = (
"473 822 LINE",
"507 822 OFFCURVE",
"523 847 OFFCURVE",
"523 879 CURVE",
"523 910 OFFCURVE",
"507 935 OFFCURVE",
"473 935 CURVE",
"441 935 OFFCURVE",
"422 910 OFFCURVE",
"422 879 CURVE",
"422 847 OFFCURVE",
"441 822 OFFCURVE",
"473 822 CURVE"
);
},
{
closed = 1;
nodes = (
"636 0 LINE",
"760 -3 LINE",
"760 22 LINE",
"740 24 LINE SMOOTH",
"686 29 OFFCURVE",
"660 58 OFFCURVE",
"634 123 CURVE",
"398 710 LINE",
"364 710 LINE",
"122 123 LINE SMOOTH",
"92 50 OFFCURVE",
"63 32 OFFCURVE",
"-6 23 CURVE",
"-15 22 LINE",
"-15 -3 LINE",
"106 0 LINE",
"233 -3 LINE",
"233 22 LINE",
"213 24 LINE SMOOTH",
"162 28 OFFCURVE",
"142 41 OFFCURVE",
"142 66 CURVE",
"142 81 OFFCURVE",
"149 100 OFFCURVE",
"159 124 CURVE",
"213 254 LINE",
"495 254 LINE",
"547 124 LINE SMOOTH",
"556 102 OFFCURVE",
"561 84 OFFCURVE",
"561 70 CURVE",
"561 43 OFFCURVE",
"543 29 OFFCURVE",
"496 24 CURVE",
"476 22 LINE",
"476 -3 LINE"
);
},
{
closed = 1;
nodes = (
"226 286 LINE",
"357 603 LINE",
"483 286 LINE"
);
}
);
width = 745;
}
);
leftKerningGroup = A;
note = "\012		Adieresis\012  ";
rightKerningGroup = A;
unicode = 00C4;
},
{
glyphname = Agrave;
layers = (
{
layerId = "72C12618-BAE4-4A2B-8370-CBFBBD108EB7";
paths = (
{
closed = 1;
nodes = (
"354 940 LINE",
"273 940 LINE",
"368 760 LINE",
"380 760 LINE"
);
},
{
closed = 1;
nodes = (
"636 0 LINE",
"760 -3 LINE",
"760 22 LINE",
"740 24 LINE SMOOTH",
"686 29 OFFCURVE",
"660 58 OFFCURVE",
"634 123 CURVE",
"398 710 LINE",
"364 710 LINE",
"122 123 LINE SMOOTH",
"92 50 OFFCURVE",
"63 32 OFFCURVE",
"-6 23 CURVE",
"-15 22 LINE",
"-15 -3 LINE",
"106 0 LINE",
"233 -3 LINE",
"233 22 LINE",
"213 24 LINE SMOOTH",
"162 28 OFFCURVE",
"142 41 OFFCURVE",
"142 66 CURVE",
"142 81 OFFCURVE",
"149 100 OFFCURVE",
"159 124 CURVE",
"213 254 LINE",
"495 254 LINE",
"547 124 LINE SMOOTH",
"556 102 OFFCURVE",
"561 84 OFFCURVE",
"561 70 CURVE",
"561 43 OFFCURVE",
"543 29 OFFCURVE",
"496 24 CURVE",
"476 22 LINE",
"476 -3 LINE"
);
},
{
closed = 1;
nodes = (
"226 286 LINE",
"357 603 LINE",
"483 286 LINE"
);
}
);
width = 745;
}
);
leftKerningGroup = A;
note = "\012		Agrave\012  ";
rightKerningGroup = A;
unicode = 00C0;
},
{
glyphname = Amacron;
layers = (
{
layerId = "72C12618-BAE4-4A2B-8370-CBFBBD108EB7";
paths = (
{
closed = 1;
nodes = (
"257 874 LINE",
"257 834 LINE",
"484 834 LINE",
"484 874 LINE"
);
},
{
closed = 1;
nodes = (
"636 0 LINE",
"760 -3 LINE",
"760 22 LINE",
"740 24 LINE SMOOTH",
"686 29 OFFCURVE",
"660 58 OFFCURVE",
"634 123 CURVE",
"398 710 LINE",
"364 710 LINE",
"122 123 LINE SMOOTH",
"92 50 OFFCURVE",
"63 32 OFFCURVE",
"-6 23 CURVE",
"-15 22 LINE",
"-15 -3 LINE",
"106 0 LINE",
"233 -3 LINE",
"233 22 LINE",
"213 24 LINE SMOOTH",
"162 28 OFFCURVE",
"142 41 OFFCURVE",
"142 66 CURVE",
"142 81 OFFCURVE",
"149 100 OFFCURVE",
"159 124 CURVE",
"213 254 LINE",
"495 254 LINE",
"547 124 LINE SMOOTH",
"556 102 OFFCURVE",
"561 84 OFFCURVE",
"561 70 CURVE",
"561 43 OFFCURVE",
"543 29 OFFCURVE",
"496 24 CURVE",
"476 22 LINE",
"476 -3 LINE"
);
},
{
closed = 1;
nodes = (
"226 286 LINE",
"357 603 LINE",
"483 286 LINE"
);
}
);
width = 745;
}
);
leftKerningGroup = A;
note = "\012		Amacron\012  ";
rightKerningGroup = A;
unicode = 0100;
},
{
glyphname = Aogonek;
layers = (
{
layerId = "72C12618-BAE4-4A2B-8370-CBFBBD108EB7";
paths = (
{
closed = 1;
nodes = (
"495 -294 LINE",
"577 -294 OFFCURVE",
"618 -234 OFFCURVE",
"627 -183 CURVE",
"610 -170 LINE",
"588 -211 OFFCURVE",
"551 -238 OFFCURVE",
"513 -238 CURVE",
"464 -238 OFFCURVE",
"439 -196 OFFCURVE",
"439 -150 CURVE",
"439 -58 OFFCURVE",
"517 0 OFFCURVE",
"613 0 CURVE",
"627 0 LINE",
"745 -3 LINE",
"745 22 LINE",
"725 24 LINE SMOOTH",
"671 29 OFFCURVE",
"645 58 OFFCURVE",
"619 123 CURVE",
"380 717 LINE",
"352 717 LINE",
"107 123 LINE SMOOTH",
"77 50 OFFCURVE",
"48 32 OFFCURVE",
"-21 23 CURVE",
"-30 22 LINE",
"-30 -3 LINE",
"91 0 LINE",
"218 -3 LINE",
"218 22 LINE",
"198 24 LINE SMOOTH",
"150 28 OFFCURVE",
"133 42 OFFCURVE",
"133 68 CURVE",
"133 82 OFFCURVE",
"139 101 OFFCURVE",
"148 124 CURVE",
"201 255 LINE",
"478 255 LINE",
"520 147 LINE SMOOTH",
"529 125 OFFCURVE",
"532 106 OFFCURVE",
"532 89 CURVE",
"532 56 OFFCURVE",
"526 36 OFFCURVE",
"479 -16 CURVE",
"444 -54 OFFCURVE",
"384 -123 OFFCURVE",
"384 -191 CURVE",
"384 -255 OFFCURVE",
"438 -294 OFFCURVE",
"495 -294 CURVE"
);
},
{
closed = 1;
nodes = (
"214 286 LINE",
"343 604 LINE",
"466 286 LINE"
);
}
);
width = 715;
}
);
leftKerningGroup = A;
note = "\012		Aogonek\012  ";
rightKerningGroup = A;
unicode = 0104;
},
{
glyphname = Aring;
layers = (
{
layerId = "72C12618-BAE4-4A2B-8370-CBFBBD108EB7";
paths = (
{
closed = 1;
nodes = (
"376 766 LINE",
"416 766 OFFCURVE",
"459 792 OFFCURVE",
"459 851 CURVE",
"459 888 OFFCURVE",
"434 936 OFFCURVE",
"375 936 CURVE",
"320 936 OFFCURVE",
"290 893 OFFCURVE",
"290 851 CURVE",
"290 804 OFFCURVE",
"324 766 OFFCURVE",
"376 766 CURVE"
);
},
{
closed = 1;
nodes = (
"375 905 LINE",
"401 905 OFFCURVE",
"426 886 OFFCURVE",
"426 851 CURVE",
"426 815 OFFCURVE",
"401 797 OFFCURVE",
"376 797 CURVE",
"348 797 OFFCURVE",
"323 817 OFFCURVE",
"323 851 CURVE",
"323 889 OFFCURVE",
"352 905 OFFCURVE",
"375 905 CURVE"
);
},
{
closed = 1;
nodes = (
"636 0 LINE",
"760 -3 LINE",
"760 22 LINE",
"740 24 LINE SMOOTH",
"686 29 OFFCURVE",
"660 58 OFFCURVE",
"634 123 CURVE",
"398 710 LINE",
"364 710 LINE",
"122 123 LINE SMOOTH",
"92 50 OFFCURVE",
"63 32 OFFCURVE",
"-6 23 CURVE",
"-15 22 LINE",
"-15 -3 LINE",
"106 0 LINE",
"233 -3 LINE",
"233 22 LINE",
"213 24 LINE SMOOTH",
"162 28 OFFCURVE",
"142 41 OFFCURVE",
"142 66 CURVE",
"142 81 OFFCURVE",
"149 100 OFFCURVE",
"159 124 CURVE",
"213 254 LINE",
"495 254 LINE",
"547 124 LINE SMOOTH",
"556 102 OFFCURVE",
"561 84 OFFCURVE",
"561 70 CURVE",
"561 43 OFFCURVE",
"543 29 OFFCURVE",
"496 24 CURVE",
"476 22 LINE",
"476 -3 LINE"
);
},
{
closed = 1;
nodes = (
"226 286 LINE",
"357 603 LINE",
"483 286 LINE"
);
}
);
width = 745;
}
);
leftKerningGroup = A;
note = "\012		Aring\012  ";
rightKerningGroup = A;
unicode = 00C5;
},
{
glyphname = Aringacute;
layers = (
{
layerId = "72C12618-BAE4-4A2B-8370-CBFBBD108EB7";
paths = (
{
closed = 1;
nodes = (
"397 1138 LINE",
"371 958 LINE",
"383 958 LINE",
"478 1138 LINE"
);
},
{
closed = 1;
nodes = (
"376 766 LINE",
"416 766 OFFCURVE",
"459 792 OFFCURVE",
"459 851 CURVE",
"459 888 OFFCURVE",
"434 936 OFFCURVE",
"375 936 CURVE",
"320 936 OFFCURVE",
"290 893 OFFCURVE",
"290 851 CURVE",
"290 804 OFFCURVE",
"324 766 OFFCURVE",
"376 766 CURVE"
);
},
{
closed = 1;
nodes = (
"375 905 LINE",
"401 905 OFFCURVE",
"426 886 OFFCURVE",
"426 851 CURVE",
"426 815 OFFCURVE",
"401 797 OFFCURVE",
"376 797 CURVE",
"348 797 OFFCURVE",
"323 817 OFFCURVE",
"323 851 CURVE",
"323 889 OFFCURVE",
"352 905 OFFCURVE",
"375 905 CURVE"
);
},
{
closed = 1;
nodes = (
"636 0 LINE",
"760 -3 LINE",
"760 22 LINE",
"740 24 LINE SMOOTH",
"686 29 OFFCURVE",
"660 58 OFFCURVE",
"634 123 CURVE",
"398 710 LINE",
"364 710 LINE",
"122 123 LINE SMOOTH",
"92 50 OFFCURVE",
"63 32 OFFCURVE",
"-6 23 CURVE",
"-15 22 LINE",
"-15 -3 LINE",
"106 0 LINE",
"233 -3 LINE",
"233 22 LINE",
"213 24 LINE SMOOTH",
"162 28 OFFCURVE",
"142 41 OFFCURVE",
"142 66 CURVE",
"142 81 OFFCURVE",
"149 100 OFFCURVE",
"159 124 CURVE",
"213 254 LINE",
"495 254 LINE",
"547 124 LINE SMOOTH",
"556 102 OFFCURVE",
"561 84 OFFCURVE",
"561 70 CURVE",
"561 43 OFFCURVE",
"543 29 OFFCURVE",
"496 24 CURVE",
"476 22 LINE",
"476 -3 LINE"
);
},
{
closed = 1;
nodes = (
"226 286 LINE",
"357 603 LINE",
"483 286 LINE"
);
}
);
width = 745;
}
);
note = "\012		Aringacute\012  ";
unicode = 01FA;
},
{
glyphname = Atilde;
layers = (
{
layerId = "72C12618-BAE4-4A2B-8370-CBFBBD108EB7";
paths = (
{
closed = 1;
nodes = (
"294 868 LINE",
"312 868 OFFCURVE",
"331 857 OFFCURVE",
"355 842 CURVE",
"381 826 LINE SMOOTH",
"398 816 OFFCURVE",
"424 801 OFFCURVE",
"449 801 CURVE",
"489 801 OFFCURVE",
"523 840 OFFCURVE",
"530 900 CURVE",
"511 900 LINE",
"502 872 OFFCURVE",
"484 849 OFFCURVE",
"457 849 CURVE",
"439 849 OFFCURVE",
"416 862 OFFCURVE",
"406 868 CURVE",
"369 890 LINE SMOOTH",
"356 898 OFFCURVE",
"327 916 OFFCURVE",
"302 916 CURVE",
"241 916 OFFCURVE",
"216 841 OFFCURVE",
"216 812 CURVE",
"235 812 LINE",
"241 836 OFFCURVE",
"265 868 OFFCURVE",
"294 868 CURVE"
);
},
{
closed = 1;
nodes = (
"636 0 LINE",
"760 -3 LINE",
"760 22 LINE",
"740 24 LINE SMOOTH",
"686 29 OFFCURVE",
"660 58 OFFCURVE",
"634 123 CURVE",
"398 710 LINE",
"364 710 LINE",
"122 123 LINE SMOOTH",
"92 50 OFFCURVE",
"63 32 OFFCURVE",
"-6 23 CURVE",
"-15 22 LINE",
"-15 -3 LINE",
"106 0 LINE",
"233 -3 LINE",
"233 22 LINE",
"213 24 LINE SMOOTH",
"162 28 OFFCURVE",
"142 41 OFFCURVE",
"142 66 CURVE",
"142 81 OFFCURVE",
"149 100 OFFCURVE",
"159 124 CURVE",
"213 254 LINE",
"495 254 LINE",
"547 124 LINE SMOOTH",
"556 102 OFFCURVE",
"561 84 OFFCURVE",
"561 70 CURVE",
"561 43 OFFCURVE",
"543 29 OFFCURVE",
"496 24 CURVE",
"476 22 LINE",
"476 -3 LINE"
);
},
{
closed = 1;
nodes = (
"226 286 LINE",
"357 603 LINE",
"483 286 LINE"
);
}
);
width = 745;
}
);
leftKerningGroup = A;
note = "\012		Atilde\012  ";
rightKerningGroup = A;
unicode = 00C3;
},
{
glyphname = AE;
lastChange = "2022-01-17 14:48:48 +0000";
layers = (
{
layerId = "72C12618-BAE4-4A2B-8370-CBFBBD108EB7";
paths = (
{
closed = 1;
nodes = (
"967 0 LINE",
"970 90 LINE",
"977 210 LINE",
"952 210 LINE",
"939 52 OFFCURVE",
"907 25 OFFCURVE",
"781 25 CURVE",
"688 25 LINE SMOOTH",
"612 25 OFFCURVE",
"591 54 OFFCURVE",
"591 107 CURVE",
"591 362 LINE",
"701 362 LINE SMOOTH",
"747 362 OFFCURVE",
"772 324 OFFCURVE",
"772 226 CURVE",
"797 226 LINE",
"794 374 LINE",
"797 508 LINE",
"772 508 LINE",
"767 408 OFFCURVE",
"740 387 OFFCURVE",
"701 387 CURVE",
"591 387 LINE",
"591 683 LINE",
"721 683 LINE SMOOTH",
"869 683 OFFCURVE",
"901 669 OFFCURVE",
"920 546 CURVE",
"944 546 LINE",
"936 638 LINE",
"934 710 LINE",
"505 710 LINE",
"396 713 LINE",
"396 690 LINE",
"432 688 LINE SMOOTH",
"455 687 OFFCURVE",
"464 679 OFFCURVE",
"464 667 CURVE",
"464 652 OFFCURVE",
"451 630 OFFCURVE",
"435 603 CURVE",
"146 123 LINE SMOOTH",
"92 33 OFFCURVE",
"58 27 OFFCURVE",
"11 22 CURVE",
"-15 19 LINE",
"-15 -3 LINE",
"20 -1 OFFCURVE",
"69 0 OFFCURVE",
"117 0 CURVE",
"165 0 OFFCURVE",
"213 -1 OFFCURVE",
"244 -3 CURVE",
"244 19 LINE",
"213 22 LINE SMOOTH",
"184 25 OFFCURVE",
"159 37 OFFCURVE",
"159 67 CURVE",
"159 81 OFFCURVE",
"165 101 OFFCURVE",
"180 125 CURVE",
"291 310 LINE",
"504 310 LINE",
"504 199 LINE SMOOTH",
"504 48 OFFCURVE",
"490 29 OFFCURVE",
"440 24 CURVE",
"368 17 LINE",
"368 -3 LINE",
"523 0 LINE"
);
},
{
closed = 1;
nodes = (
"307 336 LINE",
"504 664 LINE",
"504 336 LINE"
);
}
);
width = 1017;
}
);
leftKerningGroup = AE;
note = "\012		AE\012  ";
unicode = 00C6;
},
{
glyphname = B;
layers = (
{
layerId = "72C12618-BAE4-4A2B-8370-CBFBBD108EB7";
paths = (
{
closed = 1;
nodes = (
"441 380 LINE",
"510 404 OFFCURVE",
"584 454 OFFCURVE",
"584 547 CURVE",
"584 707 OFFCURVE",
"401 710 OFFCURVE",
"310 710 CURVE",
"188 710 LINE",
"40 713 LINE",
"40 688 LINE",
"60 686 LINE SMOOTH",
"129 678 OFFCURVE",
"146 676 OFFCURVE",
"146 577 CURVE",
"146 133 LINE SMOOTH",
"146 34 OFFCURVE",
"129 32 OFFCURVE",
"60 24 CURVE",
"40 22 LINE",
"40 -3 LINE",
"188 0 LINE",
"366 0 LINE SMOOTH",
"491 0 OFFCURVE",
"626 46 OFFCURVE",
"626 202 CURVE",
"626 328 OFFCURVE",
"537 371 OFFCURVE",
"441 380 CURVE"
);
},
{
closed = 1;
nodes = (
"360 387 LINE",
"227 387 LINE",
"227 682 LINE",
"340 682 LINE SMOOTH",
"435 682 OFFCURVE",
"491 660 OFFCURVE",
"491 547 CURVE",
"491 440 OFFCURVE",
"442 387 OFFCURVE",
"360 387 CURVE"
);
},
{
closed = 1;
nodes = (
"366 28 LINE",
"310 28 LINE SMOOTH",
"254 28 OFFCURVE",
"227 49 OFFCURVE",
"227 129 CURVE",
"227 359 LINE",
"320 359 LINE SMOOTH",
"464 359 OFFCURVE",
"532 337 OFFCURVE",
"532 201 CURVE",
"532 60 OFFCURVE",
"466 28 OFFCURVE",
"366 28 CURVE"
);
}
);
width = 686;
}
);
leftKerningGroup = B;
note = "\012		B\012  ";
rightKerningGroup = B;
unicode = 0042;
},
{
glyphname = C;
layers = (
{
layerId = "72C12618-BAE4-4A2B-8370-CBFBBD108EB7";
paths = (
{
closed = 1;
nodes = (
"390 -11 LINE",
"466 -11 OFFCURVE",
"522 16 OFFCURVE",
"557 33 CURVE",
"573 41 OFFCURVE",
"585 47 OFFCURVE",
"595 47 CURVE",
"612 47 OFFCURVE",
"618 28 OFFCURVE",
"623 11 CURVE",
"626 0 LINE",
"650 0 LINE",
"647 117 LINE",
"649 239 LINE",
"625 239 LINE",
"612 119 OFFCURVE",
"528 19 OFFCURVE",
"399 19 CURVE",
"225 19 OFFCURVE",
"164 145 OFFCURVE",
"164 355 CURVE",
"164 541 OFFCURVE",
"224 694 OFFCURVE",
"399 694 CURVE",
"524 694 OFFCURVE",
"602 614 OFFCURVE",
"622 476 CURVE",
"647 476 LINE",
"645 593 LINE",
"647 710 LINE",
"622 710 LINE",
"619 682 OFFCURVE",
"609 672 OFFCURVE",
"595 672 CURVE",
"589 672 OFFCURVE",
"573 679 OFFCURVE",
"556 687 CURVE",
"529 700 OFFCURVE",
"477 724 OFFCURVE",
"396 724 CURVE",
"213 724 OFFCURVE",
"62 567 OFFCURVE",
"62 355 CURVE",
"62 141 OFFCURVE",
"186 -11 OFFCURVE",
"390 -11 CURVE"
);
}
);
width = 720;
}
);
leftKerningGroup = C;
note = "\012		C\012  ";
unicode = 0043;
},
{
glyphname = Cacute;
layers = (
{
layerId = "72C12618-BAE4-4A2B-8370-CBFBBD108EB7";
paths = (
{
closed = 1;
nodes = (
"401 760 LINE",
"496 940 LINE",
"415 940 LINE",
"389 760 LINE"
);
},
{
closed = 1;
nodes = (
"390 -11 LINE",
"466 -11 OFFCURVE",
"522 16 OFFCURVE",
"557 33 CURVE",
"573 41 OFFCURVE",
"585 47 OFFCURVE",
"595 47 CURVE",
"612 47 OFFCURVE",
"618 28 OFFCURVE",
"623 11 CURVE",
"626 0 LINE",
"650 0 LINE",
"647 117 LINE",
"649 239 LINE",
"625 239 LINE",
"612 119 OFFCURVE",
"528 19 OFFCURVE",
"399 19 CURVE",
"225 19 OFFCURVE",
"164 145 OFFCURVE",
"164 355 CURVE",
"164 541 OFFCURVE",
"224 694 OFFCURVE",
"399 694 CURVE",
"524 694 OFFCURVE",
"602 614 OFFCURVE",
"622 476 CURVE",
"647 476 LINE",
"645 593 LINE",
"647 710 LINE",
"622 710 LINE",
"619 682 OFFCURVE",
"609 672 OFFCURVE",
"595 672 CURVE",
"589 672 OFFCURVE",
"573 679 OFFCURVE",
"556 687 CURVE",
"529 700 OFFCURVE",
"477 724 OFFCURVE",
"396 724 CURVE",
"213 724 OFFCURVE",
"62 567 OFFCURVE",
"62 355 CURVE",
"62 141 OFFCURVE",
"186 -11 OFFCURVE",
"390 -11 CURVE"
);
}
);
width = 720;
}
);
leftKerningGroup = C;
note = "\012		Cacute\012  ";
unicode = 0106;
},
{
glyphname = Ccaron;
layers = (
{
layerId = "72C12618-BAE4-4A2B-8370-CBFBBD108EB7";
paths = (
{
closed = 1;
nodes = (
"398 847 LINE",
"392 847 LINE",
"314 940 LINE",
"290 940 LINE",
"384 760 LINE",
"406 760 LINE",
"500 940 LINE",
"476 940 LINE"
);
},
{
closed = 1;
nodes = (
"390 -11 LINE",
"466 -11 OFFCURVE",
"522 16 OFFCURVE",
"557 33 CURVE",
"573 41 OFFCURVE",
"585 47 OFFCURVE",
"595 47 CURVE",
"612 47 OFFCURVE",
"618 28 OFFCURVE",
"623 11 CURVE",
"626 0 LINE",
"650 0 LINE",
"647 117 LINE",
"649 239 LINE",
"625 239 LINE",
"612 119 OFFCURVE",
"528 19 OFFCURVE",
"399 19 CURVE",
"225 19 OFFCURVE",
"164 145 OFFCURVE",
"164 355 CURVE",
"164 541 OFFCURVE",
"224 694 OFFCURVE",
"399 694 CURVE",
"524 694 OFFCURVE",
"602 614 OFFCURVE",
"622 476 CURVE",
"647 476 LINE",
"645 593 LINE",
"647 710 LINE",
"622 710 LINE",
"619 682 OFFCURVE",
"609 672 OFFCURVE",
"595 672 CURVE",
"589 672 OFFCURVE",
"573 679 OFFCURVE",
"556 687 CURVE",
"529 700 OFFCURVE",
"477 724 OFFCURVE",
"396 724 CURVE",
"213 724 OFFCURVE",
"62 567 OFFCURVE",
"62 355 CURVE",
"62 141 OFFCURVE",
"186 -11 OFFCURVE",
"390 -11 CURVE"
);
}
);
width = 720;
}
);
leftKerningGroup = C;
note = "\012		Ccaron\012  ";
unicode = 010C;
},
{
glyphname = Ccedilla;
layers = (
{
layerId = "72C12618-BAE4-4A2B-8370-CBFBBD108EB7";
paths = (
{
closed = 1;
nodes = (
"623 11 LINE",
"626 0 LINE",
"650 0 LINE",
"647 117 LINE",
"649 239 LINE",
"625 239 LINE",
"612 119 OFFCURVE",
"528 19 OFFCURVE",
"399 19 CURVE",
"225 19 OFFCURVE",
"164 145 OFFCURVE",
"164 355 CURVE",
"164 541 OFFCURVE",
"224 694 OFFCURVE",
"399 694 CURVE",
"524 694 OFFCURVE",
"602 614 OFFCURVE",
"622 476 CURVE",
"647 476 LINE",
"645 593 LINE",
"647 710 LINE",
"622 710 LINE",
"619 682 OFFCURVE",
"609 672 OFFCURVE",
"595 672 CURVE",
"589 672 OFFCURVE",
"573 679 OFFCURVE",
"556 687 CURVE",
"529 700 OFFCURVE",
"477 724 OFFCURVE",
"396 724 CURVE",
"213 724 OFFCURVE",
"62 567 OFFCURVE",
"62 355 CURVE",
"62 150 OFFCURVE",
"176 2 OFFCURVE",
"365 -10 CURVE",
"349 -57 LINE",
"313 -57 OFFCURVE",
"279 -75 OFFCURVE",
"260 -109 CURVE",
"280 -122 LINE",
"295 -99 OFFCURVE",
"319 -82 OFFCURVE",
"342 -82 CURVE",
"386 -82 OFFCURVE",
"410 -120 OFFCURVE",
"410 -166 CURVE",
"410 -214 OFFCURVE",
"386 -264 OFFCURVE",
"339 -264 CURVE",
"298 -264 OFFCURVE",
"270 -234 OFFCURVE",
"264 -203 CURVE",
"242 -210 LINE",
"251 -249 OFFCURVE",
"285 -292 OFFCURVE",
"345 -292 CURVE",
"407 -292 OFFCURVE",
"461 -243 OFFCURVE",
"461 -169 CURVE",
"461 -115 OFFCURVE",
"426 -72 OFFCURVE",
"377 -60 CURVE",
"394 -11 LINE",
"468 -10 OFFCURVE",
"523 16 OFFCURVE",
"557 33 CURVE",
"573 41 OFFCURVE",
"585 47 OFFCURVE",
"595 47 CURVE",
"612 47 OFFCURVE",
"618 28 OFFCURVE",
"623 11 CURVE"
);
}
);
width = 720;
}
);
leftKerningGroup = C;
note = "\012		Ccedilla\012  ";
unicode = 00C7;
},
{
glyphname = Cdotaccent;
layers = (
{
layerId = "72C12618-BAE4-4A2B-8370-CBFBBD108EB7";
paths = (
{
closed = 1;
nodes = (
"394 794 LINE",
"432 794 OFFCURVE",
"450 821 OFFCURVE",
"450 855 CURVE",
"450 889 OFFCURVE",
"432 916 OFFCURVE",
"394 916 CURVE",
"359 916 OFFCURVE",
"338 889 OFFCURVE",
"338 855 CURVE",
"338 821 OFFCURVE",
"359 794 OFFCURVE",
"394 794 CURVE"
);
},
{
closed = 1;
nodes = (
"390 -11 LINE",
"466 -11 OFFCURVE",
"522 16 OFFCURVE",
"557 33 CURVE",
"573 41 OFFCURVE",
"585 47 OFFCURVE",
"595 47 CURVE",
"612 47 OFFCURVE",
"618 28 OFFCURVE",
"623 11 CURVE",
"626 0 LINE",
"650 0 LINE",
"647 117 LINE",
"649 239 LINE",
"625 239 LINE",
"612 119 OFFCURVE",
"528 19 OFFCURVE",
"399 19 CURVE",
"225 19 OFFCURVE",
"164 145 OFFCURVE",
"164 355 CURVE",
"164 541 OFFCURVE",
"224 694 OFFCURVE",
"399 694 CURVE",
"524 694 OFFCURVE",
"602 614 OFFCURVE",
"622 476 CURVE",
"647 476 LINE",
"645 593 LINE",
"647 710 LINE",
"622 710 LINE",
"619 682 OFFCURVE",
"609 672 OFFCURVE",
"595 672 CURVE",
"589 672 OFFCURVE",
"573 679 OFFCURVE",
"556 687 CURVE",
"529 700 OFFCURVE",
"477 724 OFFCURVE",
"396 724 CURVE",
"213 724 OFFCURVE",
"62 567 OFFCURVE",
"62 355 CURVE",
"62 141 OFFCURVE",
"186 -11 OFFCURVE",
"390 -11 CURVE"
);
}
);
width = 720;
}
);
leftKerningGroup = C;
note = "\012		Cdotaccent\012  ";
unicode = 010A;
},
{
glyphname = D;
layers = (
{
layerId = "72C12618-BAE4-4A2B-8370-CBFBBD108EB7";
paths = (
{
closed = 1;
nodes = (
"60 24 LINE",
"40 22 LINE",
"40 -3 LINE",
"188 0 LINE",
"380 0 LINE SMOOTH",
"574 0 OFFCURVE",
"750 120 OFFCURVE",
"750 358 CURVE",
"750 607 OFFCURVE",
"599 710 OFFCURVE",
"330 710 CURVE",
"189 710 LINE",
"41 713 LINE",
"41 688 LINE",
"61 686 LINE SMOOTH",
"130 678 OFFCURVE",
"147 676 OFFCURVE",
"147 577 CURVE",
"147 133 LINE SMOOTH",
"147 34 OFFCURVE",
"129 32 OFFCURVE",
"60 24 CURVE"
);
},
{
closed = 1;
nodes = (
"384 30 LINE",
"299 30 LINE SMOOTH",
"238 30 OFFCURVE",
"233 88 OFFCURVE",
"233 146 CURVE",
"233 680 LINE",
"359 680 LINE SMOOTH",
"576 680 OFFCURVE",
"654 559 OFFCURVE",
"654 356 CURVE",
"654 133 OFFCURVE",
"547 30 OFFCURVE",
"384 30 CURVE"
);
}
);
width = 792;
}
);
leftKerningGroup = B;
note = "\012		D\012  ";
rightKerningGroup = D;
unicode = 0044;
},
{
glyphname = Eth;
layers = (
{
layerId = "72C12618-BAE4-4A2B-8370-CBFBBD108EB7";
paths = (
{
closed = 1;
nodes = (
"330 710 LINE",
"189 710 LINE",
"41 713 LINE",
"41 688 LINE",
"61 686 LINE SMOOTH",
"130 678 OFFCURVE",
"147 676 OFFCURVE",
"147 577 CURVE",
"147 383 LINE",
"40 383 LINE",
"40 351 LINE",
"147 351 LINE",
"147 133 LINE SMOOTH",
"147 34 OFFCURVE",
"129 32 OFFCURVE",
"60 24 CURVE",
"40 22 LINE",
"40 -3 LINE",
"188 0 LINE",
"380 0 LINE SMOOTH",
"574 0 OFFCURVE",
"750 120 OFFCURVE",
"750 358 CURVE",
"750 607 OFFCURVE",
"599 710 OFFCURVE",
"330 710 CURVE"
);
},
{
closed = 1;
nodes = (
"384 30 LINE",
"299 30 LINE SMOOTH",
"238 30 OFFCURVE",
"233 88 OFFCURVE",
"233 146 CURVE",
"233 351 LINE",
"418 351 LINE",
"418 383 LINE",
"233 383 LINE",
"233 680 LINE",
"359 680 LINE SMOOTH",
"576 680 OFFCURVE",
"654 559 OFFCURVE",
"654 356 CURVE",
"654 133 OFFCURVE",
"547 30 OFFCURVE",
"384 30 CURVE"
);
}
);
width = 792;
}
);
leftKerningGroup = B;
note = "\012		Eth\012  ";
rightKerningGroup = D;
unicode = 00D0;
},
{
glyphname = Dcaron;
layers = (
{
layerId = "72C12618-BAE4-4A2B-8370-CBFBBD108EB7";
paths = (
{
closed = 1;
nodes = (
"365 847 LINE",
"359 847 LINE",
"281 940 LINE",
"257 940 LINE",
"351 760 LINE",
"373 760 LINE",
"467 940 LINE",
"443 940 LINE"
);
},
{
closed = 1;
nodes = (
"60 24 LINE",
"40 22 LINE",
"40 -3 LINE",
"188 0 LINE",
"380 0 LINE SMOOTH",
"574 0 OFFCURVE",
"750 120 OFFCURVE",
"750 358 CURVE",
"750 607 OFFCURVE",
"599 710 OFFCURVE",
"330 710 CURVE",
"189 710 LINE",
"41 713 LINE",
"41 688 LINE",
"61 686 LINE SMOOTH",
"130 678 OFFCURVE",
"147 676 OFFCURVE",
"147 577 CURVE",
"147 133 LINE SMOOTH",
"147 34 OFFCURVE",
"129 32 OFFCURVE",
"60 24 CURVE"
);
},
{
closed = 1;
nodes = (
"384 30 LINE",
"299 30 LINE SMOOTH",
"238 30 OFFCURVE",
"233 88 OFFCURVE",
"233 146 CURVE",
"233 680 LINE",
"359 680 LINE SMOOTH",
"576 680 OFFCURVE",
"654 559 OFFCURVE",
"654 356 CURVE",
"654 133 OFFCURVE",
"547 30 OFFCURVE",
"384 30 CURVE"
);
}
);
width = 792;
}
);
leftKerningGroup = B;
note = "\012		Dcaron\012  ";
rightKerningGroup = D;
unicode = 010E;
},
{
glyphname = Dcroat;
layers = (
{
layerId = "72C12618-BAE4-4A2B-8370-CBFBBD108EB7";
paths = (
{
closed = 1;
nodes = (
"330 710 LINE",
"189 710 LINE",
"41 713 LINE",
"41 688 LINE",
"61 686 LINE SMOOTH",
"130 678 OFFCURVE",
"147 676 OFFCURVE",
"147 577 CURVE",
"147 383 LINE",
"40 383 LINE",
"40 351 LINE",
"147 351 LINE",
"147 133 LINE SMOOTH",
"147 34 OFFCURVE",
"129 32 OFFCURVE",
"60 24 CURVE",
"40 22 LINE",
"40 -3 LINE",
"188 0 LINE",
"380 0 LINE SMOOTH",
"574 0 OFFCURVE",
"750 120 OFFCURVE",
"750 358 CURVE",
"750 607 OFFCURVE",
"599 710 OFFCURVE",
"330 710 CURVE"
);
},
{
closed = 1;
nodes = (
"384 30 LINE",
"299 30 LINE SMOOTH",
"238 30 OFFCURVE",
"233 88 OFFCURVE",
"233 146 CURVE",
"233 351 LINE",
"418 351 LINE",
"418 383 LINE",
"233 383 LINE",
"233 680 LINE",
"359 680 LINE SMOOTH",
"576 680 OFFCURVE",
"654 559 OFFCURVE",
"654 356 CURVE",
"654 133 OFFCURVE",
"547 30 OFFCURVE",
"384 30 CURVE"
);
}
);
width = 792;
}
);
leftKerningGroup = B;
note = "\012		Dcroat\012  ";
rightKerningGroup = D;
unicode = 0110;
},
{
glyphname = E;
layers = (
{
layerId = "72C12618-BAE4-4A2B-8370-CBFBBD108EB7";
paths = (
{
closed = 1;
nodes = (
"599 0 LINE",
"602 90 LINE",
"609 210 LINE",
"584 210 LINE",
"571 55 OFFCURVE",
"539 28 OFFCURVE",
"423 28 CURVE",
"330 28 LINE SMOOTH",
"254 28 OFFCURVE",
"231 43 OFFCURVE",
"231 107 CURVE",
"231 360 LINE",
"343 360 LINE SMOOTH",
"389 360 OFFCURVE",
"414 323 OFFCURVE",
"414 226 CURVE",
"439 226 LINE",
"436 374 LINE",
"439 508 LINE",
"414 508 LINE",
"409 409 OFFCURVE",
"382 388 OFFCURVE",
"343 388 CURVE",
"231 388 LINE",
"231 681 LINE",
"363 681 LINE SMOOTH",
"511 681 OFFCURVE",
"543 667 OFFCURVE",
"562 546 CURVE",
"586 546 LINE",
"578 638 LINE",
"576 710 LINE",
"188 710 LINE",
"40 713 LINE",
"40 688 LINE",
"60 686 LINE SMOOTH",
"129 678 OFFCURVE",
"146 676 OFFCURVE",
"146 577 CURVE",
"146 133 LINE SMOOTH",
"146 34 OFFCURVE",
"129 32 OFFCURVE",
"60 24 CURVE",
"40 22 LINE",
"40 -3 LINE",
"188 0 LINE"
);
}
);
width = 649;
}
);
leftKerningGroup = B;
note = "\012		E\012  ";
rightKerningGroup = E;
unicode = 0045;
},
{
glyphname = Eacute;
layers = (
{
layerId = "72C12618-BAE4-4A2B-8370-CBFBBD108EB7";
paths = (
{
closed = 1;
nodes = (
"384 940 LINE",
"358 760 LINE",
"370 760 LINE",
"465 940 LINE"
);
},
{
closed = 1;
nodes = (
"599 0 LINE",
"602 90 LINE",
"609 210 LINE",
"584 210 LINE",
"571 55 OFFCURVE",
"539 28 OFFCURVE",
"423 28 CURVE",
"330 28 LINE SMOOTH",
"254 28 OFFCURVE",
"231 43 OFFCURVE",
"231 107 CURVE",
"231 360 LINE",
"343 360 LINE SMOOTH",
"389 360 OFFCURVE",
"414 323 OFFCURVE",
"414 226 CURVE",
"439 226 LINE",
"436 374 LINE",
"439 508 LINE",
"414 508 LINE",
"409 409 OFFCURVE",
"382 388 OFFCURVE",
"343 388 CURVE",
"231 388 LINE",
"231 681 LINE",
"363 681 LINE SMOOTH",
"511 681 OFFCURVE",
"543 667 OFFCURVE",
"562 546 CURVE",
"586 546 LINE",
"578 638 LINE",
"576 710 LINE",
"188 710 LINE",
"40 713 LINE",
"40 688 LINE",
"60 686 LINE SMOOTH",
"129 678 OFFCURVE",
"146 676 OFFCURVE",
"146 577 CURVE",
"146 133 LINE SMOOTH",
"146 34 OFFCURVE",
"129 32 OFFCURVE",
"60 24 CURVE",
"40 22 LINE",
"40 -3 LINE",
"188 0 LINE"
);
}
);
width = 649;
}
);
leftKerningGroup = B;
note = "\012		Eacute\012  ";
rightKerningGroup = E;
unicode = 00C9;
},
{
glyphname = Ecaron;
layers = (
{
layerId = "72C12618-BAE4-4A2B-8370-CBFBBD108EB7";
paths = (
{
closed = 1;
nodes = (
"283 940 LINE",
"259 940 LINE",
"353 760 LINE",
"375 760 LINE",
"469 940 LINE",
"445 940 LINE",
"367 847 LINE",
"361 847 LINE"
);
},
{
closed = 1;
nodes = (
"599 0 LINE",
"602 90 LINE",
"609 210 LINE",
"584 210 LINE",
"571 55 OFFCURVE",
"539 28 OFFCURVE",
"423 28 CURVE",
"330 28 LINE SMOOTH",
"254 28 OFFCURVE",
"231 43 OFFCURVE",
"231 107 CURVE",
"231 360 LINE",
"343 360 LINE SMOOTH",
"389 360 OFFCURVE",
"414 323 OFFCURVE",
"414 226 CURVE",
"439 226 LINE",
"436 374 LINE",
"439 508 LINE",
"414 508 LINE",
"409 409 OFFCURVE",
"382 388 OFFCURVE",
"343 388 CURVE",
"231 388 LINE",
"231 681 LINE",
"363 681 LINE SMOOTH",
"511 681 OFFCURVE",
"543 667 OFFCURVE",
"562 546 CURVE",
"586 546 LINE",
"578 638 LINE",
"576 710 LINE",
"188 710 LINE",
"40 713 LINE",
"40 688 LINE",
"60 686 LINE SMOOTH",
"129 678 OFFCURVE",
"146 676 OFFCURVE",
"146 577 CURVE",
"146 133 LINE SMOOTH",
"146 34 OFFCURVE",
"129 32 OFFCURVE",
"60 24 CURVE",
"40 22 LINE",
"40 -3 LINE",
"188 0 LINE"
);
}
);
width = 649;
}
);
leftKerningGroup = B;
note = "\012		Ecaron\012  ";
rightKerningGroup = E;
unicode = 011A;
},
{
glyphname = Ecircumflex;
layers = (
{
layerId = "72C12618-BAE4-4A2B-8370-CBFBBD108EB7";
paths = (
{
closed = 1;
nodes = (
"351 940 LINE",
"257 761 LINE",
"281 761 LINE",
"359 853 LINE",
"365 853 LINE",
"443 761 LINE",
"467 761 LINE",
"373 940 LINE"
);
},
{
closed = 1;
nodes = (
"599 0 LINE",
"602 90 LINE",
"609 210 LINE",
"584 210 LINE",
"571 55 OFFCURVE",
"539 28 OFFCURVE",
"423 28 CURVE",
"330 28 LINE SMOOTH",
"254 28 OFFCURVE",
"231 43 OFFCURVE",
"231 107 CURVE",
"231 360 LINE",
"343 360 LINE SMOOTH",
"389 360 OFFCURVE",
"414 323 OFFCURVE",
"414 226 CURVE",
"439 226 LINE",
"436 374 LINE",
"439 508 LINE",
"414 508 LINE",
"409 409 OFFCURVE",
"382 388 OFFCURVE",
"343 388 CURVE",
"231 388 LINE",
"231 681 LINE",
"363 681 LINE SMOOTH",
"511 681 OFFCURVE",
"543 667 OFFCURVE",
"562 546 CURVE",
"586 546 LINE",
"578 638 LINE",
"576 710 LINE",
"188 710 LINE",
"40 713 LINE",
"40 688 LINE",
"60 686 LINE SMOOTH",
"129 678 OFFCURVE",
"146 676 OFFCURVE",
"146 577 CURVE",
"146 133 LINE SMOOTH",
"146 34 OFFCURVE",
"129 32 OFFCURVE",
"60 24 CURVE",
"40 22 LINE",
"40 -3 LINE",
"188 0 LINE"
);
}
);
width = 649;
}
);
leftKerningGroup = B;
note = "\012		Ecircumflex\012  ";
rightKerningGroup = E;
unicode = 00CA;
},
{
glyphname = Edieresis;
layers = (
{
layerId = "72C12618-BAE4-4A2B-8370-CBFBBD108EB7";
paths = (
{
closed = 1;
nodes = (
"272 822 LINE",
"306 822 OFFCURVE",
"322 847 OFFCURVE",
"322 879 CURVE",
"322 910 OFFCURVE",
"306 935 OFFCURVE",
"272 935 CURVE",
"240 935 OFFCURVE",
"221 910 OFFCURVE",
"221 879 CURVE",
"221 847 OFFCURVE",
"240 822 OFFCURVE",
"272 822 CURVE"
);
},
{
closed = 1;
nodes = (
"462 822 LINE",
"496 822 OFFCURVE",
"512 847 OFFCURVE",
"512 879 CURVE",
"512 910 OFFCURVE",
"496 935 OFFCURVE",
"462 935 CURVE",
"430 935 OFFCURVE",
"411 910 OFFCURVE",
"411 879 CURVE",
"411 847 OFFCURVE",
"430 822 OFFCURVE",
"462 822 CURVE"
);
},
{
closed = 1;
nodes = (
"599 0 LINE",
"602 90 LINE",
"609 210 LINE",
"584 210 LINE",
"571 55 OFFCURVE",
"539 28 OFFCURVE",
"423 28 CURVE",
"330 28 LINE SMOOTH",
"254 28 OFFCURVE",
"231 43 OFFCURVE",
"231 107 CURVE",
"231 360 LINE",
"343 360 LINE SMOOTH",
"389 360 OFFCURVE",
"414 323 OFFCURVE",
"414 226 CURVE",
"439 226 LINE",
"436 374 LINE",
"439 508 LINE",
"414 508 LINE",
"409 409 OFFCURVE",
"382 388 OFFCURVE",
"343 388 CURVE",
"231 388 LINE",
"231 681 LINE",
"363 681 LINE SMOOTH",
"511 681 OFFCURVE",
"543 667 OFFCURVE",
"562 546 CURVE",
"586 546 LINE",
"578 638 LINE",
"576 710 LINE",
"188 710 LINE",
"40 713 LINE",
"40 688 LINE",
"60 686 LINE SMOOTH",
"129 678 OFFCURVE",
"146 676 OFFCURVE",
"146 577 CURVE",
"146 133 LINE SMOOTH",
"146 34 OFFCURVE",
"129 32 OFFCURVE",
"60 24 CURVE",
"40 22 LINE",
"40 -3 LINE",
"188 0 LINE"
);
}
);
width = 649;
}
);
leftKerningGroup = B;
note = "\012		Edieresis\012  ";
rightKerningGroup = E;
unicode = 00CB;
},
{
glyphname = Edotaccent;
layers = (
{
layerId = "72C12618-BAE4-4A2B-8370-CBFBBD108EB7";
paths = (
{
closed = 1;
nodes = (
"363 794 LINE",
"401 794 OFFCURVE",
"419 821 OFFCURVE",
"419 855 CURVE",
"419 889 OFFCURVE",
"401 916 OFFCURVE",
"363 916 CURVE",
"328 916 OFFCURVE",
"307 889 OFFCURVE",
"307 855 CURVE",
"307 821 OFFCURVE",
"328 794 OFFCURVE",
"363 794 CURVE"
);
},
{
closed = 1;
nodes = (
"599 0 LINE",
"602 90 LINE",
"609 210 LINE",
"584 210 LINE",
"571 55 OFFCURVE",
"539 28 OFFCURVE",
"423 28 CURVE",
"330 28 LINE SMOOTH",
"254 28 OFFCURVE",
"231 43 OFFCURVE",
"231 107 CURVE",
"231 360 LINE",
"343 360 LINE SMOOTH",
"389 360 OFFCURVE",
"414 323 OFFCURVE",
"414 226 CURVE",
"439 226 LINE",
"436 374 LINE",
"439 508 LINE",
"414 508 LINE",
"409 409 OFFCURVE",
"382 388 OFFCURVE",
"343 388 CURVE",
"231 388 LINE",
"231 681 LINE",
"363 681 LINE SMOOTH",
"511 681 OFFCURVE",
"543 667 OFFCURVE",
"562 546 CURVE",
"586 546 LINE",
"578 638 LINE",
"576 710 LINE",
"188 710 LINE",
"40 713 LINE",
"40 688 LINE",
"60 686 LINE SMOOTH",
"129 678 OFFCURVE",
"146 676 OFFCURVE",
"146 577 CURVE",
"146 133 LINE SMOOTH",
"146 34 OFFCURVE",
"129 32 OFFCURVE",
"60 24 CURVE",
"40 22 LINE",
"40 -3 LINE",
"188 0 LINE"
);
}
);
width = 649;
}
);
leftKerningGroup = B;
note = "\012		Edotaccent\012  ";
rightKerningGroup = E;
unicode = 0116;
},
{
glyphname = Egrave;
layers = (
{
layerId = "72C12618-BAE4-4A2B-8370-CBFBBD108EB7";
paths = (
{
closed = 1;
nodes = (
"343 940 LINE",
"262 940 LINE",
"357 760 LINE",
"369 760 LINE"
);
},
{
closed = 1;
nodes = (
"599 0 LINE",
"602 90 LINE",
"609 210 LINE",
"584 210 LINE",
"571 55 OFFCURVE",
"539 28 OFFCURVE",
"423 28 CURVE",
"330 28 LINE SMOOTH",
"254 28 OFFCURVE",
"231 43 OFFCURVE",
"231 107 CURVE",
"231 360 LINE",
"343 360 LINE SMOOTH",
"389 360 OFFCURVE",
"414 323 OFFCURVE",
"414 226 CURVE",
"439 226 LINE",
"436 374 LINE",
"439 508 LINE",
"414 508 LINE",
"409 409 OFFCURVE",
"382 388 OFFCURVE",
"343 388 CURVE",
"231 388 LINE",
"231 681 LINE",
"363 681 LINE SMOOTH",
"511 681 OFFCURVE",
"543 667 OFFCURVE",
"562 546 CURVE",
"586 546 LINE",
"578 638 LINE",
"576 710 LINE",
"188 710 LINE",
"40 713 LINE",
"40 688 LINE",
"60 686 LINE SMOOTH",
"129 678 OFFCURVE",
"146 676 OFFCURVE",
"146 577 CURVE",
"146 133 LINE SMOOTH",
"146 34 OFFCURVE",
"129 32 OFFCURVE",
"60 24 CURVE",
"40 22 LINE",
"40 -3 LINE",
"188 0 LINE"
);
}
);
width = 649;
}
);
leftKerningGroup = B;
note = "\012		Egrave\012  ";
rightKerningGroup = E;
unicode = 00C8;
},
{
glyphname = Emacron;
layers = (
{
layerId = "72C12618-BAE4-4A2B-8370-CBFBBD108EB7";
paths = (
{
closed = 1;
nodes = (
"246 874 LINE",
"246 834 LINE",
"473 834 LINE",
"473 874 LINE"
);
},
{
closed = 1;
nodes = (
"599 0 LINE",
"602 90 LINE",
"609 210 LINE",
"584 210 LINE",
"571 55 OFFCURVE",
"539 28 OFFCURVE",
"423 28 CURVE",
"330 28 LINE SMOOTH",
"254 28 OFFCURVE",
"231 43 OFFCURVE",
"231 107 CURVE",
"231 360 LINE",
"343 360 LINE SMOOTH",
"389 360 OFFCURVE",
"414 323 OFFCURVE",
"414 226 CURVE",
"439 226 LINE",
"436 374 LINE",
"439 508 LINE",
"414 508 LINE",
"409 409 OFFCURVE",
"382 388 OFFCURVE",
"343 388 CURVE",
"231 388 LINE",
"231 681 LINE",
"363 681 LINE SMOOTH",
"511 681 OFFCURVE",
"543 667 OFFCURVE",
"562 546 CURVE",
"586 546 LINE",
"578 638 LINE",
"576 710 LINE",
"188 710 LINE",
"40 713 LINE",
"40 688 LINE",
"60 686 LINE SMOOTH",
"129 678 OFFCURVE",
"146 676 OFFCURVE",
"146 577 CURVE",
"146 133 LINE SMOOTH",
"146 34 OFFCURVE",
"129 32 OFFCURVE",
"60 24 CURVE",
"40 22 LINE",
"40 -3 LINE",
"188 0 LINE"
);
}
);
width = 649;
}
);
leftKerningGroup = B;
note = "\012		Emacron\012  ";
rightKerningGroup = E;
unicode = 0112;
},
{
glyphname = Eogonek;
layers = (
{
layerId = "72C12618-BAE4-4A2B-8370-CBFBBD108EB7";
paths = (
{
closed = 1;
nodes = (
"624 -183 LINE",
"607 -170 LINE",
"588 -212 OFFCURVE",
"552 -239 OFFCURVE",
"515 -239 CURVE",
"474 -239 OFFCURVE",
"439 -210 OFFCURVE",
"439 -154 CURVE",
"439 -69 OFFCURVE",
"527 0 OFFCURVE",
"599 0 CURVE",
"602 90 LINE",
"609 210 LINE",
"584 210 LINE",
"571 55 OFFCURVE",
"539 28 OFFCURVE",
"423 28 CURVE",
"330 28 LINE SMOOTH",
"254 28 OFFCURVE",
"231 43 OFFCURVE",
"231 107 CURVE",
"231 360 LINE",
"343 360 LINE SMOOTH",
"389 360 OFFCURVE",
"414 323 OFFCURVE",
"414 226 CURVE",
"439 226 LINE",
"436 374 LINE",
"439 508 LINE",
"414 508 LINE",
"409 409 OFFCURVE",
"382 388 OFFCURVE",
"343 388 CURVE",
"231 388 LINE",
"231 681 LINE",
"363 681 LINE SMOOTH",
"511 681 OFFCURVE",
"543 667 OFFCURVE",
"562 546 CURVE",
"586 546 LINE",
"578 638 LINE",
"576 710 LINE",
"188 710 LINE",
"40 713 LINE",
"40 688 LINE",
"60 686 LINE SMOOTH",
"129 678 OFFCURVE",
"146 676 OFFCURVE",
"146 577 CURVE",
"146 133 LINE SMOOTH",
"146 34 OFFCURVE",
"129 32 OFFCURVE",
"60 24 CURVE",
"40 22 LINE",
"40 -3 LINE",
"188 0 LINE",
"525 0 LINE",
"435 -50 OFFCURVE",
"386 -127 OFFCURVE",
"386 -191 CURVE",
"386 -250 OFFCURVE",
"433 -294 OFFCURVE",
"494 -294 CURVE",
"580 -294 OFFCURVE",
"617 -234 OFFCURVE",
"624 -183 CURVE"
);
}
);
width = 649;
}
);
leftKerningGroup = B;
note = "\012		Eogonek\012  ";
rightKerningGroup = E;
unicode = 0118;
},
{
glyphname = F;
layers = (
{
layerId = "72C12618-BAE4-4A2B-8370-CBFBBD108EB7";
paths = (
{
closed = 1;
nodes = (
"578 548 LINE",
"602 548 LINE",
"593 637 LINE",
"590 710 LINE",
"188 710 LINE",
"40 713 LINE",
"40 688 LINE",
"60 686 LINE SMOOTH",
"129 678 OFFCURVE",
"146 676 OFFCURVE",
"146 577 CURVE",
"146 133 LINE SMOOTH",
"146 34 OFFCURVE",
"129 32 OFFCURVE",
"60 24 CURVE",
"40 22 LINE",
"40 -3 LINE",
"188 0 LINE",
"189 0 LINE",
"351 -3 LINE",
"351 22 LINE",
"317 24 LINE SMOOTH",
"252 28 OFFCURVE",
"231 34 OFFCURVE",
"231 133 CURVE",
"231 360 LINE",
"343 360 LINE SMOOTH",
"389 360 OFFCURVE",
"414 323 OFFCURVE",
"414 226 CURVE",
"439 226 LINE",
"436 374 LINE",
"439 508 LINE",
"414 508 LINE",
"409 409 OFFCURVE",
"382 388 OFFCURVE",
"343 388 CURVE",
"231 388 LINE",
"231 681 LINE",
"395 681 LINE SMOOTH",
"461 681 OFFCURVE",
"567 681 OFFCURVE",
"578 548 CURVE"
);
}
);
width = 607;
}
);
leftKerningGroup = B;
note = "\012		F\012  ";
rightKerningGroup = F;
unicode = 0046;
},
{
glyphname = G;
layers = (
{
layerId = "72C12618-BAE4-4A2B-8370-CBFBBD108EB7";
paths = (
{
closed = 1;
nodes = (
"394 -11 LINE",
"493 -11 OFFCURVE",
"541 23 OFFCURVE",
"576 48 CURVE",
"596 63 OFFCURVE",
"612 75 OFFCURVE",
"633 75 CURVE",
"645 75 OFFCURVE",
"662 67 OFFCURVE",
"680 39 CURVE",
"703 54 LINE",
"689 79 LINE SMOOTH",
"679 97 OFFCURVE",
"667 125 OFFCURVE",
"667 156 CURVE",
"667 174 LINE SMOOTH",
"667 237 OFFCURVE",
"692 258 OFFCURVE",
"728 261 CURVE",
"773 265 LINE",
"773 289 LINE",
"619 285 LINE",
"453 289 LINE",
"453 265 LINE",
"496 261 LINE SMOOTH",
"569 254 OFFCURVE",
"592 233 OFFCURVE",
"592 174 CURVE",
"592 146 LINE SMOOTH",
"592 81 OFFCURVE",
"511 19 OFFCURVE",
"400 19 CURVE",
"250 19 OFFCURVE",
"164 126 OFFCURVE",
"164 355 CURVE",
"164 572 OFFCURVE",
"241 694 OFFCURVE",
"397 694 CURVE",
"504 694 OFFCURVE",
"617 614 OFFCURVE",
"621 478 CURVE",
"646 478 LINE",
"644 595 LINE",
"646 710 LINE",
"621 710 LINE",
"621 694 OFFCURVE",
"614 673 OFFCURVE",
"596 673 CURVE",
"579 673 OFFCURVE",
"570 677 OFFCURVE",
"536 692 CURVE",
"506 705 OFFCURVE",
"459 724 OFFCURVE",
"400 724 CURVE",
"218 724 OFFCURVE",
"62 572 OFFCURVE",
"62 355 CURVE",
"62 131 OFFCURVE",
"210 -11 OFFCURVE",
"394 -11 CURVE"
);
}
);
width = 785;
}
);
leftKerningGroup = C;
note = "\012		G\012  ";
rightKerningGroup = G;
unicode = 0047;
},
{
glyphname = Gbreve;
layers = (
{
layerId = "72C12618-BAE4-4A2B-8370-CBFBBD108EB7";
paths = (
{
closed = 1;
nodes = (
"400 788 LINE",
"467 788 OFFCURVE",
"501 839 OFFCURVE",
"501 904 CURVE",
"501 937 LINE",
"476 937 LINE",
"476 932 LINE SMOOTH",
"476 866 OFFCURVE",
"448 848 OFFCURVE",
"400 848 CURVE",
"352 848 OFFCURVE",
"324 866 OFFCURVE",
"324 932 CURVE",
"324 937 LINE",
"299 937 LINE",
"299 904 LINE SMOOTH",
"299 839 OFFCURVE",
"333 788 OFFCURVE",
"400 788 CURVE"
);
},
{
closed = 1;
nodes = (
"394 -11 LINE",
"493 -11 OFFCURVE",
"541 23 OFFCURVE",
"576 48 CURVE",
"596 63 OFFCURVE",
"612 75 OFFCURVE",
"633 75 CURVE",
"645 75 OFFCURVE",
"662 67 OFFCURVE",
"680 39 CURVE",
"703 54 LINE",
"689 79 LINE SMOOTH",
"679 97 OFFCURVE",
"667 125 OFFCURVE",
"667 156 CURVE",
"667 174 LINE SMOOTH",
"667 237 OFFCURVE",
"692 258 OFFCURVE",
"728 261 CURVE",
"773 265 LINE",
"773 289 LINE",
"619 285 LINE",
"453 289 LINE",
"453 265 LINE",
"496 261 LINE SMOOTH",
"569 254 OFFCURVE",
"592 233 OFFCURVE",
"592 174 CURVE",
"592 146 LINE SMOOTH",
"592 81 OFFCURVE",
"511 19 OFFCURVE",
"400 19 CURVE",
"250 19 OFFCURVE",
"164 126 OFFCURVE",
"164 355 CURVE",
"164 572 OFFCURVE",
"241 694 OFFCURVE",
"397 694 CURVE",
"504 694 OFFCURVE",
"617 614 OFFCURVE",
"621 478 CURVE",
"646 478 LINE",
"644 595 LINE",
"646 710 LINE",
"621 710 LINE",
"621 694 OFFCURVE",
"614 673 OFFCURVE",
"596 673 CURVE",
"579 673 OFFCURVE",
"570 677 OFFCURVE",
"536 692 CURVE",
"506 705 OFFCURVE",
"459 724 OFFCURVE",
"400 724 CURVE",
"218 724 OFFCURVE",
"62 572 OFFCURVE",
"62 355 CURVE",
"62 131 OFFCURVE",
"210 -11 OFFCURVE",
"394 -11 CURVE"
);
}
);
width = 785;
}
);
leftKerningGroup = C;
note = "\012		Gbreve\012  ";
rightKerningGroup = G;
unicode = 011E;
},
{
glyphname = Gdotaccent;
layers = (
{
layerId = "72C12618-BAE4-4A2B-8370-CBFBBD108EB7";
paths = (
{
closed = 1;
nodes = (
"399 794 LINE",
"437 794 OFFCURVE",
"455 821 OFFCURVE",
"455 855 CURVE",
"455 889 OFFCURVE",
"437 916 OFFCURVE",
"399 916 CURVE",
"364 916 OFFCURVE",
"343 889 OFFCURVE",
"343 855 CURVE",
"343 821 OFFCURVE",
"364 794 OFFCURVE",
"399 794 CURVE"
);
},
{
closed = 1;
nodes = (
"394 -11 LINE",
"493 -11 OFFCURVE",
"541 23 OFFCURVE",
"576 48 CURVE",
"596 63 OFFCURVE",
"612 75 OFFCURVE",
"633 75 CURVE",
"645 75 OFFCURVE",
"662 67 OFFCURVE",
"680 39 CURVE",
"703 54 LINE",
"689 79 LINE SMOOTH",
"679 97 OFFCURVE",
"667 125 OFFCURVE",
"667 156 CURVE",
"667 174 LINE SMOOTH",
"667 237 OFFCURVE",
"692 258 OFFCURVE",
"728 261 CURVE",
"773 265 LINE",
"773 289 LINE",
"619 285 LINE",
"453 289 LINE",
"453 265 LINE",
"496 261 LINE SMOOTH",
"569 254 OFFCURVE",
"592 233 OFFCURVE",
"592 174 CURVE",
"592 146 LINE SMOOTH",
"592 81 OFFCURVE",
"511 19 OFFCURVE",
"400 19 CURVE",
"250 19 OFFCURVE",
"164 126 OFFCURVE",
"164 355 CURVE",
"164 572 OFFCURVE",
"241 694 OFFCURVE",
"397 694 CURVE",
"504 694 OFFCURVE",
"617 614 OFFCURVE",
"621 478 CURVE",
"646 478 LINE",
"644 595 LINE",
"646 710 LINE",
"621 710 LINE",
"621 694 OFFCURVE",
"614 673 OFFCURVE",
"596 673 CURVE",
"579 673 OFFCURVE",
"570 677 OFFCURVE",
"536 692 CURVE",
"506 705 OFFCURVE",
"459 724 OFFCURVE",
"400 724 CURVE",
"218 724 OFFCURVE",
"62 572 OFFCURVE",
"62 355 CURVE",
"62 131 OFFCURVE",
"210 -11 OFFCURVE",
"394 -11 CURVE"
);
}
);
width = 785;
}
);
leftKerningGroup = C;
note = "\012		Gdotaccent\012  ";
rightKerningGroup = G;
unicode = 0120;
},
{
glyphname = H;
layers = (
{
layerId = "72C12618-BAE4-4A2B-8370-CBFBBD108EB7";
paths = (
{
closed = 1;
nodes = (
"783 686 LINE",
"803 688 LINE",
"803 713 LINE",
"655 710 LINE",
"654 710 LINE",
"506 713 LINE",
"506 688 LINE",
"526 686 LINE SMOOTH",
"595 678 OFFCURVE",
"612 676 OFFCURVE",
"612 577 CURVE",
"612 384 LINE",
"231 384 LINE",
"231 577 LINE SMOOTH",
"231 676 OFFCURVE",
"248 678 OFFCURVE",
"317 686 CURVE",
"337 688 LINE",
"337 713 LINE",
"189 710 LINE",
"188 710 LINE",
"40 713 LINE",
"40 688 LINE",
"60 686 LINE SMOOTH",
"129 678 OFFCURVE",
"146 676 OFFCURVE",
"146 577 CURVE",
"146 133 LINE SMOOTH",
"146 34 OFFCURVE",
"129 32 OFFCURVE",
"60 24 CURVE",
"40 22 LINE",
"40 -3 LINE",
"188 0 LINE",
"189 0 LINE",
"337 -3 LINE",
"337 22 LINE",
"317 24 LINE SMOOTH",
"248 32 OFFCURVE",
"231 34 OFFCURVE",
"231 133 CURVE",
"231 352 LINE",
"612 352 LINE",
"612 133 LINE SMOOTH",
"612 34 OFFCURVE",
"595 32 OFFCURVE",
"526 24 CURVE",
"506 22 LINE",
"506 -3 LINE",
"654 0 LINE",
"655 0 LINE",
"803 -3 LINE",
"803 22 LINE",
"783 24 LINE SMOOTH",
"714 32 OFFCURVE",
"697 34 OFFCURVE",
"697 133 CURVE",
"697 577 LINE SMOOTH",
"697 676 OFFCURVE",
"714 678 OFFCURVE",
"783 686 CURVE"
);
}
);
width = 843;
}
);
leftKerningGroup = B;
note = "\012		H\012  ";
rightKerningGroup = E;
unicode = 0048;
},
{
glyphname = Hbar;
layers = (
{
layerId = "72C12618-BAE4-4A2B-8370-CBFBBD108EB7";
paths = (
{
closed = 1;
nodes = (
"783 686 LINE",
"803 688 LINE",
"803 713 LINE",
"655 710 LINE",
"654 710 LINE",
"506 713 LINE",
"506 688 LINE",
"526 686 LINE SMOOTH",
"595 678 OFFCURVE",
"612 676 OFFCURVE",
"612 577 CURVE",
"612 535 LINE",
"231 535 LINE",
"231 577 LINE SMOOTH",
"231 676 OFFCURVE",
"248 678 OFFCURVE",
"317 686 CURVE",
"337 688 LINE",
"337 713 LINE",
"189 710 LINE",
"188 710 LINE",
"40 713 LINE",
"40 688 LINE",
"60 686 LINE SMOOTH",
"129 678 OFFCURVE",
"146 676 OFFCURVE",
"146 577 CURVE",
"146 535 LINE",
"44 535 LINE",
"44 506 LINE",
"146 506 LINE",
"146 133 LINE SMOOTH",
"146 34 OFFCURVE",
"129 32 OFFCURVE",
"60 24 CURVE",
"40 22 LINE",
"40 -3 LINE",
"188 0 LINE",
"189 0 LINE",
"337 -3 LINE",
"337 22 LINE",
"317 24 LINE SMOOTH",
"248 32 OFFCURVE",
"231 34 OFFCURVE",
"231 133 CURVE",
"231 352 LINE",
"612 352 LINE",
"612 133 LINE SMOOTH",
"612 34 OFFCURVE",
"595 32 OFFCURVE",
"526 24 CURVE",
"506 22 LINE",
"506 -3 LINE",
"654 0 LINE",
"655 0 LINE",
"803 -3 LINE",
"803 22 LINE",
"783 24 LINE SMOOTH",
"714 32 OFFCURVE",
"697 34 OFFCURVE",
"697 133 CURVE",
"697 506 LINE",
"796 506 LINE",
"796 535 LINE",
"697 535 LINE",
"697 577 LINE SMOOTH",
"697 676 OFFCURVE",
"714 678 OFFCURVE",
"783 686 CURVE"
);
},
{
closed = 1;
nodes = (
"231 384 LINE",
"231 506 LINE",
"612 506 LINE",
"612 384 LINE"
);
}
);
width = 843;
}
);
leftKerningGroup = B;
note = "\012		Hbar\012  ";
rightKerningGroup = E;
unicode = 0126;
},
{
glyphname = I;
layers = (
{
layerId = "72C12618-BAE4-4A2B-8370-CBFBBD108EB7";
paths = (
{
closed = 1;
nodes = (
"60 24 LINE",
"40 22 LINE",
"40 -3 LINE",
"188 0 LINE",
"189 0 LINE",
"337 -3 LINE",
"337 22 LINE",
"317 24 LINE SMOOTH",
"248 32 OFFCURVE",
"231 34 OFFCURVE",
"231 133 CURVE",
"231 577 LINE SMOOTH",
"231 676 OFFCURVE",
"248 678 OFFCURVE",
"317 686 CURVE",
"337 688 LINE",
"337 713 LINE",
"189 710 LINE",
"188 710 LINE",
"40 713 LINE",
"40 688 LINE",
"60 686 LINE SMOOTH",
"129 678 OFFCURVE",
"146 676 OFFCURVE",
"146 577 CURVE",
"146 133 LINE SMOOTH",
"146 34 OFFCURVE",
"129 32 OFFCURVE",
"60 24 CURVE"
);
}
);
width = 377;
}
);
leftKerningGroup = B;
note = "\012		I\012  ";
rightKerningGroup = E;
unicode = 0049;
},
{
glyphname = Iacute;
layers = (
{
layerId = "72C12618-BAE4-4A2B-8370-CBFBBD108EB7";
paths = (
{
closed = 1;
nodes = (
"194 760 LINE",
"289 940 LINE",
"208 940 LINE",
"182 760 LINE"
);
},
{
closed = 1;
nodes = (
"60 24 LINE",
"40 22 LINE",
"40 -3 LINE",
"188 0 LINE",
"189 0 LINE",
"337 -3 LINE",
"337 22 LINE",
"317 24 LINE SMOOTH",
"248 32 OFFCURVE",
"231 34 OFFCURVE",
"231 133 CURVE",
"231 577 LINE SMOOTH",
"231 676 OFFCURVE",
"248 678 OFFCURVE",
"317 686 CURVE",
"337 688 LINE",
"337 713 LINE",
"189 710 LINE",
"188 710 LINE",
"40 713 LINE",
"40 688 LINE",
"60 686 LINE SMOOTH",
"129 678 OFFCURVE",
"146 676 OFFCURVE",
"146 577 CURVE",
"146 133 LINE SMOOTH",
"146 34 OFFCURVE",
"129 32 OFFCURVE",
"60 24 CURVE"
);
}
);
width = 377;
}
);
leftKerningGroup = B;
note = "\012		Iacute\012  ";
rightKerningGroup = E;
unicode = 00CD;
},
{
glyphname = Icircumflex;
layers = (
{
layerId = "72C12618-BAE4-4A2B-8370-CBFBBD108EB7";
paths = (
{
closed = 1;
nodes = (
"291 761 LINE",
"197 940 LINE",
"175 940 LINE",
"81 761 LINE",
"105 761 LINE",
"183 853 LINE",
"189 853 LINE",
"267 761 LINE"
);
},
{
closed = 1;
nodes = (
"60 24 LINE",
"40 22 LINE",
"40 -3 LINE",
"188 0 LINE",
"189 0 LINE",
"337 -3 LINE",
"337 22 LINE",
"317 24 LINE SMOOTH",
"248 32 OFFCURVE",
"231 34 OFFCURVE",
"231 133 CURVE",
"231 577 LINE SMOOTH",
"231 676 OFFCURVE",
"248 678 OFFCURVE",
"317 686 CURVE",
"337 688 LINE",
"337 713 LINE",
"189 710 LINE",
"188 710 LINE",
"40 713 LINE",
"40 688 LINE",
"60 686 LINE SMOOTH",
"129 678 OFFCURVE",
"146 676 OFFCURVE",
"146 577 CURVE",
"146 133 LINE SMOOTH",
"146 34 OFFCURVE",
"129 32 OFFCURVE",
"60 24 CURVE"
);
}
);
width = 377;
}
);
leftKerningGroup = B;
note = "\012		Icircumflex\012  ";
rightKerningGroup = E;
unicode = 00CE;
},
{
glyphname = Idieresis;
layers = (
{
layerId = "72C12618-BAE4-4A2B-8370-CBFBBD108EB7";
paths = (
{
closed = 1;
nodes = (
"96 822 LINE",
"130 822 OFFCURVE",
"146 847 OFFCURVE",
"146 879 CURVE",
"146 910 OFFCURVE",
"130 935 OFFCURVE",
"96 935 CURVE",
"64 935 OFFCURVE",
"45 910 OFFCURVE",
"45 879 CURVE",
"45 847 OFFCURVE",
"64 822 OFFCURVE",
"96 822 CURVE"
);
},
{
closed = 1;
nodes = (
"286 822 LINE",
"320 822 OFFCURVE",
"336 847 OFFCURVE",
"336 879 CURVE",
"336 910 OFFCURVE",
"320 935 OFFCURVE",
"286 935 CURVE",
"254 935 OFFCURVE",
"235 910 OFFCURVE",
"235 879 CURVE",
"235 847 OFFCURVE",
"254 822 OFFCURVE",
"286 822 CURVE"
);
},
{
closed = 1;
nodes = (
"60 24 LINE",
"40 22 LINE",
"40 -3 LINE",
"188 0 LINE",
"189 0 LINE",
"337 -3 LINE",
"337 22 LINE",
"317 24 LINE SMOOTH",
"248 32 OFFCURVE",
"231 34 OFFCURVE",
"231 133 CURVE",
"231 577 LINE SMOOTH",
"231 676 OFFCURVE",
"248 678 OFFCURVE",
"317 686 CURVE",
"337 688 LINE",
"337 713 LINE",
"189 710 LINE",
"188 710 LINE",
"40 713 LINE",
"40 688 LINE",
"60 686 LINE SMOOTH",
"129 678 OFFCURVE",
"146 676 OFFCURVE",
"146 577 CURVE",
"146 133 LINE SMOOTH",
"146 34 OFFCURVE",
"129 32 OFFCURVE",
"60 24 CURVE"
);
}
);
width = 377;
}
);
leftKerningGroup = B;
note = "\012		Idieresis\012  ";
rightKerningGroup = E;
unicode = 00CF;
},
{
glyphname = Idotaccent;
layers = (
{
layerId = "72C12618-BAE4-4A2B-8370-CBFBBD108EB7";
paths = (
{
closed = 1;
nodes = (
"187 794 LINE",
"225 794 OFFCURVE",
"243 821 OFFCURVE",
"243 855 CURVE",
"243 889 OFFCURVE",
"225 916 OFFCURVE",
"187 916 CURVE",
"152 916 OFFCURVE",
"131 889 OFFCURVE",
"131 855 CURVE",
"131 821 OFFCURVE",
"152 794 OFFCURVE",
"187 794 CURVE"
);
},
{
closed = 1;
nodes = (
"60 24 LINE",
"40 22 LINE",
"40 -3 LINE",
"188 0 LINE",
"189 0 LINE",
"337 -3 LINE",
"337 22 LINE",
"317 24 LINE SMOOTH",
"248 32 OFFCURVE",
"231 34 OFFCURVE",
"231 133 CURVE",
"231 577 LINE SMOOTH",
"231 676 OFFCURVE",
"248 678 OFFCURVE",
"317 686 CURVE",
"337 688 LINE",
"337 713 LINE",
"189 710 LINE",
"188 710 LINE",
"40 713 LINE",
"40 688 LINE",
"60 686 LINE SMOOTH",
"129 678 OFFCURVE",
"146 676 OFFCURVE",
"146 577 CURVE",
"146 133 LINE SMOOTH",
"146 34 OFFCURVE",
"129 32 OFFCURVE",
"60 24 CURVE"
);
}
);
width = 377;
}
);
leftKerningGroup = B;
note = "\012		Idotaccent\012  ";
rightKerningGroup = E;
unicode = 0130;
},
{
glyphname = Igrave;
layers = (
{
layerId = "72C12618-BAE4-4A2B-8370-CBFBBD108EB7";
paths = (
{
closed = 1;
nodes = (
"167 940 LINE",
"86 940 LINE",
"181 760 LINE",
"193 760 LINE"
);
},
{
closed = 1;
nodes = (
"60 24 LINE",
"40 22 LINE",
"40 -3 LINE",
"188 0 LINE",
"189 0 LINE",
"337 -3 LINE",
"337 22 LINE",
"317 24 LINE SMOOTH",
"248 32 OFFCURVE",
"231 34 OFFCURVE",
"231 133 CURVE",
"231 577 LINE SMOOTH",
"231 676 OFFCURVE",
"248 678 OFFCURVE",
"317 686 CURVE",
"337 688 LINE",
"337 713 LINE",
"189 710 LINE",
"188 710 LINE",
"40 713 LINE",
"40 688 LINE",
"60 686 LINE SMOOTH",
"129 678 OFFCURVE",
"146 676 OFFCURVE",
"146 577 CURVE",
"146 133 LINE SMOOTH",
"146 34 OFFCURVE",
"129 32 OFFCURVE",
"60 24 CURVE"
);
}
);
width = 377;
}
);
leftKerningGroup = B;
note = "\012		Igrave\012  ";
rightKerningGroup = E;
unicode = 00CC;
},
{
glyphname = Imacron;
layers = (
{
layerId = "72C12618-BAE4-4A2B-8370-CBFBBD108EB7";
paths = (
{
closed = 1;
nodes = (
"297 834 LINE",
"297 874 LINE",
"70 874 LINE",
"70 834 LINE"
);
},
{
closed = 1;
nodes = (
"60 24 LINE",
"40 22 LINE",
"40 -3 LINE",
"188 0 LINE",
"189 0 LINE",
"337 -3 LINE",
"337 22 LINE",
"317 24 LINE SMOOTH",
"248 32 OFFCURVE",
"231 34 OFFCURVE",
"231 133 CURVE",
"231 577 LINE SMOOTH",
"231 676 OFFCURVE",
"248 678 OFFCURVE",
"317 686 CURVE",
"337 688 LINE",
"337 713 LINE",
"189 710 LINE",
"188 710 LINE",
"40 713 LINE",
"40 688 LINE",
"60 686 LINE SMOOTH",
"129 678 OFFCURVE",
"146 676 OFFCURVE",
"146 577 CURVE",
"146 133 LINE SMOOTH",
"146 34 OFFCURVE",
"129 32 OFFCURVE",
"60 24 CURVE"
);
}
);
width = 377;
}
);
leftKerningGroup = B;
note = "\012		Imacron\012  ";
rightKerningGroup = E;
unicode = 012A;
},
{
glyphname = Iogonek;
layers = (
{
layerId = "72C12618-BAE4-4A2B-8370-CBFBBD108EB7";
paths = (
{
closed = 1;
nodes = (
"317 686 LINE",
"337 688 LINE",
"337 713 LINE",
"189 710 LINE",
"188 710 LINE",
"40 713 LINE",
"40 688 LINE",
"60 686 LINE SMOOTH",
"129 678 OFFCURVE",
"146 676 OFFCURVE",
"146 577 CURVE",
"146 133 LINE SMOOTH",
"146 34 OFFCURVE",
"129 32 OFFCURVE",
"60 24 CURVE",
"40 22 LINE",
"40 -3 LINE",
"180 0 LINE",
"130 -57 OFFCURVE",
"68 -125 OFFCURVE",
"68 -192 CURVE",
"68 -250 OFFCURVE",
"115 -294 OFFCURVE",
"176 -294 CURVE",
"262 -294 OFFCURVE",
"299 -234 OFFCURVE",
"306 -183 CURVE",
"289 -170 LINE",
"270 -212 OFFCURVE",
"234 -239 OFFCURVE",
"197 -239 CURVE",
"149 -239 OFFCURVE",
"118 -210 OFFCURVE",
"118 -154 CURVE",
"118 -100 OFFCURVE",
"157 -55 OFFCURVE",
"205 0 CURVE",
"337 -3 LINE",
"337 22 LINE",
"317 24 LINE SMOOTH",
"248 32 OFFCURVE",
"231 34 OFFCURVE",
"231 133 CURVE",
"231 577 LINE SMOOTH",
"231 676 OFFCURVE",
"248 678 OFFCURVE",
"317 686 CURVE"
);
}
);
width = 377;
}
);
leftKerningGroup = B;
note = "\012		Iogonek\012  ";
rightKerningGroup = E;
unicode = 012E;
},
{
glyphname = J;
layers = (
{
layerId = "72C12618-BAE4-4A2B-8370-CBFBBD108EB7";
paths = (
{
closed = 1;
nodes = (
"130 -11 LINE",
"205 -11 OFFCURVE",
"295 6 OFFCURVE",
"295 141 CURVE",
"295 577 LINE SMOOTH",
"295 676 OFFCURVE",
"312 678 OFFCURVE",
"381 686 CURVE",
"401 688 LINE",
"401 713 LINE",
"253 710 LINE",
"252 710 LINE",
"104 713 LINE",
"104 688 LINE",
"124 686 LINE SMOOTH",
"193 678 OFFCURVE",
"210 676 OFFCURVE",
"210 577 CURVE",
"210 123 LINE SMOOTH",
"210 99 OFFCURVE",
"210 13 OFFCURVE",
"136 13 CURVE",
"109 13 OFFCURVE",
"101 28 OFFCURVE",
"101 41 CURVE",
"101 48 OFFCURVE",
"103 54 OFFCURVE",
"106 62 CURVE",
"109 69 OFFCURVE",
"112 77 OFFCURVE",
"112 89 CURVE",
"112 113 OFFCURVE",
"92 130 OFFCURVE",
"67 130 CURVE",
"32 130 OFFCURVE",
"15 104 OFFCURVE",
"15 77 CURVE",
"15 24 OFFCURVE",
"71 -11 OFFCURVE",
"130 -11 CURVE"
);
}
);
width = 431;
}
);
leftKerningGroup = J;
note = "\012		J\012  ";
rightKerningGroup = J;
unicode = 004A;
},
{
glyphname = K;
layers = (
{
layerId = "72C12618-BAE4-4A2B-8370-CBFBBD108EB7";
paths = (
{
closed = 1;
nodes = (
"609 0 LINE",
"761 -3 LINE",
"761 22 LINE",
"740 24 LINE SMOOTH",
"668 31 OFFCURVE",
"626 82 OFFCURVE",
"558 171 CURVE",
"366 422 LINE",
"522 606 LINE SMOOTH",
"560 651 OFFCURVE",
"594 679 OFFCURVE",
"634 684 CURVE",
"668 688 LINE",
"668 713 LINE",
"547 710 LINE",
"419 713 LINE",
"419 687 LINE",
"451 684 LINE SMOOTH",
"480 681 OFFCURVE",
"497 671 OFFCURVE",
"497 652 CURVE",
"497 635 OFFCURVE",
"485 611 OFFCURVE",
"457 578 CURVE",
"227 309 LINE",
"227 577 LINE SMOOTH",
"227 667 OFFCURVE",
"240 678 OFFCURVE",
"301 685 CURVE",
"321 687 LINE",
"321 713 LINE",
"188 710 LINE",
"40 713 LINE",
"40 688 LINE",
"60 686 LINE SMOOTH",
"129 678 OFFCURVE",
"146 676 OFFCURVE",
"146 577 CURVE",
"146 133 LINE SMOOTH",
"146 34 OFFCURVE",
"129 32 OFFCURVE",
"60 24 CURVE",
"40 22 LINE",
"40 -3 LINE",
"188 0 LINE",
"189 0 LINE",
"324 -3 LINE",
"324 22 LINE",
"306 24 LINE SMOOTH",
"242 32 OFFCURVE",
"227 34 OFFCURVE",
"227 133 CURVE",
"227 258 LINE",
"307 352 LINE",
"497 107 LINE SMOOTH",
"514 85 OFFCURVE",
"524 66 OFFCURVE",
"524 52 CURVE",
"524 36 OFFCURVE",
"510 25 OFFCURVE",
"476 23 CURVE",
"461 22 LINE",
"461 -3 LINE"
);
}
);
width = 741;
}
);
leftKerningGroup = B;
note = "\012		K\012  ";
rightKerningGroup = K;
unicode = 004B;
},
{
glyphname = L;
layers = (
{
layerId = "72C12618-BAE4-4A2B-8370-CBFBBD108EB7";
paths = (
{
closed = 1;
nodes = (
"60 24 LINE",
"40 22 LINE",
"40 -3 LINE",
"188 0 LINE",
"606 -3 LINE",
"616 210 LINE",
"594 210 LINE",
"584 92 OFFCURVE",
"539 29 OFFCURVE",
"423 29 CURVE",
"348 29 LINE SMOOTH",
"235 29 OFFCURVE",
"231 73 OFFCURVE",
"231 172 CURVE",
"231 589 LINE SMOOTH",
"231 679 OFFCURVE",
"245 681 OFFCURVE",
"303 688 CURVE",
"319 690 LINE",
"319 713 LINE",
"190 710 LINE",
"40 713 LINE",
"40 688 LINE",
"60 686 LINE SMOOTH",
"129 678 OFFCURVE",
"146 676 OFFCURVE",
"146 577 CURVE",
"146 133 LINE SMOOTH",
"146 34 OFFCURVE",
"129 32 OFFCURVE",
"60 24 CURVE"
);
}
);
width = 651;
}
);
leftKerningGroup = B;
note = "\012		L\012  ";
rightKerningGroup = L;
unicode = 004C;
},
{
glyphname = Lacute;
layers = (
{
layerId = "72C12618-BAE4-4A2B-8370-CBFBBD108EB7";
paths = (
{
closed = 1;
nodes = (
"195 760 LINE",
"290 940 LINE",
"209 940 LINE",
"183 760 LINE"
);
},
{
closed = 1;
nodes = (
"60 24 LINE",
"40 22 LINE",
"40 -3 LINE",
"188 0 LINE",
"606 -3 LINE",
"616 210 LINE",
"594 210 LINE",
"584 92 OFFCURVE",
"539 29 OFFCURVE",
"423 29 CURVE",
"348 29 LINE SMOOTH",
"235 29 OFFCURVE",
"231 73 OFFCURVE",
"231 172 CURVE",
"231 589 LINE SMOOTH",
"231 679 OFFCURVE",
"245 681 OFFCURVE",
"303 688 CURVE",
"319 690 LINE",
"319 713 LINE",
"190 710 LINE",
"40 713 LINE",
"40 688 LINE",
"60 686 LINE SMOOTH",
"129 678 OFFCURVE",
"146 676 OFFCURVE",
"146 577 CURVE",
"146 133 LINE SMOOTH",
"146 34 OFFCURVE",
"129 32 OFFCURVE",
"60 24 CURVE"
);
}
);
width = 651;
}
);
leftKerningGroup = B;
note = "\012		Lacute\012  ";
rightKerningGroup = L;
unicode = 0139;
},
{
glyphname = Lcaron;
layers = (
{
layerId = "72C12618-BAE4-4A2B-8370-CBFBBD108EB7";
paths = (
{
closed = 1;
nodes = (
"458 661 LINE",
"438 488 LINE",
"463 488 LINE",
"517 649 LINE SMOOTH",
"529 684 OFFCURVE",
"530 724 OFFCURVE",
"495 724 CURVE",
"478 724 OFFCURVE",
"463 711 OFFCURVE",
"458 661 CURVE"
);
},
{
closed = 1;
nodes = (
"60 24 LINE",
"40 22 LINE",
"40 -3 LINE",
"188 0 LINE",
"606 -3 LINE",
"616 210 LINE",
"594 210 LINE",
"584 92 OFFCURVE",
"539 29 OFFCURVE",
"423 29 CURVE",
"348 29 LINE SMOOTH",
"235 29 OFFCURVE",
"231 73 OFFCURVE",
"231 172 CURVE",
"231 589 LINE SMOOTH",
"231 679 OFFCURVE",
"245 681 OFFCURVE",
"303 688 CURVE",
"319 690 LINE",
"319 713 LINE",
"190 710 LINE",
"40 713 LINE",
"40 688 LINE",
"60 686 LINE SMOOTH",
"129 678 OFFCURVE",
"146 676 OFFCURVE",
"146 577 CURVE",
"146 133 LINE SMOOTH",
"146 34 OFFCURVE",
"129 32 OFFCURVE",
"60 24 CURVE"
);
}
);
width = 651;
}
);
note = "\012		Lcaron\012  ";
unicode = 013D;
},
{
glyphname = Ldot;
layers = (
{
layerId = "72C12618-BAE4-4A2B-8370-CBFBBD108EB7";
paths = (
{
closed = 1;
nodes = (
"60 24 LINE",
"40 22 LINE",
"40 -3 LINE",
"188 0 LINE",
"606 -3 LINE",
"616 210 LINE",
"594 210 LINE",
"584 92 OFFCURVE",
"539 29 OFFCURVE",
"423 29 CURVE",
"348 29 LINE SMOOTH",
"235 29 OFFCURVE",
"231 73 OFFCURVE",
"231 172 CURVE",
"231 589 LINE SMOOTH",
"231 679 OFFCURVE",
"245 681 OFFCURVE",
"303 688 CURVE",
"319 690 LINE",
"319 713 LINE",
"190 710 LINE",
"40 713 LINE",
"40 688 LINE",
"60 686 LINE SMOOTH",
"129 678 OFFCURVE",
"146 676 OFFCURVE",
"146 577 CURVE",
"146 133 LINE SMOOTH",
"146 34 OFFCURVE",
"129 32 OFFCURVE",
"60 24 CURVE"
);
},
{
closed = 1;
nodes = (
"492 310 LINE",
"527 310 OFFCURVE",
"554 339 OFFCURVE",
"554 374 CURVE",
"554 407 OFFCURVE",
"527 436 OFFCURVE",
"492 436 CURVE",
"455 436 OFFCURVE",
"428 407 OFFCURVE",
"428 374 CURVE",
"428 339 OFFCURVE",
"455 310 OFFCURVE",
"492 310 CURVE"
);
}
);
width = 600;
}
);
note = "\012		Ldot\012  ";
unicode = 013F;
},
{
glyphname = Lslash;
layers = (
{
layerId = "72C12618-BAE4-4A2B-8370-CBFBBD108EB7";
paths = (
{
closed = 1;
nodes = (
"188 0 LINE",
"606 -3 LINE",
"616 210 LINE",
"594 210 LINE",
"584 92 OFFCURVE",
"539 29 OFFCURVE",
"423 29 CURVE",
"348 29 LINE SMOOTH",
"235 29 OFFCURVE",
"231 73 OFFCURVE",
"231 172 CURVE",
"231 364 LINE",
"382 432 LINE",
"382 487 LINE",
"231 410 LINE",
"231 589 LINE SMOOTH",
"231 679 OFFCURVE",
"245 681 OFFCURVE",
"303 688 CURVE",
"319 690 LINE",
"319 713 LINE",
"190 710 LINE",
"40 713 LINE",
"40 688 LINE",
"60 686 LINE SMOOTH",
"129 678 OFFCURVE",
"146 676 OFFCURVE",
"146 577 CURVE",
"146 366 LINE",
"41 312 LINE",
"41 279 LINE",
"146 326 LINE",
"146 133 LINE SMOOTH",
"146 34 OFFCURVE",
"129 32 OFFCURVE",
"60 24 CURVE",
"40 22 LINE",
"40 -3 LINE"
);
}
);
width = 651;
}
);
leftKerningGroup = B;
note = "\012		Lslash\012  ";
rightKerningGroup = L;
unicode = 0141;
},
{
glyphname = M;
layers = (
{
layerId = "72C12618-BAE4-4A2B-8370-CBFBBD108EB7";
paths = (
{
closed = 1;
nodes = (
"920 686 LINE",
"940 688 LINE",
"940 713 LINE",
"800 710 LINE",
"740 710 LINE",
"477 133 LINE",
"239 710 LINE",
"183 710 LINE",
"35 713 LINE",
"35 688 LINE",
"55 686 LINE SMOOTH",
"124 678 OFFCURVE",
"141 676 OFFCURVE",
"141 577 CURVE",
"141 133 LINE SMOOTH",
"141 34 OFFCURVE",
"124 32 OFFCURVE",
"55 24 CURVE",
"35 22 LINE",
"35 -3 LINE",
"155 0 LINE",
"282 -3 LINE",
"282 22 LINE",
"262 24 LINE SMOOTH",
"196 31 OFFCURVE",
"176 41 OFFCURVE",
"176 105 CURVE",
"176 637 LINE",
"434 0 LINE",
"453 0 LINE",
"749 647 LINE",
"749 133 LINE SMOOTH",
"749 34 OFFCURVE",
"732 31 OFFCURVE",
"663 24 CURVE",
"643 22 LINE",
"643 -3 LINE",
"792 0 LINE",
"940 -3 LINE",
"940 22 LINE",
"920 24 LINE SMOOTH",
"851 31 OFFCURVE",
"834 34 OFFCURVE",
"834 133 CURVE",
"834 577 LINE SMOOTH",
"834 676 OFFCURVE",
"851 678 OFFCURVE",
"920 686 CURVE"
);
}
);
width = 980;
}
);
leftKerningGroup = M;
note = "\012		M\012  ";
rightKerningGroup = E;
unicode = 004D;
},
{
glyphname = N;
layers = (
{
layerId = "72C12618-BAE4-4A2B-8370-CBFBBD108EB7";
paths = (
{
closed = 1;
nodes = (
"741 686 LINE",
"761 688 LINE",
"761 713 LINE",
"639 710 LINE",
"509 713 LINE",
"509 688 LINE",
"529 686 LINE SMOOTH",
"598 679 OFFCURVE",
"615 676 OFFCURVE",
"615 577 CURVE",
"615 199 LINE",
"545 289 OFFCURVE",
"302 610 OFFCURVE",
"229 710 CURVE",
"35 713 LINE",
"35 687 LINE",
"65 687 LINE SMOOTH",
"111 687 OFFCURVE",
"133 664 OFFCURVE",
"145 649 CURVE",
"145 133 LINE SMOOTH",
"145 33 OFFCURVE",
"128 30 OFFCURVE",
"59 23 CURVE",
"39 21 LINE",
"39 -4 LINE",
"163 0 LINE",
"291 -4 LINE",
"291 21 LINE",
"271 23 LINE SMOOTH",
"202 30 OFFCURVE",
"185 33 OFFCURVE",
"185 133 CURVE",
"185 606 LINE",
"289 483 OFFCURVE",
"560 131 OFFCURVE",
"625 0 CURVE",
"655 0 LINE",
"655 577 LINE SMOOTH",
"655 676 OFFCURVE",
"672 678 OFFCURVE",
"741 686 CURVE"
);
}
);
width = 781;
}
);
leftKerningGroup = M;
note = "\012		N\012  ";
rightKerningGroup = N;
unicode = 004E;
},
{
glyphname = Nacute;
layers = (
{
layerId = "72C12618-BAE4-4A2B-8370-CBFBBD108EB7";
paths = (
{
closed = 1;
nodes = (
"406 942 LINE",
"367 794 LINE",
"389 794 LINE",
"463 913 LINE SMOOTH",
"473 929 OFFCURVE",
"480 946 OFFCURVE",
"480 962 CURVE",
"480 986 OFFCURVE",
"465 998 OFFCURVE",
"449 998 CURVE",
"433 998 OFFCURVE",
"417 984 OFFCURVE",
"406 942 CURVE"
);
},
{
closed = 1;
nodes = (
"741 686 LINE",
"761 688 LINE",
"761 713 LINE",
"639 710 LINE",
"509 713 LINE",
"509 688 LINE",
"529 686 LINE SMOOTH",
"598 679 OFFCURVE",
"615 676 OFFCURVE",
"615 577 CURVE",
"615 199 LINE",
"545 289 OFFCURVE",
"302 610 OFFCURVE",
"229 710 CURVE",
"35 713 LINE",
"35 687 LINE",
"65 687 LINE SMOOTH",
"111 687 OFFCURVE",
"133 664 OFFCURVE",
"145 649 CURVE",
"145 133 LINE SMOOTH",
"145 33 OFFCURVE",
"128 30 OFFCURVE",
"59 23 CURVE",
"39 21 LINE",
"39 -4 LINE",
"163 0 LINE",
"291 -4 LINE",
"291 21 LINE",
"271 23 LINE SMOOTH",
"202 30 OFFCURVE",
"185 33 OFFCURVE",
"185 133 CURVE",
"185 606 LINE",
"289 483 OFFCURVE",
"560 131 OFFCURVE",
"625 0 CURVE",
"655 0 LINE",
"655 577 LINE SMOOTH",
"655 676 OFFCURVE",
"672 678 OFFCURVE",
"741 686 CURVE"
);
}
);
width = 781;
}
);
leftKerningGroup = B;
note = "\012		Nacute\012  ";
rightKerningGroup = N;
unicode = 0143;
},
{
glyphname = Ncaron;
layers = (
{
layerId = "72C12618-BAE4-4A2B-8370-CBFBBD108EB7";
paths = (
{
closed = 1;
nodes = (
"322 940 LINE",
"298 940 LINE",
"392 760 LINE",
"414 760 LINE",
"508 940 LINE",
"484 940 LINE",
"406 847 LINE",
"400 847 LINE"
);
},
{
closed = 1;
nodes = (
"741 686 LINE",
"761 688 LINE",
"761 713 LINE",
"639 710 LINE",
"509 713 LINE",
"509 688 LINE",
"529 686 LINE SMOOTH",
"598 679 OFFCURVE",
"615 676 OFFCURVE",
"615 577 CURVE",
"615 199 LINE",
"545 289 OFFCURVE",
"302 610 OFFCURVE",
"229 710 CURVE",
"35 713 LINE",
"35 687 LINE",
"65 687 LINE SMOOTH",
"111 687 OFFCURVE",
"133 664 OFFCURVE",
"145 649 CURVE",
"145 133 LINE SMOOTH",
"145 33 OFFCURVE",
"128 30 OFFCURVE",
"59 23 CURVE",
"39 21 LINE",
"39 -4 LINE",
"163 0 LINE",
"291 -4 LINE",
"291 21 LINE",
"271 23 LINE SMOOTH",
"202 30 OFFCURVE",
"185 33 OFFCURVE",
"185 133 CURVE",
"185 606 LINE",
"289 483 OFFCURVE",
"560 131 OFFCURVE",
"625 0 CURVE",
"655 0 LINE",
"655 577 LINE SMOOTH",
"655 676 OFFCURVE",
"672 678 OFFCURVE",
"741 686 CURVE"
);
}
);
width = 781;
}
);
leftKerningGroup = B;
note = "\012		Ncaron\012  ";
rightKerningGroup = N;
unicode = 0147;
},
{
glyphname = Ntilde;
layers = (
{
layerId = "72C12618-BAE4-4A2B-8370-CBFBBD108EB7";
paths = (
{
closed = 1;
nodes = (
"322 868 LINE",
"340 868 OFFCURVE",
"359 857 OFFCURVE",
"383 842 CURVE",
"409 826 LINE SMOOTH",
"426 816 OFFCURVE",
"452 801 OFFCURVE",
"477 801 CURVE",
"517 801 OFFCURVE",
"551 840 OFFCURVE",
"558 900 CURVE",
"539 900 LINE",
"530 872 OFFCURVE",
"512 849 OFFCURVE",
"485 849 CURVE",
"467 849 OFFCURVE",
"444 862 OFFCURVE",
"434 868 CURVE",
"397 890 LINE SMOOTH",
"384 898 OFFCURVE",
"355 916 OFFCURVE",
"330 916 CURVE",
"269 916 OFFCURVE",
"244 841 OFFCURVE",
"244 812 CURVE",
"263 812 LINE",
"269 836 OFFCURVE",
"293 868 OFFCURVE",
"322 868 CURVE"
);
},
{
closed = 1;
nodes = (
"741 686 LINE",
"761 688 LINE",
"761 713 LINE",
"639 710 LINE",
"509 713 LINE",
"509 688 LINE",
"529 686 LINE SMOOTH",
"598 679 OFFCURVE",
"615 676 OFFCURVE",
"615 577 CURVE",
"615 199 LINE",
"545 289 OFFCURVE",
"302 610 OFFCURVE",
"229 710 CURVE",
"35 713 LINE",
"35 687 LINE",
"65 687 LINE SMOOTH",
"111 687 OFFCURVE",
"133 664 OFFCURVE",
"145 649 CURVE",
"145 133 LINE SMOOTH",
"145 33 OFFCURVE",
"128 30 OFFCURVE",
"59 23 CURVE",
"39 21 LINE",
"39 -4 LINE",
"163 0 LINE",
"291 -4 LINE",
"291 21 LINE",
"271 23 LINE SMOOTH",
"202 30 OFFCURVE",
"185 33 OFFCURVE",
"185 133 CURVE",
"185 606 LINE",
"289 483 OFFCURVE",
"560 131 OFFCURVE",
"625 0 CURVE",
"655 0 LINE",
"655 577 LINE SMOOTH",
"655 676 OFFCURVE",
"672 678 OFFCURVE",
"741 686 CURVE"
);
}
);
width = 781;
}
);
leftKerningGroup = B;
note = "\012		Ntilde\012  ";
rightKerningGroup = N;
unicode = 00D1;
},
{
glyphname = Eng;
layers = (
{
layerId = "72C12618-BAE4-4A2B-8370-CBFBBD108EB7";
paths = (
{
closed = 1;
nodes = (
"524 -264 LINE",
"588 -264 OFFCURVE",
"656 -229 OFFCURVE",
"656 -60 CURVE",
"656 577 LINE SMOOTH",
"656 676 OFFCURVE",
"673 678 OFFCURVE",
"742 686 CURVE",
"762 688 LINE",
"762 713 LINE",
"641 711 LINE",
"520 713 LINE",
"520 688 LINE",
"540 686 LINE SMOOTH",
"609 678 OFFCURVE",
"626 676 OFFCURVE",
"626 577 CURVE",
"626 187 LINE",
"573 255 OFFCURVE",
"307 604 OFFCURVE",
"230 710 CURVE",
"35 713 LINE",
"36 684 LINE",
"58 684 LINE SMOOTH",
"110 684 OFFCURVE",
"131 664 OFFCURVE",
"146 649 CURVE",
"146 133 LINE SMOOTH",
"146 34 OFFCURVE",
"129 32 OFFCURVE",
"60 24 CURVE",
"40 22 LINE",
"40 -3 LINE",
"161 -1 LINE",
"282 -3 LINE",
"282 22 LINE",
"262 24 LINE SMOOTH",
"193 32 OFFCURVE",
"176 34 OFFCURVE",
"176 133 CURVE",
"176 617 LINE",
"272 506 OFFCURVE",
"559 135 OFFCURVE",
"626 0 CURVE",
"626 -58 LINE SMOOTH",
"626 -150 OFFCURVE",
"605 -223 OFFCURVE",
"554 -223 CURVE",
"534 -223 OFFCURVE",
"534 -210 OFFCURVE",
"534 -187 CURVE",
"534 -160 OFFCURVE",
"516 -137 OFFCURVE",
"486 -137 CURVE",
"456 -137 OFFCURVE",
"438 -161 OFFCURVE",
"438 -187 CURVE",
"438 -237 OFFCURVE",
"474 -264 OFFCURVE",
"524 -264 CURVE"
);
}
);
width = 782;
}
);
leftKerningGroup = B;
note = "\012		Eng\012  ";
rightKerningGroup = N;
unicode = 014A;
},
{
glyphname = O;
layers = (
{
layerId = "72C12618-BAE4-4A2B-8370-CBFBBD108EB7";
paths = (
{
closed = 1;
nodes = (
"409 -11 LINE",
"609 -11 OFFCURVE",
"756 141 OFFCURVE",
"756 357 CURVE",
"756 572 OFFCURVE",
"609 724 OFFCURVE",
"409 724 CURVE",
"209 724 OFFCURVE",
"62 572 OFFCURVE",
"62 357 CURVE",
"62 141 OFFCURVE",
"209 -11 OFFCURVE",
"409 -11 CURVE"
);
},
{
closed = 1;
nodes = (
"409 19 LINE",
"236 19 OFFCURVE",
"164 147 OFFCURVE",
"164 357 CURVE",
"164 566 OFFCURVE",
"236 694 OFFCURVE",
"409 694 CURVE",
"582 694 OFFCURVE",
"654 566 OFFCURVE",
"654 357 CURVE",
"654 147 OFFCURVE",
"582 19 OFFCURVE",
"409 19 CURVE"
);
}
);
width = 818;
}
);
leftKerningGroup = C;
note = "\012		O\012  ";
rightKerningGroup = D;
unicode = 004F;
},
{
glyphname = Oacute;
layers = (
{
layerId = "72C12618-BAE4-4A2B-8370-CBFBBD108EB7";
paths = (
{
closed = 1;
nodes = (
"416 760 LINE",
"511 940 LINE",
"430 940 LINE",
"404 760 LINE"
);
},
{
closed = 1;
nodes = (
"409 -11 LINE",
"609 -11 OFFCURVE",
"756 141 OFFCURVE",
"756 357 CURVE",
"756 572 OFFCURVE",
"609 724 OFFCURVE",
"409 724 CURVE",
"209 724 OFFCURVE",
"62 572 OFFCURVE",
"62 357 CURVE",
"62 141 OFFCURVE",
"209 -11 OFFCURVE",
"409 -11 CURVE"
);
},
{
closed = 1;
nodes = (
"409 19 LINE",
"236 19 OFFCURVE",
"164 147 OFFCURVE",
"164 357 CURVE",
"164 566 OFFCURVE",
"236 694 OFFCURVE",
"409 694 CURVE",
"582 694 OFFCURVE",
"654 566 OFFCURVE",
"654 357 CURVE",
"654 147 OFFCURVE",
"582 19 OFFCURVE",
"409 19 CURVE"
);
}
);
width = 818;
}
);
leftKerningGroup = C;
note = "\012		Oacute\012  ";
rightKerningGroup = D;
unicode = 00D3;
},
{
glyphname = Ocircumflex;
layers = (
{
layerId = "72C12618-BAE4-4A2B-8370-CBFBBD108EB7";
paths = (
{
closed = 1;
nodes = (
"513 761 LINE",
"419 940 LINE",
"397 940 LINE",
"303 761 LINE",
"327 761 LINE",
"405 853 LINE",
"411 853 LINE",
"489 761 LINE"
);
},
{
closed = 1;
nodes = (
"409 -11 LINE",
"609 -11 OFFCURVE",
"756 141 OFFCURVE",
"756 357 CURVE",
"756 572 OFFCURVE",
"609 724 OFFCURVE",
"409 724 CURVE",
"209 724 OFFCURVE",
"62 572 OFFCURVE",
"62 357 CURVE",
"62 141 OFFCURVE",
"209 -11 OFFCURVE",
"409 -11 CURVE"
);
},
{
closed = 1;
nodes = (
"409 19 LINE",
"236 19 OFFCURVE",
"164 147 OFFCURVE",
"164 357 CURVE",
"164 566 OFFCURVE",
"236 694 OFFCURVE",
"409 694 CURVE",
"582 694 OFFCURVE",
"654 566 OFFCURVE",
"654 357 CURVE",
"654 147 OFFCURVE",
"582 19 OFFCURVE",
"409 19 CURVE"
);
}
);
width = 818;
}
);
leftKerningGroup = C;
note = "\012		Ocircumflex\012  ";
rightKerningGroup = D;
unicode = 00D4;
},
{
glyphname = Odieresis;
layers = (
{
layerId = "72C12618-BAE4-4A2B-8370-CBFBBD108EB7";
paths = (
{
closed = 1;
nodes = (
"318 822 LINE",
"352 822 OFFCURVE",
"368 847 OFFCURVE",
"368 879 CURVE",
"368 910 OFFCURVE",
"352 935 OFFCURVE",
"318 935 CURVE",
"286 935 OFFCURVE",
"267 910 OFFCURVE",
"267 879 CURVE",
"267 847 OFFCURVE",
"286 822 OFFCURVE",
"318 822 CURVE"
);
},
{
closed = 1;
nodes = (
"508 822 LINE",
"542 822 OFFCURVE",
"558 847 OFFCURVE",
"558 879 CURVE",
"558 910 OFFCURVE",
"542 935 OFFCURVE",
"508 935 CURVE",
"476 935 OFFCURVE",
"457 910 OFFCURVE",
"457 879 CURVE",
"457 847 OFFCURVE",
"476 822 OFFCURVE",
"508 822 CURVE"
);
},
{
closed = 1;
nodes = (
"409 -11 LINE",
"609 -11 OFFCURVE",
"756 141 OFFCURVE",
"756 357 CURVE",
"756 572 OFFCURVE",
"609 724 OFFCURVE",
"409 724 CURVE",
"209 724 OFFCURVE",
"62 572 OFFCURVE",
"62 357 CURVE",
"62 141 OFFCURVE",
"209 -11 OFFCURVE",
"409 -11 CURVE"
);
},
{
closed = 1;
nodes = (
"409 19 LINE",
"236 19 OFFCURVE",
"164 147 OFFCURVE",
"164 357 CURVE",
"164 566 OFFCURVE",
"236 694 OFFCURVE",
"409 694 CURVE",
"582 694 OFFCURVE",
"654 566 OFFCURVE",
"654 357 CURVE",
"654 147 OFFCURVE",
"582 19 OFFCURVE",
"409 19 CURVE"
);
}
);
width = 818;
}
);
leftKerningGroup = C;
note = "\012		Odieresis\012  ";
rightKerningGroup = D;
unicode = 00D6;
},
{
glyphname = Ograve;
layers = (
{
layerId = "72C12618-BAE4-4A2B-8370-CBFBBD108EB7";
paths = (
{
closed = 1;
nodes = (
"389 940 LINE",
"308 940 LINE",
"403 760 LINE",
"415 760 LINE"
);
},
{
closed = 1;
nodes = (
"409 -11 LINE",
"609 -11 OFFCURVE",
"756 141 OFFCURVE",
"756 357 CURVE",
"756 572 OFFCURVE",
"609 724 OFFCURVE",
"409 724 CURVE",
"209 724 OFFCURVE",
"62 572 OFFCURVE",
"62 357 CURVE",
"62 141 OFFCURVE",
"209 -11 OFFCURVE",
"409 -11 CURVE"
);
},
{
closed = 1;
nodes = (
"409 19 LINE",
"236 19 OFFCURVE",
"164 147 OFFCURVE",
"164 357 CURVE",
"164 566 OFFCURVE",
"236 694 OFFCURVE",
"409 694 CURVE",
"582 694 OFFCURVE",
"654 566 OFFCURVE",
"654 357 CURVE",
"654 147 OFFCURVE",
"582 19 OFFCURVE",
"409 19 CURVE"
);
}
);
width = 818;
}
);
leftKerningGroup = C;
note = "\012		Ograve\012  ";
rightKerningGroup = D;
unicode = 00D2;
},
{
glyphname = Ohungarumlaut;
layers = (
{
layerId = "72C12618-BAE4-4A2B-8370-CBFBBD108EB7";
paths = (
{
closed = 1;
nodes = (
"471 761 LINE",
"566 941 LINE",
"485 941 LINE",
"459 761 LINE"
);
},
{
closed = 1;
nodes = (
"338 760 LINE",
"433 940 LINE",
"352 940 LINE",
"326 760 LINE"
);
},
{
closed = 1;
nodes = (
"409 -11 LINE",
"609 -11 OFFCURVE",
"756 141 OFFCURVE",
"756 357 CURVE",
"756 572 OFFCURVE",
"609 724 OFFCURVE",
"409 724 CURVE",
"209 724 OFFCURVE",
"62 572 OFFCURVE",
"62 357 CURVE",
"62 141 OFFCURVE",
"209 -11 OFFCURVE",
"409 -11 CURVE"
);
},
{
closed = 1;
nodes = (
"409 19 LINE",
"236 19 OFFCURVE",
"164 147 OFFCURVE",
"164 357 CURVE",
"164 566 OFFCURVE",
"236 694 OFFCURVE",
"409 694 CURVE",
"582 694 OFFCURVE",
"654 566 OFFCURVE",
"654 357 CURVE",
"654 147 OFFCURVE",
"582 19 OFFCURVE",
"409 19 CURVE"
);
}
);
width = 818;
}
);
leftKerningGroup = C;
note = "\012		Ohungarumlaut\012  ";
rightKerningGroup = D;
unicode = 0150;
},
{
glyphname = Omacron;
layers = (
{
layerId = "72C12618-BAE4-4A2B-8370-CBFBBD108EB7";
paths = (
{
closed = 1;
nodes = (
"519 834 LINE",
"519 874 LINE",
"292 874 LINE",
"292 834 LINE"
);
},
{
closed = 1;
nodes = (
"409 -11 LINE",
"609 -11 OFFCURVE",
"756 141 OFFCURVE",
"756 357 CURVE",
"756 572 OFFCURVE",
"609 724 OFFCURVE",
"409 724 CURVE",
"209 724 OFFCURVE",
"62 572 OFFCURVE",
"62 357 CURVE",
"62 141 OFFCURVE",
"209 -11 OFFCURVE",
"409 -11 CURVE"
);
},
{
closed = 1;
nodes = (
"409 19 LINE",
"236 19 OFFCURVE",
"164 147 OFFCURVE",
"164 357 CURVE",
"164 566 OFFCURVE",
"236 694 OFFCURVE",
"409 694 CURVE",
"582 694 OFFCURVE",
"654 566 OFFCURVE",
"654 357 CURVE",
"654 147 OFFCURVE",
"582 19 OFFCURVE",
"409 19 CURVE"
);
}
);
width = 818;
}
);
leftKerningGroup = C;
note = "\012		Omacron\012  ";
rightKerningGroup = D;
unicode = 014C;
},
{
glyphname = Oslash;
layers = (
{
layerId = "72C12618-BAE4-4A2B-8370-CBFBBD108EB7";
paths = (
{
closed = 1;
nodes = (
"665 613 LINE",
"763 725 LINE",
"707 725 LINE",
"635 642 LINE",
"576 694 OFFCURVE",
"497 724 OFFCURVE",
"409 724 CURVE",
"209 724 OFFCURVE",
"62 572 OFFCURVE",
"62 357 CURVE",
"62 250 OFFCURVE",
"98 159 OFFCURVE",
"158 94 CURVE",
"63 -15 LINE",
"119 -15 LINE",
"189 65 LINE",
"248 17 OFFCURVE",
"324 -11 OFFCURVE",
"409 -11 CURVE",
"609 -11 OFFCURVE",
"756 141 OFFCURVE",
"756 357 CURVE",
"756 460 OFFCURVE",
"722 548 OFFCURVE",
"665 613 CURVE"
);
},
{
closed = 1;
nodes = (
"164 357 LINE",
"164 566 OFFCURVE",
"236 694 OFFCURVE",
"409 694 CURVE",
"497 694 OFFCURVE",
"559 661 OFFCURVE",
"599 600 CURVE",
"202 144 LINE",
"176 200 OFFCURVE",
"164 272 OFFCURVE",
"164 357 CURVE"
);
},
{
closed = 1;
nodes = (
"654 357 LINE",
"654 147 OFFCURVE",
"582 19 OFFCURVE",
"409 19 CURVE",
"324 19 OFFCURVE",
"264 50 OFFCURVE",
"224 106 CURVE",
"620 561 LINE",
"643 507 OFFCURVE",
"654 438 OFFCURVE",
"654 357 CURVE"
);
}
);
width = 818;
}
);
leftKerningGroup = C;
note = "\012		Oslash\012  ";
rightKerningGroup = D;
unicode = 00D8;
},
{
glyphname = Otilde;
layers = (
{
layerId = "72C12618-BAE4-4A2B-8370-CBFBBD108EB7";
paths = (
{
closed = 1;
nodes = (
"484 801 LINE",
"524 801 OFFCURVE",
"558 840 OFFCURVE",
"565 900 CURVE",
"546 900 LINE",
"537 872 OFFCURVE",
"519 849 OFFCURVE",
"492 849 CURVE",
"474 849 OFFCURVE",
"451 862 OFFCURVE",
"441 868 CURVE",
"404 890 LINE SMOOTH",
"391 898 OFFCURVE",
"362 916 OFFCURVE",
"337 916 CURVE",
"276 916 OFFCURVE",
"251 841 OFFCURVE",
"251 812 CURVE",
"270 812 LINE",
"276 836 OFFCURVE",
"300 868 OFFCURVE",
"329 868 CURVE",
"347 868 OFFCURVE",
"366 857 OFFCURVE",
"390 842 CURVE",
"416 826 LINE SMOOTH",
"433 816 OFFCURVE",
"459 801 OFFCURVE",
"484 801 CURVE"
);
},
{
closed = 1;
nodes = (
"409 -11 LINE",
"609 -11 OFFCURVE",
"756 141 OFFCURVE",
"756 357 CURVE",
"756 572 OFFCURVE",
"609 724 OFFCURVE",
"409 724 CURVE",
"209 724 OFFCURVE",
"62 572 OFFCURVE",
"62 357 CURVE",
"62 141 OFFCURVE",
"209 -11 OFFCURVE",
"409 -11 CURVE"
);
},
{
closed = 1;
nodes = (
"409 19 LINE",
"236 19 OFFCURVE",
"164 147 OFFCURVE",
"164 357 CURVE",
"164 566 OFFCURVE",
"236 694 OFFCURVE",
"409 694 CURVE",
"582 694 OFFCURVE",
"654 566 OFFCURVE",
"654 357 CURVE",
"654 147 OFFCURVE",
"582 19 OFFCURVE",
"409 19 CURVE"
);
}
);
width = 818;
}
);
leftKerningGroup = C;
note = "\012		Otilde\012  ";
rightKerningGroup = D;
unicode = 00D5;
},
{
glyphname = OE;
layers = (
{
layerId = "72C12618-BAE4-4A2B-8370-CBFBBD108EB7";
paths = (
{
closed = 1;
nodes = (
"960 0 LINE",
"963 90 LINE",
"970 210 LINE",
"945 210 LINE",
"932 52 OFFCURVE",
"900 25 OFFCURVE",
"774 25 CURVE",
"682 25 LINE SMOOTH",
"629 25 OFFCURVE",
"614 54 OFFCURVE",
"614 107 CURVE",
"614 362 LINE",
"694 362 LINE SMOOTH",
"740 362 OFFCURVE",
"765 324 OFFCURVE",
"765 226 CURVE",
"790 226 LINE",
"787 374 LINE",
"790 508 LINE",
"765 508 LINE",
"760 408 OFFCURVE",
"733 387 OFFCURVE",
"694 387 CURVE",
"614 387 LINE",
"614 683 LINE",
"714 683 LINE SMOOTH",
"862 683 OFFCURVE",
"894 669 OFFCURVE",
"913 546 CURVE",
"937 546 LINE",
"929 638 LINE",
"927 710 LINE",
"511 710 LINE",
"480 719 OFFCURVE",
"447 725 OFFCURVE",
"414 725 CURVE",
"227 725 OFFCURVE",
"62 572 OFFCURVE",
"62 355 CURVE",
"62 141 OFFCURVE",
"209 -11 OFFCURVE",
"404 -11 CURVE",
"431 -11 OFFCURVE",
"458 -8 OFFCURVE",
"484 -2 CURVE",
"569 0 LINE"
);
},
{
closed = 1;
nodes = (
"528 577 LINE",
"528 133 LINE SMOOTH",
"528 37 OFFCURVE",
"497 19 OFFCURVE",
"404 19 CURVE",
"243 19 OFFCURVE",
"164 145 OFFCURVE",
"164 355 CURVE",
"164 558 OFFCURVE",
"242 695 OFFCURVE",
"414 695 CURVE",
"489 695 OFFCURVE",
"528 672 OFFCURVE",
"528 577 CURVE"
);
}
);
width = 1010;
}
);
note = "\012		OE\012  ";
unicode = 0152;
},
{
glyphname = P;
layers = (
{
layerId = "72C12618-BAE4-4A2B-8370-CBFBBD108EB7";
paths = (
{
closed = 1;
nodes = (
"231 133 LINE",
"231 315 LINE",
"348 315 LINE SMOOTH",
"519 315 OFFCURVE",
"610 395 OFFCURVE",
"610 514 CURVE",
"610 680 OFFCURVE",
"485 710 OFFCURVE",
"324 710 CURVE",
"188 710 LINE",
"40 713 LINE",
"40 688 LINE",
"60 686 LINE SMOOTH",
"129 678 OFFCURVE",
"146 676 OFFCURVE",
"146 577 CURVE",
"146 133 LINE SMOOTH",
"146 34 OFFCURVE",
"129 32 OFFCURVE",
"60 24 CURVE",
"40 22 LINE",
"40 -3 LINE",
"185 0 LINE",
"354 -3 LINE",
"354 22 LINE",
"332 24 LINE SMOOTH",
"251 32 OFFCURVE",
"231 34 OFFCURVE",
"231 133 CURVE"
);
},
{
closed = 1;
nodes = (
"348 345 LINE",
"231 345 LINE",
"231 682 LINE",
"363 682 LINE SMOOTH",
"425 682 OFFCURVE",
"515 666 OFFCURVE",
"515 514 CURVE",
"515 408 OFFCURVE",
"486 345 OFFCURVE",
"348 345 CURVE"
);
}
);
width = 635;
}
);
leftKerningGroup = B;
note = "\012		P\012  ";
rightKerningGroup = P;
unicode = 0050;
},
{
glyphname = Thorn;
layers = (
{
layerId = "72C12618-BAE4-4A2B-8370-CBFBBD108EB7";
paths = (
{
closed = 1;
nodes = (
"226 133 LINE",
"226 179 LINE",
"298 179 LINE SMOOTH",
"469 179 OFFCURVE",
"565 256 OFFCURVE",
"565 370 CURVE",
"565 539 OFFCURVE",
"420 556 OFFCURVE",
"313 556 CURVE",
"226 556 LINE",
"226 577 LINE SMOOTH",
"226 676 OFFCURVE",
"243 678 OFFCURVE",
"312 686 CURVE",
"332 688 LINE",
"332 713 LINE",
"187 710 LINE",
"40 713 LINE",
"40 688 LINE",
"60 686 LINE SMOOTH",
"129 678 OFFCURVE",
"146 676 OFFCURVE",
"146 577 CURVE",
"146 133 LINE SMOOTH",
"146 34 OFFCURVE",
"130 32 OFFCURVE",
"61 24 CURVE",
"41 22 LINE",
"41 -3 LINE",
"191 0 LINE",
"333 -3 LINE",
"333 22 LINE",
"313 24 LINE SMOOTH",
"244 32 OFFCURVE",
"226 34 OFFCURVE",
"226 133 CURVE"
);
},
{
closed = 1;
nodes = (
"298 205 LINE",
"226 205 LINE",
"226 531 LINE",
"313 531 LINE SMOOTH",
"426 531 OFFCURVE",
"465 490 OFFCURVE",
"465 370 CURVE",
"465 267 OFFCURVE",
"436 205 OFFCURVE",
"298 205 CURVE"
);
}
);
width = 555;
}
);
note = "\012		Thorn\012  ";
unicode = 00DE;
},
{
glyphname = Q;
layers = (
{
layerId = "72C12618-BAE4-4A2B-8370-CBFBBD108EB7";
paths = (
{
closed = 1;
nodes = (
"794 -124 LINE",
"774 -124 LINE",
"763 -200 OFFCURVE",
"719 -221 OFFCURVE",
"674 -221 CURVE",
"623 -221 OFFCURVE",
"573 -187 OFFCURVE",
"524 -147 CURVE",
"470 -103 OFFCURVE",
"416 -65 OFFCURVE",
"331 -65 CURVE",
"324 -65 LINE",
"444 -9 LINE",
"626 7 OFFCURVE",
"756 154 OFFCURVE",
"756 357 CURVE",
"756 572 OFFCURVE",
"609 724 OFFCURVE",
"409 724 CURVE",
"209 724 OFFCURVE",
"62 572 OFFCURVE",
"62 357 CURVE",
"62 149 OFFCURVE",
"198 0 OFFCURVE",
"387 -10 CURVE",
"242 -77 LINE",
"153 -77 OFFCURVE",
"89 -103 OFFCURVE",
"89 -152 CURVE",
"89 -174 OFFCURVE",
"101 -185 OFFCURVE",
"118 -185 CURVE",
"140 -185 OFFCURVE",
"161 -170 OFFCURVE",
"180 -151 CURVE",
"199 -132 OFFCURVE",
"221 -116 OFFCURVE",
"247 -100 CURVE",
"324 -104 OFFCURVE",
"382 -138 OFFCURVE",
"459 -202 CURVE",
"505 -240 OFFCURVE",
"558 -294 OFFCURVE",
"653 -294 CURVE",
"743 -294 OFFCURVE",
"784 -233 OFFCURVE",
"794 -124 CURVE"
);
},
{
closed = 1;
nodes = (
"164 357 LINE",
"164 566 OFFCURVE",
"236 694 OFFCURVE",
"409 694 CURVE",
"582 694 OFFCURVE",
"654 566 OFFCURVE",
"654 357 CURVE",
"654 147 OFFCURVE",
"582 19 OFFCURVE",
"409 19 CURVE",
"236 19 OFFCURVE",
"164 147 OFFCURVE",
"164 357 CURVE"
);
}
);
width = 804;
}
);
leftKerningGroup = C;
note = "\012		Q\012  ";
rightKerningGroup = D;
unicode = 0051;
},
{
glyphname = R;
layers = (
{
layerId = "72C12618-BAE4-4A2B-8370-CBFBBD108EB7";
paths = (
{
closed = 1;
nodes = (
"705 12 LINE",
"698 37 LINE",
"687 31 OFFCURVE",
"673 25 OFFCURVE",
"658 25 CURVE",
"624 25 OFFCURVE",
"589 56 OFFCURVE",
"572 169 CURVE",
"554 286 OFFCURVE",
"490 347 OFFCURVE",
"393 353 CURVE",
"494 368 OFFCURVE",
"583 416 OFFCURVE",
"583 535 CURVE",
"583 670 OFFCURVE",
"463 710 OFFCURVE",
"328 710 CURVE",
"188 710 LINE",
"40 713 LINE",
"40 688 LINE",
"60 686 LINE SMOOTH",
"129 678 OFFCURVE",
"146 676 OFFCURVE",
"146 577 CURVE",
"146 133 LINE SMOOTH",
"146 34 OFFCURVE",
"129 32 OFFCURVE",
"60 24 CURVE",
"40 22 LINE",
"40 -3 LINE",
"188 0 LINE",
"189 0 LINE",
"337 -3 LINE",
"337 22 LINE",
"317 24 LINE SMOOTH",
"248 32 OFFCURVE",
"231 34 OFFCURVE",
"231 133 CURVE",
"231 346 LINE",
"274 346 LINE SMOOTH",
"448 346 OFFCURVE",
"477 226 OFFCURVE",
"491 119 CURVE",
"501 45 OFFCURVE",
"533 -11 OFFCURVE",
"607 -11 CURVE",
"644 -11 OFFCURVE",
"684 1 OFFCURVE",
"705 12 CURVE"
);
},
{
closed = 1;
nodes = (
"315 373 LINE",
"231 373 LINE",
"231 684 LINE",
"330 684 LINE SMOOTH",
"447 684 OFFCURVE",
"488 627 OFFCURVE",
"488 529 CURVE",
"488 425 OFFCURVE",
"443 373 OFFCURVE",
"315 373 CURVE"
);
}
);
width = 695;
}
);
leftKerningGroup = B;
note = "\012		R\012  ";
rightKerningGroup = R;
unicode = 0052;
},
{
glyphname = Racute;
layers = (
{
layerId = "72C12618-BAE4-4A2B-8370-CBFBBD108EB7";
paths = (
{
closed = 1;
nodes = (
"334 940 LINE",
"308 760 LINE",
"320 760 LINE",
"415 940 LINE"
);
},
{
closed = 1;
nodes = (
"705 12 LINE",
"698 37 LINE",
"687 31 OFFCURVE",
"673 25 OFFCURVE",
"658 25 CURVE",
"624 25 OFFCURVE",
"589 56 OFFCURVE",
"572 169 CURVE",
"554 286 OFFCURVE",
"490 347 OFFCURVE",
"393 353 CURVE",
"494 368 OFFCURVE",
"583 416 OFFCURVE",
"583 535 CURVE",
"583 670 OFFCURVE",
"463 710 OFFCURVE",
"328 710 CURVE",
"188 710 LINE",
"40 713 LINE",
"40 688 LINE",
"60 686 LINE SMOOTH",
"129 678 OFFCURVE",
"146 676 OFFCURVE",
"146 577 CURVE",
"146 133 LINE SMOOTH",
"146 34 OFFCURVE",
"129 32 OFFCURVE",
"60 24 CURVE",
"40 22 LINE",
"40 -3 LINE",
"188 0 LINE",
"189 0 LINE",
"337 -3 LINE",
"337 22 LINE",
"317 24 LINE SMOOTH",
"248 32 OFFCURVE",
"231 34 OFFCURVE",
"231 133 CURVE",
"231 346 LINE",
"274 346 LINE SMOOTH",
"448 346 OFFCURVE",
"477 226 OFFCURVE",
"491 119 CURVE",
"501 45 OFFCURVE",
"533 -11 OFFCURVE",
"607 -11 CURVE",
"644 -11 OFFCURVE",
"684 1 OFFCURVE",
"705 12 CURVE"
);
},
{
closed = 1;
nodes = (
"315 373 LINE",
"231 373 LINE",
"231 684 LINE",
"330 684 LINE SMOOTH",
"447 684 OFFCURVE",
"488 627 OFFCURVE",
"488 529 CURVE",
"488 425 OFFCURVE",
"443 373 OFFCURVE",
"315 373 CURVE"
);
}
);
width = 695;
}
);
leftKerningGroup = B;
note = "\012		Racute\012  ";
rightKerningGroup = R;
unicode = 0154;
},
{
glyphname = Rcaron;
layers = (
{
layerId = "72C12618-BAE4-4A2B-8370-CBFBBD108EB7";
paths = (
{
closed = 1;
nodes = (
"233 940 LINE",
"209 940 LINE",
"303 760 LINE",
"325 760 LINE",
"419 940 LINE",
"395 940 LINE",
"317 847 LINE",
"311 847 LINE"
);
},
{
closed = 1;
nodes = (
"705 12 LINE",
"698 37 LINE",
"687 31 OFFCURVE",
"673 25 OFFCURVE",
"658 25 CURVE",
"624 25 OFFCURVE",
"589 56 OFFCURVE",
"572 169 CURVE",
"554 286 OFFCURVE",
"490 347 OFFCURVE",
"393 353 CURVE",
"494 368 OFFCURVE",
"583 416 OFFCURVE",
"583 535 CURVE",
"583 670 OFFCURVE",
"463 710 OFFCURVE",
"328 710 CURVE",
"188 710 LINE",
"40 713 LINE",
"40 688 LINE",
"60 686 LINE SMOOTH",
"129 678 OFFCURVE",
"146 676 OFFCURVE",
"146 577 CURVE",
"146 133 LINE SMOOTH",
"146 34 OFFCURVE",
"129 32 OFFCURVE",
"60 24 CURVE",
"40 22 LINE",
"40 -3 LINE",
"188 0 LINE",
"189 0 LINE",
"337 -3 LINE",
"337 22 LINE",
"317 24 LINE SMOOTH",
"248 32 OFFCURVE",
"231 34 OFFCURVE",
"231 133 CURVE",
"231 346 LINE",
"274 346 LINE SMOOTH",
"448 346 OFFCURVE",
"477 226 OFFCURVE",
"491 119 CURVE",
"501 45 OFFCURVE",
"533 -11 OFFCURVE",
"607 -11 CURVE",
"644 -11 OFFCURVE",
"684 1 OFFCURVE",
"705 12 CURVE"
);
},
{
closed = 1;
nodes = (
"315 373 LINE",
"231 373 LINE",
"231 684 LINE",
"330 684 LINE SMOOTH",
"447 684 OFFCURVE",
"488 627 OFFCURVE",
"488 529 CURVE",
"488 425 OFFCURVE",
"443 373 OFFCURVE",
"315 373 CURVE"
);
}
);
width = 695;
}
);
leftKerningGroup = B;
note = "\012		Rcaron\012  ";
rightKerningGroup = R;
unicode = 0158;
},
{
glyphname = S;
layers = (
{
layerId = "72C12618-BAE4-4A2B-8370-CBFBBD108EB7";
paths = (
{
closed = 1;
nodes = (
"309 -11 LINE",
"419 -11 OFFCURVE",
"506 68 OFFCURVE",
"506 187 CURVE",
"506 300 OFFCURVE",
"439 350 OFFCURVE",
"329 404 CURVE",
"288 424 LINE SMOOTH",
"209 462 OFFCURVE",
"155 499 OFFCURVE",
"155 575 CURVE",
"155 646 OFFCURVE",
"208 696 OFFCURVE",
"287 696 CURVE",
"366 696 OFFCURVE",
"441 630 OFFCURVE",
"454 519 CURVE",
"479 519 LINE",
"477 616 LINE",
"480 712 LINE",
"455 712 LINE",
"453 690 OFFCURVE",
"448 681 OFFCURVE",
"436 681 CURVE",
"425 681 OFFCURVE",
"413 685 OFFCURVE",
"395 694 CURVE",
"374 705 OFFCURVE",
"336 724 OFFCURVE",
"282 724 CURVE",
"164 724 OFFCURVE",
"80 649 OFFCURVE",
"80 543 CURVE",
"80 452 OFFCURVE",
"128 400 OFFCURVE",
"228 352 CURVE",
"270 332 LINE SMOOTH",
"373 283 OFFCURVE",
"434 235 OFFCURVE",
"434 146 CURVE",
"434 56 OFFCURVE",
"370 18 OFFCURVE",
"309 18 CURVE",
"197 18 OFFCURVE",
"119 111 OFFCURVE",
"98 200 CURVE",
"87 247 LINE",
"62 247 LINE",
"65 118 LINE",
"60 0 LINE",
"85 0 LINE",
"88 15 LINE SMOOTH",
"92 33 OFFCURVE",
"97 52 OFFCURVE",
"116 52 CURVE",
"130 52 OFFCURVE",
"148 44 OFFCURVE",
"178 28 CURVE",
"212 10 OFFCURVE",
"256 -11 OFFCURVE",
"309 -11 CURVE"
);
}
);
width = 561;
}
);
leftKerningGroup = S;
note = "\012		S\012  ";
rightKerningGroup = S;
unicode = 0053;
},
{
glyphname = Sacute;
layers = (
{
layerId = "72C12618-BAE4-4A2B-8370-CBFBBD108EB7";
paths = (
{
closed = 1;
nodes = (
"292 760 LINE",
"387 940 LINE",
"306 940 LINE",
"280 760 LINE"
);
},
{
closed = 1;
nodes = (
"309 -11 LINE",
"419 -11 OFFCURVE",
"506 68 OFFCURVE",
"506 187 CURVE",
"506 300 OFFCURVE",
"439 350 OFFCURVE",
"329 404 CURVE",
"288 424 LINE SMOOTH",
"209 462 OFFCURVE",
"155 499 OFFCURVE",
"155 575 CURVE",
"155 646 OFFCURVE",
"208 696 OFFCURVE",
"287 696 CURVE",
"366 696 OFFCURVE",
"441 630 OFFCURVE",
"454 519 CURVE",
"479 519 LINE",
"477 616 LINE",
"480 712 LINE",
"455 712 LINE",
"453 690 OFFCURVE",
"448 681 OFFCURVE",
"436 681 CURVE",
"425 681 OFFCURVE",
"413 685 OFFCURVE",
"395 694 CURVE",
"374 705 OFFCURVE",
"336 724 OFFCURVE",
"282 724 CURVE",
"164 724 OFFCURVE",
"80 649 OFFCURVE",
"80 543 CURVE",
"80 452 OFFCURVE",
"128 400 OFFCURVE",
"228 352 CURVE",
"270 332 LINE SMOOTH",
"373 283 OFFCURVE",
"434 235 OFFCURVE",
"434 146 CURVE",
"434 56 OFFCURVE",
"370 18 OFFCURVE",
"309 18 CURVE",
"197 18 OFFCURVE",
"119 111 OFFCURVE",
"98 200 CURVE",
"87 247 LINE",
"62 247 LINE",
"65 118 LINE",
"60 0 LINE",
"85 0 LINE",
"88 15 LINE SMOOTH",
"92 33 OFFCURVE",
"97 52 OFFCURVE",
"116 52 CURVE",
"130 52 OFFCURVE",
"148 44 OFFCURVE",
"178 28 CURVE",
"212 10 OFFCURVE",
"256 -11 OFFCURVE",
"309 -11 CURVE"
);
}
);
width = 561;
}
);
leftKerningGroup = S;
note = "\012		Sacute\012  ";
rightKerningGroup = S;
unicode = 015A;
},
{
glyphname = Scaron;
layers = (
{
layerId = "72C12618-BAE4-4A2B-8370-CBFBBD108EB7";
paths = (
{
closed = 1;
nodes = (
"289 847 LINE",
"283 847 LINE",
"205 940 LINE",
"181 940 LINE",
"275 760 LINE",
"297 760 LINE",
"391 940 LINE",
"367 940 LINE"
);
},
{
closed = 1;
nodes = (
"309 -11 LINE",
"419 -11 OFFCURVE",
"506 68 OFFCURVE",
"506 187 CURVE",
"506 300 OFFCURVE",
"439 350 OFFCURVE",
"329 404 CURVE",
"288 424 LINE SMOOTH",
"209 462 OFFCURVE",
"155 499 OFFCURVE",
"155 575 CURVE",
"155 646 OFFCURVE",
"208 696 OFFCURVE",
"287 696 CURVE",
"366 696 OFFCURVE",
"441 630 OFFCURVE",
"454 519 CURVE",
"479 519 LINE",
"477 616 LINE",
"480 712 LINE",
"455 712 LINE",
"453 690 OFFCURVE",
"448 681 OFFCURVE",
"436 681 CURVE",
"425 681 OFFCURVE",
"413 685 OFFCURVE",
"395 694 CURVE",
"374 705 OFFCURVE",
"336 724 OFFCURVE",
"282 724 CURVE",
"164 724 OFFCURVE",
"80 649 OFFCURVE",
"80 543 CURVE",
"80 452 OFFCURVE",
"128 400 OFFCURVE",
"228 352 CURVE",
"270 332 LINE SMOOTH",
"373 283 OFFCURVE",
"434 235 OFFCURVE",
"434 146 CURVE",
"434 56 OFFCURVE",
"370 18 OFFCURVE",
"309 18 CURVE",
"197 18 OFFCURVE",
"119 111 OFFCURVE",
"98 200 CURVE",
"87 247 LINE",
"62 247 LINE",
"65 118 LINE",
"60 0 LINE",
"85 0 LINE",
"88 15 LINE SMOOTH",
"92 33 OFFCURVE",
"97 52 OFFCURVE",
"116 52 CURVE",
"130 52 OFFCURVE",
"148 44 OFFCURVE",
"178 28 CURVE",
"212 10 OFFCURVE",
"256 -11 OFFCURVE",
"309 -11 CURVE"
);
}
);
width = 561;
}
);
leftKerningGroup = S;
note = "\012		Scaron\012  ";
rightKerningGroup = S;
unicode = 0160;
},
{
glyphname = Scedilla;
layers = (
{
layerId = "72C12618-BAE4-4A2B-8370-CBFBBD108EB7";
paths = (
{
closed = 1;
nodes = (
"506 187 LINE",
"506 300 OFFCURVE",
"439 350 OFFCURVE",
"329 404 CURVE",
"288 424 LINE SMOOTH",
"209 462 OFFCURVE",
"155 499 OFFCURVE",
"155 575 CURVE",
"155 646 OFFCURVE",
"208 696 OFFCURVE",
"287 696 CURVE",
"366 696 OFFCURVE",
"441 630 OFFCURVE",
"454 519 CURVE",
"479 519 LINE",
"477 616 LINE",
"480 712 LINE",
"455 712 LINE",
"453 690 OFFCURVE",
"448 681 OFFCURVE",
"436 681 CURVE",
"425 681 OFFCURVE",
"413 685 OFFCURVE",
"395 694 CURVE",
"374 705 OFFCURVE",
"336 724 OFFCURVE",
"282 724 CURVE",
"164 724 OFFCURVE",
"80 649 OFFCURVE",
"80 543 CURVE",
"80 452 OFFCURVE",
"128 400 OFFCURVE",
"228 352 CURVE",
"270 332 LINE SMOOTH",
"373 283 OFFCURVE",
"434 235 OFFCURVE",
"434 146 CURVE",
"434 56 OFFCURVE",
"370 18 OFFCURVE",
"309 18 CURVE",
"197 18 OFFCURVE",
"119 111 OFFCURVE",
"98 200 CURVE",
"87 247 LINE",
"62 247 LINE",
"65 118 LINE",
"60 0 LINE",
"85 0 LINE",
"88 15 LINE SMOOTH",
"92 33 OFFCURVE",
"97 52 OFFCURVE",
"116 52 CURVE",
"130 52 OFFCURVE",
"148 44 OFFCURVE",
"178 28 CURVE",
"209 11 OFFCURVE",
"249 -8 OFFCURVE",
"296 -11 CURVE",
"281 -57 LINE",
"245 -57 OFFCURVE",
"211 -75 OFFCURVE",
"192 -109 CURVE",
"212 -122 LINE",
"227 -99 OFFCURVE",
"251 -82 OFFCURVE",
"274 -82 CURVE",
"318 -82 OFFCURVE",
"342 -120 OFFCURVE",
"342 -166 CURVE",
"342 -214 OFFCURVE",
"318 -264 OFFCURVE",
"271 -264 CURVE",
"230 -264 OFFCURVE",
"202 -234 OFFCURVE",
"196 -203 CURVE",
"174 -210 LINE",
"183 -249 OFFCURVE",
"217 -292 OFFCURVE",
"277 -292 CURVE",
"339 -292 OFFCURVE",
"393 -243 OFFCURVE",
"393 -169 CURVE",
"393 -115 OFFCURVE",
"358 -72 OFFCURVE",
"309 -60 CURVE",
"326 -10 LINE",
"428 -2 OFFCURVE",
"506 74 OFFCURVE",
"506 187 CURVE"
);
}
);
width = 561;
}
);
leftKerningGroup = S;
note = "\012		Scedilla\012  ";
rightKerningGroup = S;
unicode = 015E;
},
{
glyphname = T;
layers = (
{
layerId = "72C12618-BAE4-4A2B-8370-CBFBBD108EB7";
paths = (
{
closed = 1;
nodes = (
"719 504 LINE",
"741 510 LINE",
"716 633 LINE",
"705 713 LINE",
"419 710 LINE",
"324 710 LINE",
"39 713 LINE",
"28 633 LINE",
"3 510 LINE",
"24 505 LINE",
"76 635 OFFCURVE",
"96 683 OFFCURVE",
"188 683 CURVE",
"329 683 LINE",
"329 133 LINE SMOOTH",
"329 34 OFFCURVE",
"309 32 OFFCURVE",
"228 24 CURVE",
"206 22 LINE",
"206 -3 LINE",
"374 0 LINE",
"537 -3 LINE",
"537 22 LINE",
"515 24 LINE SMOOTH",
"434 32 OFFCURVE",
"414 34 OFFCURVE",
"414 133 CURVE",
"414 683 LINE",
"562 683 LINE SMOOTH",
"648 683 OFFCURVE",
"673 620 OFFCURVE",
"719 504 CURVE"
);
}
);
width = 744;
}
);
leftKerningGroup = T;
note = "\012		T\012  ";
rightKerningGroup = T;
unicode = 0054;
},
{
glyphname = Tbar;
layers = (
{
layerId = "72C12618-BAE4-4A2B-8370-CBFBBD108EB7";
paths = (
{
closed = 1;
nodes = (
"719 504 LINE",
"741 510 LINE",
"716 633 LINE",
"705 713 LINE",
"419 710 LINE",
"324 710 LINE",
"39 713 LINE",
"28 633 LINE",
"3 510 LINE",
"24 505 LINE",
"76 635 OFFCURVE",
"96 683 OFFCURVE",
"188 683 CURVE",
"329 683 LINE",
"329 371 LINE",
"149 371 LINE",
"149 339 LINE",
"329 339 LINE",
"329 133 LINE SMOOTH",
"329 34 OFFCURVE",
"309 32 OFFCURVE",
"228 24 CURVE",
"206 22 LINE",
"206 -3 LINE",
"374 0 LINE",
"537 -3 LINE",
"537 22 LINE",
"515 24 LINE SMOOTH",
"434 32 OFFCURVE",
"414 34 OFFCURVE",
"414 133 CURVE",
"414 339 LINE",
"589 339 LINE",
"589 371 LINE",
"414 371 LINE",
"414 683 LINE",
"562 683 LINE SMOOTH",
"648 683 OFFCURVE",
"673 620 OFFCURVE",
"719 504 CURVE"
);
}
);
width = 744;
}
);
leftKerningGroup = T;
note = "\012		Tbar\012  ";
rightKerningGroup = T;
unicode = 0166;
},
{
glyphname = Tcaron;
layers = (
{
layerId = "72C12618-BAE4-4A2B-8370-CBFBBD108EB7";
paths = (
{
closed = 1;
nodes = (
"297 940 LINE",
"273 940 LINE",
"367 760 LINE",
"389 760 LINE",
"483 940 LINE",
"459 940 LINE",
"381 847 LINE",
"375 847 LINE"
);
},
{
closed = 1;
nodes = (
"719 504 LINE",
"741 510 LINE",
"716 633 LINE",
"705 713 LINE",
"419 710 LINE",
"324 710 LINE",
"39 713 LINE",
"28 633 LINE",
"3 510 LINE",
"24 505 LINE",
"76 635 OFFCURVE",
"96 683 OFFCURVE",
"188 683 CURVE",
"329 683 LINE",
"329 133 LINE SMOOTH",
"329 34 OFFCURVE",
"309 32 OFFCURVE",
"228 24 CURVE",
"206 22 LINE",
"206 -3 LINE",
"374 0 LINE",
"537 -3 LINE",
"537 22 LINE",
"515 24 LINE SMOOTH",
"434 32 OFFCURVE",
"414 34 OFFCURVE",
"414 133 CURVE",
"414 683 LINE",
"562 683 LINE SMOOTH",
"648 683 OFFCURVE",
"673 620 OFFCURVE",
"719 504 CURVE"
);
}
);
width = 744;
}
);
leftKerningGroup = T;
note = "\012		Tcaron\012  ";
rightKerningGroup = T;
unicode = 0164;
},
{
glyphname = U;
layers = (
{
layerId = "72C12618-BAE4-4A2B-8370-CBFBBD108EB7";
paths = (
{
closed = 1;
nodes = (
"394 -11 LINE",
"558 -11 OFFCURVE",
"639 74 OFFCURVE",
"639 229 CURVE",
"639 577 LINE SMOOTH",
"639 676 OFFCURVE",
"656 678 OFFCURVE",
"725 686 CURVE",
"745 688 LINE",
"745 713 LINE",
"646 711 LINE",
"498 713 LINE",
"498 688 LINE",
"518 686 LINE SMOOTH",
"587 678 OFFCURVE",
"604 676 OFFCURVE",
"604 577 CURVE",
"604 229 LINE SMOOTH",
"604 101 OFFCURVE",
"547 22 OFFCURVE",
"413 22 CURVE",
"297 22 OFFCURVE",
"216 88 OFFCURVE",
"216 223 CURVE",
"216 577 LINE SMOOTH",
"216 676 OFFCURVE",
"233 678 OFFCURVE",
"302 686 CURVE",
"322 688 LINE",
"322 713 LINE",
"174 710 LINE",
"173 710 LINE",
"25 713 LINE",
"25 688 LINE",
"45 686 LINE SMOOTH",
"114 678 OFFCURVE",
"131 676 OFFCURVE",
"131 577 CURVE",
"131 223 LINE SMOOTH",
"131 57 OFFCURVE",
"227 -11 OFFCURVE",
"394 -11 CURVE"
);
}
);
width = 750;
}
);
leftKerningGroup = U;
note = "\012		U\012  ";
rightKerningGroup = U;
unicode = 0055;
},
{
glyphname = Uacute;
layers = (
{
layerId = "72C12618-BAE4-4A2B-8370-CBFBBD108EB7";
paths = (
{
closed = 1;
nodes = (
"416 760 LINE",
"511 940 LINE",
"430 940 LINE",
"404 760 LINE"
);
},
{
closed = 1;
nodes = (
"394 -11 LINE",
"558 -11 OFFCURVE",
"639 74 OFFCURVE",
"639 229 CURVE",
"639 577 LINE SMOOTH",
"639 676 OFFCURVE",
"656 678 OFFCURVE",
"725 686 CURVE",
"745 688 LINE",
"745 713 LINE",
"646 711 LINE",
"498 713 LINE",
"498 688 LINE",
"518 686 LINE SMOOTH",
"587 678 OFFCURVE",
"604 676 OFFCURVE",
"604 577 CURVE",
"604 229 LINE SMOOTH",
"604 101 OFFCURVE",
"547 22 OFFCURVE",
"413 22 CURVE",
"297 22 OFFCURVE",
"216 88 OFFCURVE",
"216 223 CURVE",
"216 577 LINE SMOOTH",
"216 676 OFFCURVE",
"233 678 OFFCURVE",
"302 686 CURVE",
"322 688 LINE",
"322 713 LINE",
"174 710 LINE",
"173 710 LINE",
"25 713 LINE",
"25 688 LINE",
"45 686 LINE SMOOTH",
"114 678 OFFCURVE",
"131 676 OFFCURVE",
"131 577 CURVE",
"131 223 LINE SMOOTH",
"131 57 OFFCURVE",
"227 -11 OFFCURVE",
"394 -11 CURVE"
);
}
);
width = 750;
}
);
leftKerningGroup = U;
note = "\012		Uacute\012  ";
rightKerningGroup = U;
unicode = 00DA;
},
{
glyphname = Ucircumflex;
layers = (
{
layerId = "72C12618-BAE4-4A2B-8370-CBFBBD108EB7";
paths = (
{
closed = 1;
nodes = (
"513 761 LINE",
"419 940 LINE",
"397 940 LINE",
"303 761 LINE",
"327 761 LINE",
"405 853 LINE",
"411 853 LINE",
"489 761 LINE"
);
},
{
closed = 1;
nodes = (
"394 -11 LINE",
"558 -11 OFFCURVE",
"639 74 OFFCURVE",
"639 229 CURVE",
"639 577 LINE SMOOTH",
"639 676 OFFCURVE",
"656 678 OFFCURVE",
"725 686 CURVE",
"745 688 LINE",
"745 713 LINE",
"646 711 LINE",
"498 713 LINE",
"498 688 LINE",
"518 686 LINE SMOOTH",
"587 678 OFFCURVE",
"604 676 OFFCURVE",
"604 577 CURVE",
"604 229 LINE SMOOTH",
"604 101 OFFCURVE",
"547 22 OFFCURVE",
"413 22 CURVE",
"297 22 OFFCURVE",
"216 88 OFFCURVE",
"216 223 CURVE",
"216 577 LINE SMOOTH",
"216 676 OFFCURVE",
"233 678 OFFCURVE",
"302 686 CURVE",
"322 688 LINE",
"322 713 LINE",
"174 710 LINE",
"173 710 LINE",
"25 713 LINE",
"25 688 LINE",
"45 686 LINE SMOOTH",
"114 678 OFFCURVE",
"131 676 OFFCURVE",
"131 577 CURVE",
"131 223 LINE SMOOTH",
"131 57 OFFCURVE",
"227 -11 OFFCURVE",
"394 -11 CURVE"
);
}
);
width = 750;
}
);
leftKerningGroup = U;
note = "\012		Ucircumflex\012  ";
rightKerningGroup = U;
unicode = 00DB;
},
{
glyphname = Udieresis;
layers = (
{
layerId = "72C12618-BAE4-4A2B-8370-CBFBBD108EB7";
paths = (
{
closed = 1;
nodes = (
"318 822 LINE",
"352 822 OFFCURVE",
"368 847 OFFCURVE",
"368 879 CURVE",
"368 910 OFFCURVE",
"352 935 OFFCURVE",
"318 935 CURVE",
"286 935 OFFCURVE",
"267 910 OFFCURVE",
"267 879 CURVE",
"267 847 OFFCURVE",
"286 822 OFFCURVE",
"318 822 CURVE"
);
},
{
closed = 1;
nodes = (
"508 822 LINE",
"542 822 OFFCURVE",
"558 847 OFFCURVE",
"558 879 CURVE",
"558 910 OFFCURVE",
"542 935 OFFCURVE",
"508 935 CURVE",
"476 935 OFFCURVE",
"457 910 OFFCURVE",
"457 879 CURVE",
"457 847 OFFCURVE",
"476 822 OFFCURVE",
"508 822 CURVE"
);
},
{
closed = 1;
nodes = (
"394 -11 LINE",
"558 -11 OFFCURVE",
"639 74 OFFCURVE",
"639 229 CURVE",
"639 577 LINE SMOOTH",
"639 676 OFFCURVE",
"656 678 OFFCURVE",
"725 686 CURVE",
"745 688 LINE",
"745 713 LINE",
"646 711 LINE",
"498 713 LINE",
"498 688 LINE",
"518 686 LINE SMOOTH",
"587 678 OFFCURVE",
"604 676 OFFCURVE",
"604 577 CURVE",
"604 229 LINE SMOOTH",
"604 101 OFFCURVE",
"547 22 OFFCURVE",
"413 22 CURVE",
"297 22 OFFCURVE",
"216 88 OFFCURVE",
"216 223 CURVE",
"216 577 LINE SMOOTH",
"216 676 OFFCURVE",
"233 678 OFFCURVE",
"302 686 CURVE",
"322 688 LINE",
"322 713 LINE",
"174 710 LINE",
"173 710 LINE",
"25 713 LINE",
"25 688 LINE",
"45 686 LINE SMOOTH",
"114 678 OFFCURVE",
"131 676 OFFCURVE",
"131 577 CURVE",
"131 223 LINE SMOOTH",
"131 57 OFFCURVE",
"227 -11 OFFCURVE",
"394 -11 CURVE"
);
}
);
width = 750;
}
);
leftKerningGroup = U;
note = "\012		Udieresis\012  ";
rightKerningGroup = U;
unicode = 00DC;
},
{
glyphname = Ugrave;
layers = (
{
layerId = "72C12618-BAE4-4A2B-8370-CBFBBD108EB7";
paths = (
{
closed = 1;
nodes = (
"389 940 LINE",
"308 940 LINE",
"403 760 LINE",
"415 760 LINE"
);
},
{
closed = 1;
nodes = (
"394 -11 LINE",
"558 -11 OFFCURVE",
"639 74 OFFCURVE",
"639 229 CURVE",
"639 577 LINE SMOOTH",
"639 676 OFFCURVE",
"656 678 OFFCURVE",
"725 686 CURVE",
"745 688 LINE",
"745 713 LINE",
"646 711 LINE",
"498 713 LINE",
"498 688 LINE",
"518 686 LINE SMOOTH",
"587 678 OFFCURVE",
"604 676 OFFCURVE",
"604 577 CURVE",
"604 229 LINE SMOOTH",
"604 101 OFFCURVE",
"547 22 OFFCURVE",
"413 22 CURVE",
"297 22 OFFCURVE",
"216 88 OFFCURVE",
"216 223 CURVE",
"216 577 LINE SMOOTH",
"216 676 OFFCURVE",
"233 678 OFFCURVE",
"302 686 CURVE",
"322 688 LINE",
"322 713 LINE",
"174 710 LINE",
"173 710 LINE",
"25 713 LINE",
"25 688 LINE",
"45 686 LINE SMOOTH",
"114 678 OFFCURVE",
"131 676 OFFCURVE",
"131 577 CURVE",
"131 223 LINE SMOOTH",
"131 57 OFFCURVE",
"227 -11 OFFCURVE",
"394 -11 CURVE"
);
}
);
width = 750;
}
);
leftKerningGroup = U;
note = "\012		Ugrave\012  ";
rightKerningGroup = U;
unicode = 00D9;
},
{
glyphname = Uhungarumlaut;
layers = (
{
layerId = "72C12618-BAE4-4A2B-8370-CBFBBD108EB7";
paths = (
{
closed = 1;
nodes = (
"471 761 LINE",
"566 941 LINE",
"485 941 LINE",
"459 761 LINE"
);
},
{
closed = 1;
nodes = (
"338 760 LINE",
"433 940 LINE",
"352 940 LINE",
"326 760 LINE"
);
},
{
closed = 1;
nodes = (
"394 -11 LINE",
"558 -11 OFFCURVE",
"639 74 OFFCURVE",
"639 229 CURVE",
"639 577 LINE SMOOTH",
"639 676 OFFCURVE",
"656 678 OFFCURVE",
"725 686 CURVE",
"745 688 LINE",
"745 713 LINE",
"646 711 LINE",
"498 713 LINE",
"498 688 LINE",
"518 686 LINE SMOOTH",
"587 678 OFFCURVE",
"604 676 OFFCURVE",
"604 577 CURVE",
"604 229 LINE SMOOTH",
"604 101 OFFCURVE",
"547 22 OFFCURVE",
"413 22 CURVE",
"297 22 OFFCURVE",
"216 88 OFFCURVE",
"216 223 CURVE",
"216 577 LINE SMOOTH",
"216 676 OFFCURVE",
"233 678 OFFCURVE",
"302 686 CURVE",
"322 688 LINE",
"322 713 LINE",
"174 710 LINE",
"173 710 LINE",
"25 713 LINE",
"25 688 LINE",
"45 686 LINE SMOOTH",
"114 678 OFFCURVE",
"131 676 OFFCURVE",
"131 577 CURVE",
"131 223 LINE SMOOTH",
"131 57 OFFCURVE",
"227 -11 OFFCURVE",
"394 -11 CURVE"
);
}
);
width = 750;
}
);
leftKerningGroup = U;
note = "\012		Uhungarumlaut\012  ";
rightKerningGroup = U;
unicode = 0170;
},
{
glyphname = Umacron;
layers = (
{
layerId = "72C12618-BAE4-4A2B-8370-CBFBBD108EB7";
paths = (
{
closed = 1;
nodes = (
"519 834 LINE",
"519 874 LINE",
"292 874 LINE",
"292 834 LINE"
);
},
{
closed = 1;
nodes = (
"394 -11 LINE",
"558 -11 OFFCURVE",
"639 74 OFFCURVE",
"639 229 CURVE",
"639 577 LINE SMOOTH",
"639 676 OFFCURVE",
"656 678 OFFCURVE",
"725 686 CURVE",
"745 688 LINE",
"745 713 LINE",
"646 711 LINE",
"498 713 LINE",
"498 688 LINE",
"518 686 LINE SMOOTH",
"587 678 OFFCURVE",
"604 676 OFFCURVE",
"604 577 CURVE",
"604 229 LINE SMOOTH",
"604 101 OFFCURVE",
"547 22 OFFCURVE",
"413 22 CURVE",
"297 22 OFFCURVE",
"216 88 OFFCURVE",
"216 223 CURVE",
"216 577 LINE SMOOTH",
"216 676 OFFCURVE",
"233 678 OFFCURVE",
"302 686 CURVE",
"322 688 LINE",
"322 713 LINE",
"174 710 LINE",
"173 710 LINE",
"25 713 LINE",
"25 688 LINE",
"45 686 LINE SMOOTH",
"114 678 OFFCURVE",
"131 676 OFFCURVE",
"131 577 CURVE",
"131 223 LINE SMOOTH",
"131 57 OFFCURVE",
"227 -11 OFFCURVE",
"394 -11 CURVE"
);
}
);
width = 750;
}
);
leftKerningGroup = U;
note = "\012		Umacron\012  ";
rightKerningGroup = U;
unicode = 016A;
},
{
glyphname = Uogonek;
layers = (
{
layerId = "72C12618-BAE4-4A2B-8370-CBFBBD108EB7";
paths = (
{
closed = 1;
nodes = (
"725 686 LINE",
"745 688 LINE",
"745 713 LINE",
"646 711 LINE",
"498 713 LINE",
"498 688 LINE",
"518 686 LINE SMOOTH",
"587 678 OFFCURVE",
"604 676 OFFCURVE",
"604 577 CURVE",
"604 229 LINE SMOOTH",
"604 101 OFFCURVE",
"547 22 OFFCURVE",
"413 22 CURVE",
"297 22 OFFCURVE",
"216 88 OFFCURVE",
"216 223 CURVE",
"216 577 LINE SMOOTH",
"216 676 OFFCURVE",
"233 678 OFFCURVE",
"302 686 CURVE",
"322 688 LINE",
"322 713 LINE",
"174 710 LINE",
"173 710 LINE",
"25 713 LINE",
"25 688 LINE",
"45 686 LINE SMOOTH",
"114 678 OFFCURVE",
"131 676 OFFCURVE",
"131 577 CURVE",
"131 223 LINE SMOOTH",
"131 57 OFFCURVE",
"227 -11 OFFCURVE",
"394 -11 CURVE",
"428 -11 OFFCURVE",
"458 -7 OFFCURVE",
"485 0 CURVE",
"435 -57 OFFCURVE",
"373 -125 OFFCURVE",
"373 -192 CURVE",
"373 -250 OFFCURVE",
"420 -294 OFFCURVE",
"481 -294 CURVE",
"567 -294 OFFCURVE",
"604 -234 OFFCURVE",
"611 -183 CURVE",
"594 -170 LINE",
"575 -212 OFFCURVE",
"539 -239 OFFCURVE",
"502 -239 CURVE",
"454 -239 OFFCURVE",
"423 -210 OFFCURVE",
"423 -154 CURVE",
"423 -96 OFFCURVE",
"468 -47 OFFCURVE",
"523 13 CURVE",
"600 48 OFFCURVE",
"639 122 OFFCURVE",
"639 229 CURVE",
"639 577 LINE SMOOTH",
"639 676 OFFCURVE",
"656 678 OFFCURVE",
"725 686 CURVE"
);
}
);
width = 750;
}
);
leftKerningGroup = U;
note = "\012		Uogonek\012  ";
rightKerningGroup = U;
unicode = 0172;
},
{
glyphname = Uring;
layers = (
{
layerId = "72C12618-BAE4-4A2B-8370-CBFBBD108EB7";
paths = (
{
closed = 1;
nodes = (
"411 766 LINE",
"451 766 OFFCURVE",
"494 792 OFFCURVE",
"494 851 CURVE",
"494 888 OFFCURVE",
"469 936 OFFCURVE",
"410 936 CURVE",
"355 936 OFFCURVE",
"325 893 OFFCURVE",
"325 851 CURVE",
"325 804 OFFCURVE",
"359 766 OFFCURVE",
"411 766 CURVE"
);
},
{
closed = 1;
nodes = (
"411 797 LINE",
"383 797 OFFCURVE",
"358 817 OFFCURVE",
"358 851 CURVE",
"358 889 OFFCURVE",
"387 905 OFFCURVE",
"410 905 CURVE",
"436 905 OFFCURVE",
"461 886 OFFCURVE",
"461 851 CURVE",
"461 815 OFFCURVE",
"436 797 OFFCURVE",
"411 797 CURVE"
);
},
{
closed = 1;
nodes = (
"394 -11 LINE",
"558 -11 OFFCURVE",
"639 74 OFFCURVE",
"639 229 CURVE",
"639 577 LINE SMOOTH",
"639 676 OFFCURVE",
"656 678 OFFCURVE",
"725 686 CURVE",
"745 688 LINE",
"745 713 LINE",
"646 711 LINE",
"498 713 LINE",
"498 688 LINE",
"518 686 LINE SMOOTH",
"587 678 OFFCURVE",
"604 676 OFFCURVE",
"604 577 CURVE",
"604 229 LINE SMOOTH",
"604 101 OFFCURVE",
"547 22 OFFCURVE",
"413 22 CURVE",
"297 22 OFFCURVE",
"216 88 OFFCURVE",
"216 223 CURVE",
"216 577 LINE SMOOTH",
"216 676 OFFCURVE",
"233 678 OFFCURVE",
"302 686 CURVE",
"322 688 LINE",
"322 713 LINE",
"174 710 LINE",
"173 710 LINE",
"25 713 LINE",
"25 688 LINE",
"45 686 LINE SMOOTH",
"114 678 OFFCURVE",
"131 676 OFFCURVE",
"131 577 CURVE",
"131 223 LINE SMOOTH",
"131 57 OFFCURVE",
"227 -11 OFFCURVE",
"394 -11 CURVE"
);
}
);
width = 750;
}
);
leftKerningGroup = U;
note = "\012		Uring\012  ";
rightKerningGroup = U;
unicode = 016E;
},
{
glyphname = Utilde;
layers = (
{
layerId = "72C12618-BAE4-4A2B-8370-CBFBBD108EB7";
paths = (
{
closed = 1;
nodes = (
"484 801 LINE",
"524 801 OFFCURVE",
"558 840 OFFCURVE",
"565 900 CURVE",
"546 900 LINE",
"537 872 OFFCURVE",
"519 849 OFFCURVE",
"492 849 CURVE",
"474 849 OFFCURVE",
"451 862 OFFCURVE",
"441 868 CURVE",
"404 890 LINE SMOOTH",
"391 898 OFFCURVE",
"362 916 OFFCURVE",
"337 916 CURVE",
"276 916 OFFCURVE",
"251 841 OFFCURVE",
"251 812 CURVE",
"270 812 LINE",
"276 836 OFFCURVE",
"300 868 OFFCURVE",
"329 868 CURVE",
"347 868 OFFCURVE",
"366 857 OFFCURVE",
"390 842 CURVE",
"416 826 LINE SMOOTH",
"433 816 OFFCURVE",
"459 801 OFFCURVE",
"484 801 CURVE"
);
},
{
closed = 1;
nodes = (
"394 -11 LINE",
"558 -11 OFFCURVE",
"639 74 OFFCURVE",
"639 229 CURVE",
"639 577 LINE SMOOTH",
"639 676 OFFCURVE",
"656 678 OFFCURVE",
"725 686 CURVE",
"745 688 LINE",
"745 713 LINE",
"646 711 LINE",
"498 713 LINE",
"498 688 LINE",
"518 686 LINE SMOOTH",
"587 678 OFFCURVE",
"604 676 OFFCURVE",
"604 577 CURVE",
"604 229 LINE SMOOTH",
"604 101 OFFCURVE",
"547 22 OFFCURVE",
"413 22 CURVE",
"297 22 OFFCURVE",
"216 88 OFFCURVE",
"216 223 CURVE",
"216 577 LINE SMOOTH",
"216 676 OFFCURVE",
"233 678 OFFCURVE",
"302 686 CURVE",
"322 688 LINE",
"322 713 LINE",
"174 710 LINE",
"173 710 LINE",
"25 713 LINE",
"25 688 LINE",
"45 686 LINE SMOOTH",
"114 678 OFFCURVE",
"131 676 OFFCURVE",
"131 577 CURVE",
"131 223 LINE SMOOTH",
"131 57 OFFCURVE",
"227 -11 OFFCURVE",
"394 -11 CURVE"
);
}
);
width = 750;
}
);
leftKerningGroup = U;
note = "\012		Utilde\012  ";
rightKerningGroup = U;
unicode = 0168;
},
{
glyphname = V;
layers = (
{
layerId = "72C12618-BAE4-4A2B-8370-CBFBBD108EB7";
paths = (
{
closed = 1;
nodes = (
"725 684 LINE",
"748 689 LINE",
"748 713 LINE",
"648 710 LINE",
"508 713 LINE",
"508 688 LINE",
"543 684 LINE SMOOTH",
"580 680 OFFCURVE",
"603 666 OFFCURVE",
"603 634 CURVE",
"603 622 OFFCURVE",
"600 607 OFFCURVE",
"592 588 CURVE",
"398 108 LINE",
"196 587 LINE SMOOTH",
"189 604 OFFCURVE",
"185 619 OFFCURVE",
"185 632 CURVE",
"185 665 OFFCURVE",
"211 681 OFFCURVE",
"253 685 CURVE",
"283 688 LINE",
"283 713 LINE",
"134 710 LINE",
"-15 713 LINE",
"-15 688 LINE",
"5 684 LINE SMOOTH",
"54 674 OFFCURVE",
"77 648 OFFCURVE",
"94 607 CURVE",
"356 -10 LINE",
"388 -10 LINE",
"628 587 LINE SMOOTH",
"651 644 OFFCURVE",
"674 673 OFFCURVE",
"725 684 CURVE"
);
}
);
width = 733;
}
);
leftKerningGroup = V;
note = "\012		V\012  ";
rightKerningGroup = V;
unicode = 0056;
},
{
glyphname = W;
layers = (
{
layerId = "72C12618-BAE4-4A2B-8370-CBFBBD108EB7";
paths = (
{
closed = 1;
nodes = (
"1040 683 LINE",
"1064 687 LINE",
"1064 713 LINE",
"958 710 LINE",
"826 713 LINE",
"826 687 LINE",
"859 683 LINE SMOOTH",
"897 678 OFFCURVE",
"918 668 OFFCURVE",
"918 639 CURVE",
"918 631 OFFCURVE",
"916 621 OFFCURVE",
"913 610 CURVE",
"766 129 LINE",
"599 582 LINE SMOOTH",
"592 600 OFFCURVE",
"589 616 OFFCURVE",
"589 629 CURVE",
"589 662 OFFCURVE",
"611 681 OFFCURVE",
"654 684 CURVE",
"692 687 LINE",
"690 713 LINE",
"653 711 LINE SMOOTH",
"617 709 OFFCURVE",
"573 704 OFFCURVE",
"552 664 CURVE",
"542 688 OFFCURVE",
"514 703 OFFCURVE",
"464 708 CURVE",
"422 713 LINE",
"418 687 LINE",
"458 681 LINE SMOOTH",
"497 675 OFFCURVE",
"521 660 OFFCURVE",
"521 629 CURVE",
"521 621 OFFCURVE",
"519 611 OFFCURVE",
"515 599 CURVE",
"341 126 LINE",
"188 598 LINE SMOOTH",
"183 612 OFFCURVE",
"181 623 OFFCURVE",
"181 633 CURVE",
"181 674 OFFCURVE",
"219 681 OFFCURVE",
"255 685 CURVE",
"283 688 LINE",
"283 713 LINE",
"135 710 LINE",
"-15 713 LINE",
"-15 688 LINE",
"8 683 LINE SMOOTH",
"51 674 OFFCURVE",
"81 651 OFFCURVE",
"99 594 CURVE",
"295 -9 LINE",
"327 -9 LINE",
"526 530 LINE",
"728 -9 LINE",
"760 -9 LINE",
"952 621 LINE SMOOTH",
"963 658 OFFCURVE",
"996 676 OFFCURVE",
"1040 683 CURVE"
);
}
);
width = 1049;
}
);
leftKerningGroup = V;
note = "\012		W\012  ";
rightKerningGroup = V;
unicode = 0057;
},
{
glyphname = Wacute;
layers = (
{
layerId = "72C12618-BAE4-4A2B-8370-CBFBBD108EB7";
paths = (
{
closed = 1;
nodes = (
"548 942 LINE",
"509 794 LINE",
"531 794 LINE",
"605 913 LINE SMOOTH",
"615 929 OFFCURVE",
"622 946 OFFCURVE",
"622 962 CURVE",
"622 986 OFFCURVE",
"607 998 OFFCURVE",
"591 998 CURVE",
"575 998 OFFCURVE",
"559 984 OFFCURVE",
"548 942 CURVE"
);
},
{
closed = 1;
nodes = (
"1040 683 LINE",
"1064 687 LINE",
"1064 713 LINE",
"958 710 LINE",
"826 713 LINE",
"826 687 LINE",
"859 683 LINE SMOOTH",
"897 678 OFFCURVE",
"918 668 OFFCURVE",
"918 639 CURVE",
"918 631 OFFCURVE",
"916 621 OFFCURVE",
"913 610 CURVE",
"766 129 LINE",
"599 582 LINE SMOOTH",
"592 600 OFFCURVE",
"589 616 OFFCURVE",
"589 629 CURVE",
"589 662 OFFCURVE",
"611 681 OFFCURVE",
"654 684 CURVE",
"692 687 LINE",
"690 713 LINE",
"653 711 LINE SMOOTH",
"617 709 OFFCURVE",
"573 704 OFFCURVE",
"552 664 CURVE",
"542 688 OFFCURVE",
"514 703 OFFCURVE",
"464 708 CURVE",
"422 713 LINE",
"418 687 LINE",
"458 681 LINE SMOOTH",
"497 675 OFFCURVE",
"521 660 OFFCURVE",
"521 629 CURVE",
"521 621 OFFCURVE",
"519 611 OFFCURVE",
"515 599 CURVE",
"341 126 LINE",
"188 598 LINE SMOOTH",
"183 612 OFFCURVE",
"181 623 OFFCURVE",
"181 633 CURVE",
"181 674 OFFCURVE",
"219 681 OFFCURVE",
"255 685 CURVE",
"283 688 LINE",
"283 713 LINE",
"135 710 LINE",
"-15 713 LINE",
"-15 688 LINE",
"8 683 LINE SMOOTH",
"51 674 OFFCURVE",
"81 651 OFFCURVE",
"99 594 CURVE",
"295 -9 LINE",
"327 -9 LINE",
"526 530 LINE",
"728 -9 LINE",
"760 -9 LINE",
"952 621 LINE SMOOTH",
"963 658 OFFCURVE",
"996 676 OFFCURVE",
"1040 683 CURVE"
);
}
);
width = 1049;
}
);
leftKerningGroup = V;
note = "\012		Wacute\012  ";
rightKerningGroup = V;
unicode = 1E82;
},
{
glyphname = Wcircumflex;
layers = (
{
layerId = "72C12618-BAE4-4A2B-8370-CBFBBD108EB7";
paths = (
{
closed = 1;
nodes = (
"532 940 LINE",
"438 761 LINE",
"462 761 LINE",
"540 853 LINE",
"546 853 LINE",
"624 761 LINE",
"648 761 LINE",
"554 940 LINE"
);
},
{
closed = 1;
nodes = (
"1040 683 LINE",
"1064 687 LINE",
"1064 713 LINE",
"958 710 LINE",
"826 713 LINE",
"826 687 LINE",
"859 683 LINE SMOOTH",
"897 678 OFFCURVE",
"918 668 OFFCURVE",
"918 639 CURVE",
"918 631 OFFCURVE",
"916 621 OFFCURVE",
"913 610 CURVE",
"766 129 LINE",
"599 582 LINE SMOOTH",
"592 600 OFFCURVE",
"589 616 OFFCURVE",
"589 629 CURVE",
"589 662 OFFCURVE",
"611 681 OFFCURVE",
"654 684 CURVE",
"692 687 LINE",
"690 713 LINE",
"653 711 LINE SMOOTH",
"617 709 OFFCURVE",
"573 704 OFFCURVE",
"552 664 CURVE",
"542 688 OFFCURVE",
"514 703 OFFCURVE",
"464 708 CURVE",
"422 713 LINE",
"418 687 LINE",
"458 681 LINE SMOOTH",
"497 675 OFFCURVE",
"521 660 OFFCURVE",
"521 629 CURVE",
"521 621 OFFCURVE",
"519 611 OFFCURVE",
"515 599 CURVE",
"341 126 LINE",
"188 598 LINE SMOOTH",
"183 612 OFFCURVE",
"181 623 OFFCURVE",
"181 633 CURVE",
"181 674 OFFCURVE",
"219 681 OFFCURVE",
"255 685 CURVE",
"283 688 LINE",
"283 713 LINE",
"135 710 LINE",
"-15 713 LINE",
"-15 688 LINE",
"8 683 LINE SMOOTH",
"51 674 OFFCURVE",
"81 651 OFFCURVE",
"99 594 CURVE",
"295 -9 LINE",
"327 -9 LINE",
"526 530 LINE",
"728 -9 LINE",
"760 -9 LINE",
"952 621 LINE SMOOTH",
"963 658 OFFCURVE",
"996 676 OFFCURVE",
"1040 683 CURVE"
);
}
);
width = 1049;
}
);
leftKerningGroup = V;
note = "\012		Wcircumflex\012  ";
rightKerningGroup = V;
unicode = 0174;
},
{
glyphname = Wdieresis;
layers = (
{
layerId = "72C12618-BAE4-4A2B-8370-CBFBBD108EB7";
paths = (
{
closed = 1;
nodes = (
"453 822 LINE",
"487 822 OFFCURVE",
"503 847 OFFCURVE",
"503 879 CURVE",
"503 910 OFFCURVE",
"487 935 OFFCURVE",
"453 935 CURVE",
"421 935 OFFCURVE",
"402 910 OFFCURVE",
"402 879 CURVE",
"402 847 OFFCURVE",
"421 822 OFFCURVE",
"453 822 CURVE"
);
},
{
closed = 1;
nodes = (
"643 822 LINE",
"677 822 OFFCURVE",
"693 847 OFFCURVE",
"693 879 CURVE",
"693 910 OFFCURVE",
"677 935 OFFCURVE",
"643 935 CURVE",
"611 935 OFFCURVE",
"592 910 OFFCURVE",
"592 879 CURVE",
"592 847 OFFCURVE",
"611 822 OFFCURVE",
"643 822 CURVE"
);
},
{
closed = 1;
nodes = (
"1040 683 LINE",
"1064 687 LINE",
"1064 713 LINE",
"958 710 LINE",
"826 713 LINE",
"826 687 LINE",
"859 683 LINE SMOOTH",
"897 678 OFFCURVE",
"918 668 OFFCURVE",
"918 639 CURVE",
"918 631 OFFCURVE",
"916 621 OFFCURVE",
"913 610 CURVE",
"766 129 LINE",
"599 582 LINE SMOOTH",
"592 600 OFFCURVE",
"589 616 OFFCURVE",
"589 629 CURVE",
"589 662 OFFCURVE",
"611 681 OFFCURVE",
"654 684 CURVE",
"692 687 LINE",
"690 713 LINE",
"653 711 LINE SMOOTH",
"617 709 OFFCURVE",
"573 704 OFFCURVE",
"552 664 CURVE",
"542 688 OFFCURVE",
"514 703 OFFCURVE",
"464 708 CURVE",
"422 713 LINE",
"418 687 LINE",
"458 681 LINE SMOOTH",
"497 675 OFFCURVE",
"521 660 OFFCURVE",
"521 629 CURVE",
"521 621 OFFCURVE",
"519 611 OFFCURVE",
"515 599 CURVE",
"341 126 LINE",
"188 598 LINE SMOOTH",
"183 612 OFFCURVE",
"181 623 OFFCURVE",
"181 633 CURVE",
"181 674 OFFCURVE",
"219 681 OFFCURVE",
"255 685 CURVE",
"283 688 LINE",
"283 713 LINE",
"135 710 LINE",
"-15 713 LINE",
"-15 688 LINE",
"8 683 LINE SMOOTH",
"51 674 OFFCURVE",
"81 651 OFFCURVE",
"99 594 CURVE",
"295 -9 LINE",
"327 -9 LINE",
"526 530 LINE",
"728 -9 LINE",
"760 -9 LINE",
"952 621 LINE SMOOTH",
"963 658 OFFCURVE",
"996 676 OFFCURVE",
"1040 683 CURVE"
);
}
);
width = 1049;
}
);
leftKerningGroup = V;
note = "\012		Wdieresis\012  ";
rightKerningGroup = V;
unicode = 1E84;
},
{
glyphname = Wgrave;
layers = (
{
layerId = "72C12618-BAE4-4A2B-8370-CBFBBD108EB7";
paths = (
{
closed = 1;
nodes = (
"481 913 LINE",
"555 794 LINE",
"577 794 LINE",
"538 942 LINE SMOOTH",
"527 984 OFFCURVE",
"511 998 OFFCURVE",
"495 998 CURVE",
"479 998 OFFCURVE",
"464 986 OFFCURVE",
"464 962 CURVE",
"464 946 OFFCURVE",
"471 929 OFFCURVE",
"481 913 CURVE"
);
},
{
closed = 1;
nodes = (
"1040 683 LINE",
"1064 687 LINE",
"1064 713 LINE",
"958 710 LINE",
"826 713 LINE",
"826 687 LINE",
"859 683 LINE SMOOTH",
"897 678 OFFCURVE",
"918 668 OFFCURVE",
"918 639 CURVE",
"918 631 OFFCURVE",
"916 621 OFFCURVE",
"913 610 CURVE",
"766 129 LINE",
"599 582 LINE SMOOTH",
"592 600 OFFCURVE",
"589 616 OFFCURVE",
"589 629 CURVE",
"589 662 OFFCURVE",
"611 681 OFFCURVE",
"654 684 CURVE",
"692 687 LINE",
"690 713 LINE",
"653 711 LINE SMOOTH",
"617 709 OFFCURVE",
"573 704 OFFCURVE",
"552 664 CURVE",
"542 688 OFFCURVE",
"514 703 OFFCURVE",
"464 708 CURVE",
"422 713 LINE",
"418 687 LINE",
"458 681 LINE SMOOTH",
"497 675 OFFCURVE",
"521 660 OFFCURVE",
"521 629 CURVE",
"521 621 OFFCURVE",
"519 611 OFFCURVE",
"515 599 CURVE",
"341 126 LINE",
"188 598 LINE SMOOTH",
"183 612 OFFCURVE",
"181 623 OFFCURVE",
"181 633 CURVE",
"181 674 OFFCURVE",
"219 681 OFFCURVE",
"255 685 CURVE",
"283 688 LINE",
"283 713 LINE",
"135 710 LINE",
"-15 713 LINE",
"-15 688 LINE",
"8 683 LINE SMOOTH",
"51 674 OFFCURVE",
"81 651 OFFCURVE",
"99 594 CURVE",
"295 -9 LINE",
"327 -9 LINE",
"526 530 LINE",
"728 -9 LINE",
"760 -9 LINE",
"952 621 LINE SMOOTH",
"963 658 OFFCURVE",
"996 676 OFFCURVE",
"1040 683 CURVE"
);
}
);
width = 1049;
}
);
leftKerningGroup = V;
note = "\012		Wgrave\012  ";
rightKerningGroup = V;
unicode = 1E80;
},
{
glyphname = X;
layers = (
{
layerId = "72C12618-BAE4-4A2B-8370-CBFBBD108EB7";
paths = (
{
closed = 1;
nodes = (
"568 0 LINE",
"717 -3 LINE",
"717 22 LINE",
"687 27 LINE SMOOTH",
"645 34 OFFCURVE",
"608 56 OFFCURVE",
"566 119 CURVE",
"392 380 LINE",
"539 583 LINE SMOOTH",
"592 657 OFFCURVE",
"639 682 OFFCURVE",
"677 686 CURVE",
"698 688 LINE",
"698 713 LINE",
"582 710 LINE",
"450 713 LINE",
"450 688 LINE",
"483 684 LINE SMOOTH",
"514 680 OFFCURVE",
"527 666 OFFCURVE",
"527 646 CURVE",
"527 633 OFFCURVE",
"521 617 OFFCURVE",
"509 600 CURVE",
"372 409 LINE",
"260 577 LINE SMOOTH",
"240 607 OFFCURVE",
"230 630 OFFCURVE",
"230 647 CURVE",
"230 668 OFFCURVE",
"247 679 OFFCURVE",
"282 683 CURVE",
"324 688 LINE",
"324 713 LINE",
"169 710 LINE",
"4 713 LINE",
"4 688 LINE",
"24 684 LINE SMOOTH",
"75 674 OFFCURVE",
"104 664 OFFCURVE",
"150 594 CURVE",
"314 348 LINE",
"152 126 LINE SMOOTH",
"90 40 OFFCURVE",
"50 31 OFFCURVE",
"11 25 CURVE",
"-10 22 LINE",
"-10 -3 LINE",
"114 0 LINE",
"238 -3 LINE",
"238 22 LINE",
"200 26 LINE SMOOTH",
"178 28 OFFCURVE",
"166 42 OFFCURVE",
"166 62 CURVE",
"166 75 OFFCURVE",
"170 92 OFFCURVE",
"182 109 CURVE",
"333 319 LINE",
"459 129 LINE SMOOTH",
"476 103 OFFCURVE",
"485 81 OFFCURVE",
"485 64 CURVE",
"485 43 OFFCURVE",
"470 29 OFFCURVE",
"438 26 CURVE",
"397 22 LINE",
"397 -3 LINE"
);
}
);
width = 707;
}
);
leftKerningGroup = X;
note = "\012		X\012  ";
rightKerningGroup = X;
unicode = 0058;
},
{
glyphname = Y;
layers = (
{
layerId = "72C12618-BAE4-4A2B-8370-CBFBBD108EB7";
paths = (
{
closed = 1;
nodes = (
"655 683 LINE",
"682 688 LINE",
"682 713 LINE",
"576 708 LINE",
"444 713 LINE",
"444 688 LINE",
"473 685 LINE SMOOTH",
"506 682 OFFCURVE",
"530 672 OFFCURVE",
"530 644 CURVE",
"530 629 OFFCURVE",
"523 609 OFFCURVE",
"508 582 CURVE",
"363 328 LINE",
"217 582 LINE SMOOTH",
"202 608 OFFCURVE",
"195 628 OFFCURVE",
"195 643 CURVE",
"195 670 OFFCURVE",
"217 682 OFFCURVE",
"250 685 CURVE",
"282 688 LINE",
"282 713 LINE",
"132 710 LINE",
"-20 713 LINE",
"-20 688 LINE",
"9 682 LINE SMOOTH",
"63 671 OFFCURVE",
"88 647 OFFCURVE",
"119 593 CURVE",
"294 287 LINE",
"294 133 LINE SMOOTH",
"294 34 OFFCURVE",
"277 32 OFFCURVE",
"208 24 CURVE",
"188 22 LINE",
"188 -3 LINE",
"336 0 LINE",
"337 0 LINE",
"485 -3 LINE",
"485 22 LINE",
"465 24 LINE SMOOTH",
"396 32 OFFCURVE",
"379 34 OFFCURVE",
"379 133 CURVE",
"379 288 LINE",
"561 606 LINE SMOOTH",
"589 655 OFFCURVE",
"612 675 OFFCURVE",
"655 683 CURVE"
);
}
);
width = 662;
}
);
leftKerningGroup = Y;
note = "\012		Y\012  ";
rightKerningGroup = Y;
unicode = 0059;
},
{
glyphname = Yacute;
layers = (
{
layerId = "72C12618-BAE4-4A2B-8370-CBFBBD108EB7";
paths = (
{
closed = 1;
nodes = (
"379 942 LINE",
"340 794 LINE",
"362 794 LINE",
"436 913 LINE SMOOTH",
"446 929 OFFCURVE",
"453 946 OFFCURVE",
"453 962 CURVE",
"453 986 OFFCURVE",
"438 998 OFFCURVE",
"422 998 CURVE",
"406 998 OFFCURVE",
"390 984 OFFCURVE",
"379 942 CURVE"
);
},
{
closed = 1;
nodes = (
"655 683 LINE",
"682 688 LINE",
"682 713 LINE",
"576 708 LINE",
"444 713 LINE",
"444 688 LINE",
"473 685 LINE SMOOTH",
"506 682 OFFCURVE",
"530 672 OFFCURVE",
"530 644 CURVE",
"530 629 OFFCURVE",
"523 609 OFFCURVE",
"508 582 CURVE",
"363 328 LINE",
"217 582 LINE SMOOTH",
"202 608 OFFCURVE",
"195 628 OFFCURVE",
"195 643 CURVE",
"195 670 OFFCURVE",
"217 682 OFFCURVE",
"250 685 CURVE",
"282 688 LINE",
"282 713 LINE",
"132 710 LINE",
"-20 713 LINE",
"-20 688 LINE",
"9 682 LINE SMOOTH",
"63 671 OFFCURVE",
"88 647 OFFCURVE",
"119 593 CURVE",
"294 287 LINE",
"294 133 LINE SMOOTH",
"294 34 OFFCURVE",
"277 32 OFFCURVE",
"208 24 CURVE",
"188 22 LINE",
"188 -3 LINE",
"336 0 LINE",
"337 0 LINE",
"485 -3 LINE",
"485 22 LINE",
"465 24 LINE SMOOTH",
"396 32 OFFCURVE",
"379 34 OFFCURVE",
"379 133 CURVE",
"379 288 LINE",
"561 606 LINE SMOOTH",
"589 655 OFFCURVE",
"612 675 OFFCURVE",
"655 683 CURVE"
);
}
);
width = 662;
}
);
leftKerningGroup = Y;
note = "\012		Yacute\012  ";
rightKerningGroup = Y;
unicode = 00DD;
},
{
glyphname = Ycircumflex;
layers = (
{
layerId = "72C12618-BAE4-4A2B-8370-CBFBBD108EB7";
paths = (
{
closed = 1;
nodes = (
"364 984 LINE",
"270 794 LINE",
"294 794 LINE",
"372 892 LINE",
"378 892 LINE",
"456 794 LINE",
"480 794 LINE",
"386 984 LINE"
);
},
{
closed = 1;
nodes = (
"655 683 LINE",
"682 688 LINE",
"682 713 LINE",
"576 708 LINE",
"444 713 LINE",
"444 688 LINE",
"473 685 LINE SMOOTH",
"506 682 OFFCURVE",
"530 672 OFFCURVE",
"530 644 CURVE",
"530 629 OFFCURVE",
"523 609 OFFCURVE",
"508 582 CURVE",
"363 328 LINE",
"217 582 LINE SMOOTH",
"202 608 OFFCURVE",
"195 628 OFFCURVE",
"195 643 CURVE",
"195 670 OFFCURVE",
"217 682 OFFCURVE",
"250 685 CURVE",
"282 688 LINE",
"282 713 LINE",
"132 710 LINE",
"-20 713 LINE",
"-20 688 LINE",
"9 682 LINE SMOOTH",
"63 671 OFFCURVE",
"88 647 OFFCURVE",
"119 593 CURVE",
"294 287 LINE",
"294 133 LINE SMOOTH",
"294 34 OFFCURVE",
"277 32 OFFCURVE",
"208 24 CURVE",
"188 22 LINE",
"188 -3 LINE",
"336 0 LINE",
"337 0 LINE",
"485 -3 LINE",
"485 22 LINE",
"465 24 LINE SMOOTH",
"396 32 OFFCURVE",
"379 34 OFFCURVE",
"379 133 CURVE",
"379 288 LINE",
"561 606 LINE SMOOTH",
"589 655 OFFCURVE",
"612 675 OFFCURVE",
"655 683 CURVE"
);
}
);
width = 662;
}
);
leftKerningGroup = Y;
note = "\012		Ycircumflex\012  ";
rightKerningGroup = Y;
unicode = 0176;
},
{
glyphname = Ydieresis;
layers = (
{
layerId = "72C12618-BAE4-4A2B-8370-CBFBBD108EB7";
paths = (
{
closed = 1;
nodes = (
"284 822 LINE",
"318 822 OFFCURVE",
"334 847 OFFCURVE",
"334 879 CURVE",
"334 910 OFFCURVE",
"318 935 OFFCURVE",
"284 935 CURVE",
"252 935 OFFCURVE",
"233 910 OFFCURVE",
"233 879 CURVE",
"233 847 OFFCURVE",
"252 822 OFFCURVE",
"284 822 CURVE"
);
},
{
closed = 1;
nodes = (
"474 822 LINE",
"508 822 OFFCURVE",
"524 847 OFFCURVE",
"524 879 CURVE",
"524 910 OFFCURVE",
"508 935 OFFCURVE",
"474 935 CURVE",
"442 935 OFFCURVE",
"423 910 OFFCURVE",
"423 879 CURVE",
"423 847 OFFCURVE",
"442 822 OFFCURVE",
"474 822 CURVE"
);
},
{
closed = 1;
nodes = (
"655 683 LINE",
"682 688 LINE",
"682 713 LINE",
"576 708 LINE",
"444 713 LINE",
"444 688 LINE",
"473 685 LINE SMOOTH",
"506 682 OFFCURVE",
"530 672 OFFCURVE",
"530 644 CURVE",
"530 629 OFFCURVE",
"523 609 OFFCURVE",
"508 582 CURVE",
"363 328 LINE",
"217 582 LINE SMOOTH",
"202 608 OFFCURVE",
"195 628 OFFCURVE",
"195 643 CURVE",
"195 670 OFFCURVE",
"217 682 OFFCURVE",
"250 685 CURVE",
"282 688 LINE",
"282 713 LINE",
"132 710 LINE",
"-20 713 LINE",
"-20 688 LINE",
"9 682 LINE SMOOTH",
"63 671 OFFCURVE",
"88 647 OFFCURVE",
"119 593 CURVE",
"294 287 LINE",
"294 133 LINE SMOOTH",
"294 34 OFFCURVE",
"277 32 OFFCURVE",
"208 24 CURVE",
"188 22 LINE",
"188 -3 LINE",
"336 0 LINE",
"337 0 LINE",
"485 -3 LINE",
"485 22 LINE",
"465 24 LINE SMOOTH",
"396 32 OFFCURVE",
"379 34 OFFCURVE",
"379 133 CURVE",
"379 288 LINE",
"561 606 LINE SMOOTH",
"589 655 OFFCURVE",
"612 675 OFFCURVE",
"655 683 CURVE"
);
}
);
width = 662;
}
);
leftKerningGroup = Y;
note = "\012		Ydieresis\012  ";
rightKerningGroup = Y;
unicode = 0178;
},
{
glyphname = Ygrave;
layers = (
{
layerId = "72C12618-BAE4-4A2B-8370-CBFBBD108EB7";
paths = (
{
closed = 1;
nodes = (
"312 913 LINE",
"386 794 LINE",
"408 794 LINE",
"369 942 LINE SMOOTH",
"358 984 OFFCURVE",
"342 998 OFFCURVE",
"326 998 CURVE",
"310 998 OFFCURVE",
"295 986 OFFCURVE",
"295 962 CURVE",
"295 946 OFFCURVE",
"302 929 OFFCURVE",
"312 913 CURVE"
);
},
{
closed = 1;
nodes = (
"655 683 LINE",
"682 688 LINE",
"682 713 LINE",
"576 708 LINE",
"444 713 LINE",
"444 688 LINE",
"473 685 LINE SMOOTH",
"506 682 OFFCURVE",
"530 672 OFFCURVE",
"530 644 CURVE",
"530 629 OFFCURVE",
"523 609 OFFCURVE",
"508 582 CURVE",
"363 328 LINE",
"217 582 LINE SMOOTH",
"202 608 OFFCURVE",
"195 628 OFFCURVE",
"195 643 CURVE",
"195 670 OFFCURVE",
"217 682 OFFCURVE",
"250 685 CURVE",
"282 688 LINE",
"282 713 LINE",
"132 710 LINE",
"-20 713 LINE",
"-20 688 LINE",
"9 682 LINE SMOOTH",
"63 671 OFFCURVE",
"88 647 OFFCURVE",
"119 593 CURVE",
"294 287 LINE",
"294 133 LINE SMOOTH",
"294 34 OFFCURVE",
"277 32 OFFCURVE",
"208 24 CURVE",
"188 22 LINE",
"188 -3 LINE",
"336 0 LINE",
"337 0 LINE",
"485 -3 LINE",
"485 22 LINE",
"465 24 LINE SMOOTH",
"396 32 OFFCURVE",
"379 34 OFFCURVE",
"379 133 CURVE",
"379 288 LINE",
"561 606 LINE SMOOTH",
"589 655 OFFCURVE",
"612 675 OFFCURVE",
"655 683 CURVE"
);
}
);
width = 662;
}
);
leftKerningGroup = Y;
note = "\012		Ygrave\012  ";
rightKerningGroup = Y;
unicode = 1EF2;
},
{
glyphname = Z;
layers = (
{
layerId = "72C12618-BAE4-4A2B-8370-CBFBBD108EB7";
paths = (
{
closed = 1;
nodes = (
"589 -3 LINE",
"589 100 LINE",
"599 267 LINE",
"575 267 LINE",
"554 115 OFFCURVE",
"529 33 OFFCURVE",
"378 32 CURVE",
"134 30 LINE",
"585 679 LINE",
"585 713 LINE",
"361 710 LINE",
"66 712 LINE",
"64 659 LINE",
"53 526 LINE",
"77 526 LINE",
"93 640 OFFCURVE",
"107 676 OFFCURVE",
"289 678 CURVE",
"485 680 LINE",
"30 26 LINE",
"30 0 LINE",
"383 0 LINE"
);
}
);
width = 639;
}
);
leftKerningGroup = B;
note = "\012		Z\012  ";
rightKerningGroup = E;
unicode = 005A;
},
{
glyphname = Zacute;
layers = (
{
layerId = "72C12618-BAE4-4A2B-8370-CBFBBD108EB7";
paths = (
{
closed = 1;
nodes = (
"313 942 LINE",
"274 794 LINE",
"296 794 LINE",
"370 913 LINE SMOOTH",
"380 929 OFFCURVE",
"387 946 OFFCURVE",
"387 962 CURVE",
"387 986 OFFCURVE",
"372 998 OFFCURVE",
"356 998 CURVE",
"340 998 OFFCURVE",
"324 984 OFFCURVE",
"313 942 CURVE"
);
},
{
closed = 1;
nodes = (
"589 -3 LINE",
"589 100 LINE",
"599 267 LINE",
"575 267 LINE",
"554 115 OFFCURVE",
"529 33 OFFCURVE",
"378 32 CURVE",
"134 30 LINE",
"585 679 LINE",
"585 713 LINE",
"361 710 LINE",
"66 712 LINE",
"64 659 LINE",
"53 526 LINE",
"77 526 LINE",
"93 640 OFFCURVE",
"107 676 OFFCURVE",
"289 678 CURVE",
"485 680 LINE",
"30 26 LINE",
"30 0 LINE",
"383 0 LINE"
);
}
);
width = 639;
}
);
leftKerningGroup = B;
note = "\012		Zacute\012  ";
rightKerningGroup = E;
unicode = 0179;
},
{
glyphname = Zcaron;
layers = (
{
layerId = "72C12618-BAE4-4A2B-8370-CBFBBD108EB7";
paths = (
{
closed = 1;
nodes = (
"229 940 LINE",
"205 940 LINE",
"299 760 LINE",
"321 760 LINE",
"415 940 LINE",
"391 940 LINE",
"313 847 LINE",
"307 847 LINE"
);
},
{
closed = 1;
nodes = (
"589 -3 LINE",
"589 100 LINE",
"599 267 LINE",
"575 267 LINE",
"554 115 OFFCURVE",
"529 33 OFFCURVE",
"378 32 CURVE",
"134 30 LINE",
"585 679 LINE",
"585 713 LINE",
"361 710 LINE",
"66 712 LINE",
"64 659 LINE",
"53 526 LINE",
"77 526 LINE",
"93 640 OFFCURVE",
"107 676 OFFCURVE",
"289 678 CURVE",
"485 680 LINE",
"30 26 LINE",
"30 0 LINE",
"383 0 LINE"
);
}
);
width = 639;
}
);
leftKerningGroup = B;
note = "\012		Zcaron\012  ";
rightKerningGroup = E;
unicode = 017D;
},
{
glyphname = Zdotaccent;
layers = (
{
layerId = "72C12618-BAE4-4A2B-8370-CBFBBD108EB7";
paths = (
{
closed = 1;
nodes = (
"306 839 LINE",
"344 839 OFFCURVE",
"362 866 OFFCURVE",
"362 900 CURVE",
"362 934 OFFCURVE",
"344 961 OFFCURVE",
"306 961 CURVE",
"271 961 OFFCURVE",
"250 934 OFFCURVE",
"250 900 CURVE",
"250 866 OFFCURVE",
"271 839 OFFCURVE",
"306 839 CURVE"
);
},
{
closed = 1;
nodes = (
"589 -3 LINE",
"589 100 LINE",
"599 267 LINE",
"575 267 LINE",
"554 115 OFFCURVE",
"529 33 OFFCURVE",
"378 32 CURVE",
"134 30 LINE",
"585 679 LINE",
"585 713 LINE",
"361 710 LINE",
"66 712 LINE",
"64 659 LINE",
"53 526 LINE",
"77 526 LINE",
"93 640 OFFCURVE",
"107 676 OFFCURVE",
"289 678 CURVE",
"485 680 LINE",
"30 26 LINE",
"30 0 LINE",
"383 0 LINE"
);
}
);
width = 639;
}
);
leftKerningGroup = B;
note = "\012		Zdotaccent\012  ";
rightKerningGroup = E;
unicode = 017B;
},
{
glyphname = uni0122;
layers = (
{
layerId = "72C12618-BAE4-4A2B-8370-CBFBBD108EB7";
paths = (
{
closed = 1;
nodes = (
"394 -11 LINE",
"493 -11 OFFCURVE",
"541 23 OFFCURVE",
"576 48 CURVE",
"596 63 OFFCURVE",
"612 75 OFFCURVE",
"633 75 CURVE",
"645 75 OFFCURVE",
"662 67 OFFCURVE",
"680 39 CURVE",
"703 54 LINE",
"689 79 LINE SMOOTH",
"679 97 OFFCURVE",
"667 125 OFFCURVE",
"667 156 CURVE",
"667 174 LINE SMOOTH",
"667 237 OFFCURVE",
"692 258 OFFCURVE",
"728 261 CURVE",
"773 265 LINE",
"773 289 LINE",
"619 285 LINE",
"453 289 LINE",
"453 265 LINE",
"496 261 LINE SMOOTH",
"569 254 OFFCURVE",
"592 233 OFFCURVE",
"592 174 CURVE",
"592 146 LINE SMOOTH",
"592 81 OFFCURVE",
"511 19 OFFCURVE",
"400 19 CURVE",
"250 19 OFFCURVE",
"164 126 OFFCURVE",
"164 355 CURVE",
"164 572 OFFCURVE",
"241 694 OFFCURVE",
"397 694 CURVE",
"504 694 OFFCURVE",
"617 614 OFFCURVE",
"621 478 CURVE",
"646 478 LINE",
"644 595 LINE",
"646 710 LINE",
"621 710 LINE",
"621 694 OFFCURVE",
"614 673 OFFCURVE",
"596 673 CURVE",
"579 673 OFFCURVE",
"570 677 OFFCURVE",
"536 692 CURVE",
"506 705 OFFCURVE",
"459 724 OFFCURVE",
"400 724 CURVE",
"218 724 OFFCURVE",
"62 572 OFFCURVE",
"62 355 CURVE",
"62 131 OFFCURVE",
"210 -11 OFFCURVE",
"394 -11 CURVE"
);
},
{
closed = 1;
nodes = (
"383 -273 LINE",
"393 -288 LINE",
"436 -260 OFFCURVE",
"468 -230 OFFCURVE",
"468 -169 CURVE",
"468 -119 OFFCURVE",
"444 -87 OFFCURVE",
"408 -87 CURVE",
"379 -87 OFFCURVE",
"359 -107 OFFCURVE",
"359 -136 CURVE",
"359 -163 OFFCURVE",
"377 -181 OFFCURVE",
"404 -181 CURVE",
"422 -181 OFFCURVE",
"439 -167 OFFCURVE",
"439 -153 CURVE",
"439 -146 OFFCURVE",
"436 -141 OFFCURVE",
"436 -138 CURVE",
"436 -138 OFFCURVE",
"436 -137 OFFCURVE",
"437 -136 CURVE",
"447 -132 OFFCURVE",
"452 -153 OFFCURVE",
"452 -171 CURVE",
"452 -218 OFFCURVE",
"419 -248 OFFCURVE",
"383 -273 CURVE"
);
}
);
width = 785;
}
);
leftKerningGroup = C;
note = "\012		uni0122\012  ";
rightKerningGroup = G;
unicode = 0122;
},
{
glyphname = uni0136;
layers = (
{
layerId = "72C12618-BAE4-4A2B-8370-CBFBBD108EB7";
paths = (
{
closed = 1;
nodes = (
"609 0 LINE",
"761 -3 LINE",
"761 22 LINE",
"740 24 LINE SMOOTH",
"668 31 OFFCURVE",
"626 82 OFFCURVE",
"558 171 CURVE",
"366 422 LINE",
"522 606 LINE SMOOTH",
"560 651 OFFCURVE",
"594 679 OFFCURVE",
"634 684 CURVE",
"668 688 LINE",
"668 713 LINE",
"547 710 LINE",
"419 713 LINE",
"419 687 LINE",
"451 684 LINE SMOOTH",
"480 681 OFFCURVE",
"497 671 OFFCURVE",
"497 652 CURVE",
"497 635 OFFCURVE",
"485 611 OFFCURVE",
"457 578 CURVE",
"227 309 LINE",
"227 577 LINE SMOOTH",
"227 667 OFFCURVE",
"240 678 OFFCURVE",
"301 685 CURVE",
"321 687 LINE",
"321 713 LINE",
"188 710 LINE",
"40 713 LINE",
"40 688 LINE",
"60 686 LINE SMOOTH",
"129 678 OFFCURVE",
"146 676 OFFCURVE",
"146 577 CURVE",
"146 133 LINE SMOOTH",
"146 34 OFFCURVE",
"129 32 OFFCURVE",
"60 24 CURVE",
"40 22 LINE",
"40 -3 LINE",
"188 0 LINE",
"189 0 LINE",
"324 -3 LINE",
"324 22 LINE",
"306 24 LINE SMOOTH",
"242 32 OFFCURVE",
"227 34 OFFCURVE",
"227 133 CURVE",
"227 258 LINE",
"307 352 LINE",
"497 107 LINE SMOOTH",
"514 85 OFFCURVE",
"524 66 OFFCURVE",
"524 52 CURVE",
"524 36 OFFCURVE",
"510 25 OFFCURVE",
"476 23 CURVE",
"461 22 LINE",
"461 -3 LINE"
);
},
{
closed = 1;
nodes = (
"402 -87 LINE",
"373 -87 OFFCURVE",
"353 -107 OFFCURVE",
"353 -136 CURVE",
"353 -163 OFFCURVE",
"371 -181 OFFCURVE",
"398 -181 CURVE",
"416 -181 OFFCURVE",
"433 -167 OFFCURVE",
"433 -153 CURVE",
"433 -146 OFFCURVE",
"430 -141 OFFCURVE",
"430 -138 CURVE",
"430 -138 OFFCURVE",
"430 -137 OFFCURVE",
"431 -136 CURVE",
"441 -132 OFFCURVE",
"446 -153 OFFCURVE",
"446 -171 CURVE",
"446 -218 OFFCURVE",
"413 -248 OFFCURVE",
"377 -273 CURVE",
"387 -288 LINE",
"430 -260 OFFCURVE",
"462 -230 OFFCURVE",
"462 -169 CURVE",
"462 -119 OFFCURVE",
"438 -87 OFFCURVE",
"402 -87 CURVE"
);
}
);
width = 741;
}
);
leftKerningGroup = B;
note = "\012		uni0136\012  ";
rightKerningGroup = K;
unicode = 0136;
},
{
glyphname = uni013B;
layers = (
{
layerId = "72C12618-BAE4-4A2B-8370-CBFBBD108EB7";
paths = (
{
closed = 1;
nodes = (
"60 24 LINE",
"40 22 LINE",
"40 -3 LINE",
"188 0 LINE",
"606 -3 LINE",
"616 210 LINE",
"594 210 LINE",
"584 92 OFFCURVE",
"539 29 OFFCURVE",
"423 29 CURVE",
"348 29 LINE SMOOTH",
"235 29 OFFCURVE",
"231 73 OFFCURVE",
"231 172 CURVE",
"231 589 LINE SMOOTH",
"231 679 OFFCURVE",
"245 681 OFFCURVE",
"303 688 CURVE",
"319 690 LINE",
"319 713 LINE",
"190 710 LINE",
"40 713 LINE",
"40 688 LINE",
"60 686 LINE SMOOTH",
"129 678 OFFCURVE",
"146 676 OFFCURVE",
"146 577 CURVE",
"146 133 LINE SMOOTH",
"146 34 OFFCURVE",
"129 32 OFFCURVE",
"60 24 CURVE"
);
},
{
closed = 1;
nodes = (
"343 -273 LINE",
"353 -288 LINE",
"396 -260 OFFCURVE",
"428 -230 OFFCURVE",
"428 -169 CURVE",
"428 -119 OFFCURVE",
"404 -87 OFFCURVE",
"368 -87 CURVE",
"339 -87 OFFCURVE",
"319 -107 OFFCURVE",
"319 -136 CURVE",
"319 -163 OFFCURVE",
"337 -181 OFFCURVE",
"364 -181 CURVE",
"382 -181 OFFCURVE",
"399 -167 OFFCURVE",
"399 -153 CURVE",
"399 -146 OFFCURVE",
"396 -141 OFFCURVE",
"396 -138 CURVE",
"396 -138 OFFCURVE",
"396 -137 OFFCURVE",
"397 -136 CURVE",
"407 -132 OFFCURVE",
"412 -153 OFFCURVE",
"412 -171 CURVE",
"412 -218 OFFCURVE",
"379 -248 OFFCURVE",
"343 -273 CURVE"
);
}
);
width = 651;
}
);
leftKerningGroup = B;
note = "\012		uni013B\012  ";
rightKerningGroup = L;
unicode = 013B;
},
{
glyphname = uni0145;
layers = (
{
layerId = "72C12618-BAE4-4A2B-8370-CBFBBD108EB7";
paths = (
{
closed = 1;
nodes = (
"741 686 LINE",
"761 688 LINE",
"761 713 LINE",
"639 710 LINE",
"509 713 LINE",
"509 688 LINE",
"529 686 LINE SMOOTH",
"598 679 OFFCURVE",
"615 676 OFFCURVE",
"615 577 CURVE",
"615 199 LINE",
"545 289 OFFCURVE",
"302 610 OFFCURVE",
"229 710 CURVE",
"35 713 LINE",
"35 687 LINE",
"65 687 LINE SMOOTH",
"111 687 OFFCURVE",
"133 664 OFFCURVE",
"145 649 CURVE",
"145 133 LINE SMOOTH",
"145 33 OFFCURVE",
"128 30 OFFCURVE",
"59 23 CURVE",
"39 21 LINE",
"39 -4 LINE",
"163 0 LINE",
"291 -4 LINE",
"291 21 LINE",
"271 23 LINE SMOOTH",
"202 30 OFFCURVE",
"185 33 OFFCURVE",
"185 133 CURVE",
"185 606 LINE",
"289 483 OFFCURVE",
"560 131 OFFCURVE",
"625 0 CURVE",
"655 0 LINE",
"655 577 LINE SMOOTH",
"655 676 OFFCURVE",
"672 678 OFFCURVE",
"741 686 CURVE"
);
},
{
closed = 1;
nodes = (
"445 -87 LINE",
"416 -87 OFFCURVE",
"396 -107 OFFCURVE",
"396 -136 CURVE",
"396 -163 OFFCURVE",
"414 -181 OFFCURVE",
"441 -181 CURVE",
"459 -181 OFFCURVE",
"476 -167 OFFCURVE",
"476 -153 CURVE",
"476 -146 OFFCURVE",
"473 -141 OFFCURVE",
"473 -138 CURVE",
"473 -138 OFFCURVE",
"473 -137 OFFCURVE",
"474 -136 CURVE",
"484 -132 OFFCURVE",
"489 -153 OFFCURVE",
"489 -171 CURVE",
"489 -218 OFFCURVE",
"456 -248 OFFCURVE",
"420 -273 CURVE",
"430 -288 LINE",
"473 -260 OFFCURVE",
"505 -230 OFFCURVE",
"505 -169 CURVE",
"505 -119 OFFCURVE",
"481 -87 OFFCURVE",
"445 -87 CURVE"
);
}
);
width = 781;
}
);
leftKerningGroup = B;
note = "\012		uni0145\012  ";
rightKerningGroup = N;
unicode = 0145;
},
{
glyphname = uni0156;
layers = (
{
layerId = "72C12618-BAE4-4A2B-8370-CBFBBD108EB7";
paths = (
{
closed = 1;
nodes = (
"705 12 LINE",
"698 37 LINE",
"687 31 OFFCURVE",
"673 25 OFFCURVE",
"658 25 CURVE",
"624 25 OFFCURVE",
"589 56 OFFCURVE",
"572 169 CURVE",
"554 286 OFFCURVE",
"490 347 OFFCURVE",
"393 353 CURVE",
"494 368 OFFCURVE",
"583 416 OFFCURVE",
"583 535 CURVE",
"583 670 OFFCURVE",
"463 710 OFFCURVE",
"328 710 CURVE",
"188 710 LINE",
"40 713 LINE",
"40 688 LINE",
"60 686 LINE SMOOTH",
"129 678 OFFCURVE",
"146 676 OFFCURVE",
"146 577 CURVE",
"146 133 LINE SMOOTH",
"146 34 OFFCURVE",
"129 32 OFFCURVE",
"60 24 CURVE",
"40 22 LINE",
"40 -3 LINE",
"188 0 LINE",
"189 0 LINE",
"337 -3 LINE",
"337 22 LINE",
"317 24 LINE SMOOTH",
"248 32 OFFCURVE",
"231 34 OFFCURVE",
"231 133 CURVE",
"231 346 LINE",
"274 346 LINE SMOOTH",
"448 346 OFFCURVE",
"477 226 OFFCURVE",
"491 119 CURVE",
"501 45 OFFCURVE",
"533 -11 OFFCURVE",
"607 -11 CURVE",
"644 -11 OFFCURVE",
"684 1 OFFCURVE",
"705 12 CURVE"
);
},
{
closed = 1;
nodes = (
"315 373 LINE",
"231 373 LINE",
"231 684 LINE",
"330 684 LINE SMOOTH",
"447 684 OFFCURVE",
"488 627 OFFCURVE",
"488 529 CURVE",
"488 425 OFFCURVE",
"443 373 OFFCURVE",
"315 373 CURVE"
);
},
{
closed = 1;
nodes = (
"410 -87 LINE",
"381 -87 OFFCURVE",
"361 -107 OFFCURVE",
"361 -136 CURVE",
"361 -163 OFFCURVE",
"379 -181 OFFCURVE",
"406 -181 CURVE",
"424 -181 OFFCURVE",
"441 -167 OFFCURVE",
"441 -153 CURVE",
"441 -146 OFFCURVE",
"438 -141 OFFCURVE",
"438 -138 CURVE",
"438 -138 OFFCURVE",
"438 -137 OFFCURVE",
"439 -136 CURVE",
"449 -132 OFFCURVE",
"454 -153 OFFCURVE",
"454 -171 CURVE",
"454 -218 OFFCURVE",
"421 -248 OFFCURVE",
"385 -273 CURVE",
"395 -288 LINE",
"438 -260 OFFCURVE",
"470 -230 OFFCURVE",
"470 -169 CURVE",
"470 -119 OFFCURVE",
"446 -87 OFFCURVE",
"410 -87 CURVE"
);
}
);
width = 695;
}
);
leftKerningGroup = B;
note = "\012		uni0156\012  ";
rightKerningGroup = R;
unicode = 0156;
},
{
glyphname = uni0162;
layers = (
{
layerId = "72C12618-BAE4-4A2B-8370-CBFBBD108EB7";
paths = (
{
closed = 1;
nodes = (
"719 504 LINE",
"741 510 LINE",
"716 633 LINE",
"705 713 LINE",
"419 710 LINE",
"324 710 LINE",
"39 713 LINE",
"28 633 LINE",
"3 510 LINE",
"24 505 LINE",
"76 635 OFFCURVE",
"96 683 OFFCURVE",
"188 683 CURVE",
"329 683 LINE",
"329 133 LINE SMOOTH",
"329 34 OFFCURVE",
"309 32 OFFCURVE",
"228 24 CURVE",
"206 22 LINE",
"206 -3 LINE",
"374 0 LINE",
"537 -3 LINE",
"537 22 LINE",
"515 24 LINE SMOOTH",
"434 32 OFFCURVE",
"414 34 OFFCURVE",
"414 133 CURVE",
"414 683 LINE",
"562 683 LINE SMOOTH",
"648 683 OFFCURVE",
"673 620 OFFCURVE",
"719 504 CURVE"
);
},
{
closed = 1;
nodes = (
"383 -87 LINE",
"354 -87 OFFCURVE",
"334 -107 OFFCURVE",
"334 -136 CURVE",
"334 -163 OFFCURVE",
"352 -181 OFFCURVE",
"379 -181 CURVE",
"397 -181 OFFCURVE",
"414 -167 OFFCURVE",
"414 -153 CURVE",
"414 -146 OFFCURVE",
"411 -141 OFFCURVE",
"411 -138 CURVE",
"411 -138 OFFCURVE",
"411 -137 OFFCURVE",
"412 -136 CURVE",
"422 -132 OFFCURVE",
"427 -153 OFFCURVE",
"427 -171 CURVE",
"427 -218 OFFCURVE",
"394 -248 OFFCURVE",
"358 -273 CURVE",
"368 -288 LINE",
"411 -260 OFFCURVE",
"443 -230 OFFCURVE",
"443 -169 CURVE",
"443 -119 OFFCURVE",
"419 -87 OFFCURVE",
"383 -87 CURVE"
);
}
);
width = 744;
}
);
leftKerningGroup = T;
note = "\012		uni0162\012  ";
rightKerningGroup = T;
unicode = 0162;
},
{
glyphname = uni0191;
layers = (
{
layerId = "72C12618-BAE4-4A2B-8370-CBFBBD108EB7";
paths = (
{
closed = 1;
nodes = (
"66 -290 LINE",
"141 -290 OFFCURVE",
"231 -273 OFFCURVE",
"231 -138 CURVE",
"231 353 LINE",
"354 353 LINE SMOOTH",
"400 353 OFFCURVE",
"425 314 OFFCURVE",
"425 216 CURVE",
"450 216 LINE",
"447 364 LINE",
"450 498 LINE",
"425 498 LINE",
"420 399 OFFCURVE",
"393 378 OFFCURVE",
"354 378 CURVE",
"231 378 LINE",
"231 683 LINE",
"395 683 LINE SMOOTH",
"461 683 OFFCURVE",
"567 683 OFFCURVE",
"578 548 CURVE",
"602 548 LINE",
"593 637 LINE",
"590 710 LINE",
"188 710 LINE",
"40 713 LINE",
"40 688 LINE",
"60 686 LINE SMOOTH",
"129 678 OFFCURVE",
"146 676 OFFCURVE",
"146 577 CURVE",
"146 -156 LINE SMOOTH",
"146 -180 OFFCURVE",
"146 -266 OFFCURVE",
"72 -266 CURVE",
"45 -266 OFFCURVE",
"37 -251 OFFCURVE",
"37 -238 CURVE",
"37 -231 OFFCURVE",
"39 -225 OFFCURVE",
"42 -217 CURVE",
"45 -210 OFFCURVE",
"48 -202 OFFCURVE",
"48 -190 CURVE",
"48 -166 OFFCURVE",
"28 -149 OFFCURVE",
"3 -149 CURVE",
"-32 -149 OFFCURVE",
"-49 -175 OFFCURVE",
"-49 -202 CURVE",
"-49 -255 OFFCURVE",
"7 -290 OFFCURVE",
"66 -290 CURVE"
);
}
);
width = 607;
}
);
leftKerningGroup = B;
note = "\012		uni0191\012  ";
rightKerningGroup = F;
unicode = 0191;
},
{
glyphname = uni01CD;
layers = (
{
layerId = "72C12618-BAE4-4A2B-8370-CBFBBD108EB7";
paths = (
{
closed = 1;
nodes = (
"294 940 LINE",
"270 940 LINE",
"364 760 LINE",
"386 760 LINE",
"480 940 LINE",
"456 940 LINE",
"378 847 LINE",
"372 847 LINE"
);
},
{
closed = 1;
nodes = (
"636 0 LINE",
"760 -3 LINE",
"760 22 LINE",
"740 24 LINE SMOOTH",
"686 29 OFFCURVE",
"660 58 OFFCURVE",
"634 123 CURVE",
"398 710 LINE",
"364 710 LINE",
"122 123 LINE SMOOTH",
"92 50 OFFCURVE",
"63 32 OFFCURVE",
"-6 23 CURVE",
"-15 22 LINE",
"-15 -3 LINE",
"106 0 LINE",
"233 -3 LINE",
"233 22 LINE",
"213 24 LINE SMOOTH",
"162 28 OFFCURVE",
"142 41 OFFCURVE",
"142 66 CURVE",
"142 81 OFFCURVE",
"149 100 OFFCURVE",
"159 124 CURVE",
"213 254 LINE",
"495 254 LINE",
"547 124 LINE SMOOTH",
"556 102 OFFCURVE",
"561 84 OFFCURVE",
"561 70 CURVE",
"561 43 OFFCURVE",
"543 29 OFFCURVE",
"496 24 CURVE",
"476 22 LINE",
"476 -3 LINE"
);
},
{
closed = 1;
nodes = (
"226 286 LINE",
"357 603 LINE",
"483 286 LINE"
);
}
);
width = 745;
}
);
leftKerningGroup = A;
note = "\012		uni01CD\012  ";
rightKerningGroup = A;
unicode = 01CD;
},
{
glyphname = uni01CF;
layers = (
{
layerId = "72C12618-BAE4-4A2B-8370-CBFBBD108EB7";
paths = (
{
closed = 1;
nodes = (
"191 847 LINE",
"185 847 LINE",
"107 940 LINE",
"83 940 LINE",
"177 760 LINE",
"199 760 LINE",
"293 940 LINE",
"269 940 LINE"
);
},
{
closed = 1;
nodes = (
"60 24 LINE",
"40 22 LINE",
"40 -3 LINE",
"188 0 LINE",
"189 0 LINE",
"337 -3 LINE",
"337 22 LINE",
"317 24 LINE SMOOTH",
"248 32 OFFCURVE",
"231 34 OFFCURVE",
"231 133 CURVE",
"231 577 LINE SMOOTH",
"231 676 OFFCURVE",
"248 678 OFFCURVE",
"317 686 CURVE",
"337 688 LINE",
"337 713 LINE",
"189 710 LINE",
"188 710 LINE",
"40 713 LINE",
"40 688 LINE",
"60 686 LINE SMOOTH",
"129 678 OFFCURVE",
"146 676 OFFCURVE",
"146 577 CURVE",
"146 133 LINE SMOOTH",
"146 34 OFFCURVE",
"129 32 OFFCURVE",
"60 24 CURVE"
);
}
);
width = 377;
}
);
leftKerningGroup = B;
note = "\012		uni01CF\012  ";
rightKerningGroup = E;
unicode = 01CF;
},
{
glyphname = uni01D1;
layers = (
{
layerId = "72C12618-BAE4-4A2B-8370-CBFBBD108EB7";
paths = (
{
closed = 1;
nodes = (
"413 847 LINE",
"407 847 LINE",
"329 940 LINE",
"305 940 LINE",
"399 760 LINE",
"421 760 LINE",
"515 940 LINE",
"491 940 LINE"
);
},
{
closed = 1;
nodes = (
"409 -11 LINE",
"609 -11 OFFCURVE",
"756 141 OFFCURVE",
"756 357 CURVE",
"756 572 OFFCURVE",
"609 724 OFFCURVE",
"409 724 CURVE",
"209 724 OFFCURVE",
"62 572 OFFCURVE",
"62 357 CURVE",
"62 141 OFFCURVE",
"209 -11 OFFCURVE",
"409 -11 CURVE"
);
},
{
closed = 1;
nodes = (
"409 19 LINE",
"236 19 OFFCURVE",
"164 147 OFFCURVE",
"164 357 CURVE",
"164 566 OFFCURVE",
"236 694 OFFCURVE",
"409 694 CURVE",
"582 694 OFFCURVE",
"654 566 OFFCURVE",
"654 357 CURVE",
"654 147 OFFCURVE",
"582 19 OFFCURVE",
"409 19 CURVE"
);
}
);
width = 818;
}
);
leftKerningGroup = C;
note = "\012		uni01D1\012  ";
rightKerningGroup = D;
unicode = 01D1;
},
{
glyphname = uni01D3;
layers = (
{
layerId = "72C12618-BAE4-4A2B-8370-CBFBBD108EB7";
paths = (
{
closed = 1;
nodes = (
"413 847 LINE",
"407 847 LINE",
"329 940 LINE",
"305 940 LINE",
"399 760 LINE",
"421 760 LINE",
"515 940 LINE",
"491 940 LINE"
);
},
{
closed = 1;
nodes = (
"394 -11 LINE",
"558 -11 OFFCURVE",
"639 74 OFFCURVE",
"639 229 CURVE",
"639 577 LINE SMOOTH",
"639 676 OFFCURVE",
"656 678 OFFCURVE",
"725 686 CURVE",
"745 688 LINE",
"745 713 LINE",
"646 711 LINE",
"498 713 LINE",
"498 688 LINE",
"518 686 LINE SMOOTH",
"587 678 OFFCURVE",
"604 676 OFFCURVE",
"604 577 CURVE",
"604 229 LINE SMOOTH",
"604 101 OFFCURVE",
"547 22 OFFCURVE",
"413 22 CURVE",
"297 22 OFFCURVE",
"216 88 OFFCURVE",
"216 223 CURVE",
"216 577 LINE SMOOTH",
"216 676 OFFCURVE",
"233 678 OFFCURVE",
"302 686 CURVE",
"322 688 LINE",
"322 713 LINE",
"174 710 LINE",
"173 710 LINE",
"25 713 LINE",
"25 688 LINE",
"45 686 LINE SMOOTH",
"114 678 OFFCURVE",
"131 676 OFFCURVE",
"131 577 CURVE",
"131 223 LINE SMOOTH",
"131 57 OFFCURVE",
"227 -11 OFFCURVE",
"394 -11 CURVE"
);
}
);
width = 750;
}
);
leftKerningGroup = U;
note = "\012		uni01D3\012  ";
rightKerningGroup = U;
unicode = 01D3;
},
{
glyphname = uni01D5;
layers = (
{
layerId = "72C12618-BAE4-4A2B-8370-CBFBBD108EB7";
paths = (
{
closed = 1;
nodes = (
"522 1032 LINE",
"522 1072 LINE",
"295 1072 LINE",
"295 1032 LINE"
);
},
{
closed = 1;
nodes = (
"318 822 LINE",
"352 822 OFFCURVE",
"368 847 OFFCURVE",
"368 879 CURVE",
"368 910 OFFCURVE",
"352 935 OFFCURVE",
"318 935 CURVE",
"286 935 OFFCURVE",
"267 910 OFFCURVE",
"267 879 CURVE",
"267 847 OFFCURVE",
"286 822 OFFCURVE",
"318 822 CURVE"
);
},
{
closed = 1;
nodes = (
"508 822 LINE",
"542 822 OFFCURVE",
"558 847 OFFCURVE",
"558 879 CURVE",
"558 910 OFFCURVE",
"542 935 OFFCURVE",
"508 935 CURVE",
"476 935 OFFCURVE",
"457 910 OFFCURVE",
"457 879 CURVE",
"457 847 OFFCURVE",
"476 822 OFFCURVE",
"508 822 CURVE"
);
},
{
closed = 1;
nodes = (
"394 -11 LINE",
"558 -11 OFFCURVE",
"639 74 OFFCURVE",
"639 229 CURVE",
"639 577 LINE SMOOTH",
"639 676 OFFCURVE",
"656 678 OFFCURVE",
"725 686 CURVE",
"745 688 LINE",
"745 713 LINE",
"646 711 LINE",
"498 713 LINE",
"498 688 LINE",
"518 686 LINE SMOOTH",
"587 678 OFFCURVE",
"604 676 OFFCURVE",
"604 577 CURVE",
"604 229 LINE SMOOTH",
"604 101 OFFCURVE",
"547 22 OFFCURVE",
"413 22 CURVE",
"297 22 OFFCURVE",
"216 88 OFFCURVE",
"216 223 CURVE",
"216 577 LINE SMOOTH",
"216 676 OFFCURVE",
"233 678 OFFCURVE",
"302 686 CURVE",
"322 688 LINE",
"322 713 LINE",
"174 710 LINE",
"173 710 LINE",
"25 713 LINE",
"25 688 LINE",
"45 686 LINE SMOOTH",
"114 678 OFFCURVE",
"131 676 OFFCURVE",
"131 577 CURVE",
"131 223 LINE SMOOTH",
"131 57 OFFCURVE",
"227 -11 OFFCURVE",
"394 -11 CURVE"
);
}
);
width = 750;
}
);
leftKerningGroup = U;
note = "\012		uni01D5\012  ";
rightKerningGroup = U;
unicode = 01D5;
},
{
glyphname = uni01D7;
layers = (
{
layerId = "72C12618-BAE4-4A2B-8370-CBFBBD108EB7";
paths = (
{
closed = 1;
nodes = (
"419 958 LINE",
"514 1138 LINE",
"433 1138 LINE",
"407 958 LINE"
);
},
{
closed = 1;
nodes = (
"318 822 LINE",
"352 822 OFFCURVE",
"368 847 OFFCURVE",
"368 879 CURVE",
"368 910 OFFCURVE",
"352 935 OFFCURVE",
"318 935 CURVE",
"286 935 OFFCURVE",
"267 910 OFFCURVE",
"267 879 CURVE",
"267 847 OFFCURVE",
"286 822 OFFCURVE",
"318 822 CURVE"
);
},
{
closed = 1;
nodes = (
"508 822 LINE",
"542 822 OFFCURVE",
"558 847 OFFCURVE",
"558 879 CURVE",
"558 910 OFFCURVE",
"542 935 OFFCURVE",
"508 935 CURVE",
"476 935 OFFCURVE",
"457 910 OFFCURVE",
"457 879 CURVE",
"457 847 OFFCURVE",
"476 822 OFFCURVE",
"508 822 CURVE"
);
},
{
closed = 1;
nodes = (
"394 -11 LINE",
"558 -11 OFFCURVE",
"639 74 OFFCURVE",
"639 229 CURVE",
"639 577 LINE SMOOTH",
"639 676 OFFCURVE",
"656 678 OFFCURVE",
"725 686 CURVE",
"745 688 LINE",
"745 713 LINE",
"646 711 LINE",
"498 713 LINE",
"498 688 LINE",
"518 686 LINE SMOOTH",
"587 678 OFFCURVE",
"604 676 OFFCURVE",
"604 577 CURVE",
"604 229 LINE SMOOTH",
"604 101 OFFCURVE",
"547 22 OFFCURVE",
"413 22 CURVE",
"297 22 OFFCURVE",
"216 88 OFFCURVE",
"216 223 CURVE",
"216 577 LINE SMOOTH",
"216 676 OFFCURVE",
"233 678 OFFCURVE",
"302 686 CURVE",
"322 688 LINE",
"322 713 LINE",
"174 710 LINE",
"173 710 LINE",
"25 713 LINE",
"25 688 LINE",
"45 686 LINE SMOOTH",
"114 678 OFFCURVE",
"131 676 OFFCURVE",
"131 577 CURVE",
"131 223 LINE SMOOTH",
"131 57 OFFCURVE",
"227 -11 OFFCURVE",
"394 -11 CURVE"
);
}
);
width = 750;
}
);
leftKerningGroup = U;
note = "\012		uni01D7\012  ";
rightKerningGroup = U;
unicode = 01D7;
},
{
glyphname = uni01D9;
layers = (
{
layerId = "72C12618-BAE4-4A2B-8370-CBFBBD108EB7";
paths = (
{
closed = 1;
nodes = (
"416 1045 LINE",
"410 1045 LINE",
"332 1138 LINE",
"308 1138 LINE",
"402 958 LINE",
"424 958 LINE",
"518 1138 LINE",
"494 1138 LINE"
);
},
{
closed = 1;
nodes = (
"318 822 LINE",
"352 822 OFFCURVE",
"368 847 OFFCURVE",
"368 879 CURVE",
"368 910 OFFCURVE",
"352 935 OFFCURVE",
"318 935 CURVE",
"286 935 OFFCURVE",
"267 910 OFFCURVE",
"267 879 CURVE",
"267 847 OFFCURVE",
"286 822 OFFCURVE",
"318 822 CURVE"
);
},
{
closed = 1;
nodes = (
"508 822 LINE",
"542 822 OFFCURVE",
"558 847 OFFCURVE",
"558 879 CURVE",
"558 910 OFFCURVE",
"542 935 OFFCURVE",
"508 935 CURVE",
"476 935 OFFCURVE",
"457 910 OFFCURVE",
"457 879 CURVE",
"457 847 OFFCURVE",
"476 822 OFFCURVE",
"508 822 CURVE"
);
},
{
closed = 1;
nodes = (
"394 -11 LINE",
"558 -11 OFFCURVE",
"639 74 OFFCURVE",
"639 229 CURVE",
"639 577 LINE SMOOTH",
"639 676 OFFCURVE",
"656 678 OFFCURVE",
"725 686 CURVE",
"745 688 LINE",
"745 713 LINE",
"646 711 LINE",
"498 713 LINE",
"498 688 LINE",
"518 686 LINE SMOOTH",
"587 678 OFFCURVE",
"604 676 OFFCURVE",
"604 577 CURVE",
"604 229 LINE SMOOTH",
"604 101 OFFCURVE",
"547 22 OFFCURVE",
"413 22 CURVE",
"297 22 OFFCURVE",
"216 88 OFFCURVE",
"216 223 CURVE",
"216 577 LINE SMOOTH",
"216 676 OFFCURVE",
"233 678 OFFCURVE",
"302 686 CURVE",
"322 688 LINE",
"322 713 LINE",
"174 710 LINE",
"173 710 LINE",
"25 713 LINE",
"25 688 LINE",
"45 686 LINE SMOOTH",
"114 678 OFFCURVE",
"131 676 OFFCURVE",
"131 577 CURVE",
"131 223 LINE SMOOTH",
"131 57 OFFCURVE",
"227 -11 OFFCURVE",
"394 -11 CURVE"
);
}
);
width = 750;
}
);
leftKerningGroup = U;
note = "\012		uni01D9\012  ";
rightKerningGroup = U;
unicode = 01D9;
},
{
glyphname = uni01DB;
layers = (
{
layerId = "72C12618-BAE4-4A2B-8370-CBFBBD108EB7";
paths = (
{
closed = 1;
nodes = (
"392 1138 LINE",
"311 1138 LINE",
"406 958 LINE",
"418 958 LINE"
);
},
{
closed = 1;
nodes = (
"318 822 LINE",
"352 822 OFFCURVE",
"368 847 OFFCURVE",
"368 879 CURVE",
"368 910 OFFCURVE",
"352 935 OFFCURVE",
"318 935 CURVE",
"286 935 OFFCURVE",
"267 910 OFFCURVE",
"267 879 CURVE",
"267 847 OFFCURVE",
"286 822 OFFCURVE",
"318 822 CURVE"
);
},
{
closed = 1;
nodes = (
"508 822 LINE",
"542 822 OFFCURVE",
"558 847 OFFCURVE",
"558 879 CURVE",
"558 910 OFFCURVE",
"542 935 OFFCURVE",
"508 935 CURVE",
"476 935 OFFCURVE",
"457 910 OFFCURVE",
"457 879 CURVE",
"457 847 OFFCURVE",
"476 822 OFFCURVE",
"508 822 CURVE"
);
},
{
closed = 1;
nodes = (
"394 -11 LINE",
"558 -11 OFFCURVE",
"639 74 OFFCURVE",
"639 229 CURVE",
"639 577 LINE SMOOTH",
"639 676 OFFCURVE",
"656 678 OFFCURVE",
"725 686 CURVE",
"745 688 LINE",
"745 713 LINE",
"646 711 LINE",
"498 713 LINE",
"498 688 LINE",
"518 686 LINE SMOOTH",
"587 678 OFFCURVE",
"604 676 OFFCURVE",
"604 577 CURVE",
"604 229 LINE SMOOTH",
"604 101 OFFCURVE",
"547 22 OFFCURVE",
"413 22 CURVE",
"297 22 OFFCURVE",
"216 88 OFFCURVE",
"216 223 CURVE",
"216 577 LINE SMOOTH",
"216 676 OFFCURVE",
"233 678 OFFCURVE",
"302 686 CURVE",
"322 688 LINE",
"322 713 LINE",
"174 710 LINE",
"173 710 LINE",
"25 713 LINE",
"25 688 LINE",
"45 686 LINE SMOOTH",
"114 678 OFFCURVE",
"131 676 OFFCURVE",
"131 577 CURVE",
"131 223 LINE SMOOTH",
"131 57 OFFCURVE",
"227 -11 OFFCURVE",
"394 -11 CURVE"
);
}
);
width = 750;
}
);
leftKerningGroup = U;
note = "\012		uni01DB\012  ";
rightKerningGroup = U;
unicode = 01DB;
},
{
glyphname = uni0218;
layers = (
{
layerId = "72C12618-BAE4-4A2B-8370-CBFBBD108EB7";
paths = (
{
closed = 1;
nodes = (
"309 -11 LINE",
"419 -11 OFFCURVE",
"506 68 OFFCURVE",
"506 187 CURVE",
"506 300 OFFCURVE",
"439 350 OFFCURVE",
"329 404 CURVE",
"288 424 LINE SMOOTH",
"209 462 OFFCURVE",
"155 499 OFFCURVE",
"155 575 CURVE",
"155 646 OFFCURVE",
"208 696 OFFCURVE",
"287 696 CURVE",
"366 696 OFFCURVE",
"441 630 OFFCURVE",
"454 519 CURVE",
"479 519 LINE",
"477 616 LINE",
"480 712 LINE",
"455 712 LINE",
"453 690 OFFCURVE",
"448 681 OFFCURVE",
"436 681 CURVE",
"425 681 OFFCURVE",
"413 685 OFFCURVE",
"395 694 CURVE",
"374 705 OFFCURVE",
"336 724 OFFCURVE",
"282 724 CURVE",
"164 724 OFFCURVE",
"80 649 OFFCURVE",
"80 543 CURVE",
"80 452 OFFCURVE",
"128 400 OFFCURVE",
"228 352 CURVE",
"270 332 LINE SMOOTH",
"373 283 OFFCURVE",
"434 235 OFFCURVE",
"434 146 CURVE",
"434 56 OFFCURVE",
"370 18 OFFCURVE",
"309 18 CURVE",
"197 18 OFFCURVE",
"119 111 OFFCURVE",
"98 200 CURVE",
"87 247 LINE",
"62 247 LINE",
"65 118 LINE",
"60 0 LINE",
"85 0 LINE",
"88 15 LINE SMOOTH",
"92 33 OFFCURVE",
"97 52 OFFCURVE",
"116 52 CURVE",
"130 52 OFFCURVE",
"148 44 OFFCURVE",
"178 28 CURVE",
"212 10 OFFCURVE",
"256 -11 OFFCURVE",
"309 -11 CURVE"
);
},
{
closed = 1;
nodes = (
"297 -273 LINE",
"307 -288 LINE",
"350 -260 OFFCURVE",
"382 -230 OFFCURVE",
"382 -169 CURVE",
"382 -119 OFFCURVE",
"358 -87 OFFCURVE",
"322 -87 CURVE",
"293 -87 OFFCURVE",
"273 -107 OFFCURVE",
"273 -136 CURVE",
"273 -163 OFFCURVE",
"291 -181 OFFCURVE",
"318 -181 CURVE",
"336 -181 OFFCURVE",
"353 -167 OFFCURVE",
"353 -153 CURVE",
"353 -146 OFFCURVE",
"350 -141 OFFCURVE",
"350 -138 CURVE",
"350 -138 OFFCURVE",
"350 -137 OFFCURVE",
"351 -136 CURVE",
"361 -132 OFFCURVE",
"366 -153 OFFCURVE",
"366 -171 CURVE",
"366 -218 OFFCURVE",
"333 -248 OFFCURVE",
"297 -273 CURVE"
);
}
);
width = 561;
}
);
leftKerningGroup = S;
note = "\012		uni0218\012  ";
rightKerningGroup = S;
unicode = 0218;
},
{
glyphname = uni021A;
layers = (
{
layerId = "72C12618-BAE4-4A2B-8370-CBFBBD108EB7";
paths = (
{
closed = 1;
nodes = (
"719 504 LINE",
"741 510 LINE",
"716 633 LINE",
"705 713 LINE",
"419 710 LINE",
"324 710 LINE",
"39 713 LINE",
"28 633 LINE",
"3 510 LINE",
"24 505 LINE",
"76 635 OFFCURVE",
"96 683 OFFCURVE",
"188 683 CURVE",
"329 683 LINE",
"329 133 LINE SMOOTH",
"329 34 OFFCURVE",
"309 32 OFFCURVE",
"228 24 CURVE",
"206 22 LINE",
"206 -3 LINE",
"374 0 LINE",
"537 -3 LINE",
"537 22 LINE",
"515 24 LINE SMOOTH",
"434 32 OFFCURVE",
"414 34 OFFCURVE",
"414 133 CURVE",
"414 683 LINE",
"562 683 LINE SMOOTH",
"648 683 OFFCURVE",
"673 620 OFFCURVE",
"719 504 CURVE"
);
},
{
closed = 1;
nodes = (
"383 -87 LINE",
"354 -87 OFFCURVE",
"334 -107 OFFCURVE",
"334 -136 CURVE",
"334 -163 OFFCURVE",
"352 -181 OFFCURVE",
"379 -181 CURVE",
"397 -181 OFFCURVE",
"414 -167 OFFCURVE",
"414 -153 CURVE",
"414 -146 OFFCURVE",
"411 -141 OFFCURVE",
"411 -138 CURVE",
"411 -138 OFFCURVE",
"411 -137 OFFCURVE",
"412 -136 CURVE",
"422 -132 OFFCURVE",
"427 -153 OFFCURVE",
"427 -171 CURVE",
"427 -218 OFFCURVE",
"394 -248 OFFCURVE",
"358 -273 CURVE",
"368 -288 LINE",
"411 -260 OFFCURVE",
"443 -230 OFFCURVE",
"443 -169 CURVE",
"443 -119 OFFCURVE",
"419 -87 OFFCURVE",
"383 -87 CURVE"
);
}
);
width = 744;
}
);
leftKerningGroup = T;
note = "\012		uni021A\012  ";
rightKerningGroup = T;
unicode = 021A;
},
{
glyphname = uni1EF8;
layers = (
{
layerId = "72C12618-BAE4-4A2B-8370-CBFBBD108EB7";
paths = (
{
closed = 1;
nodes = (
"295 868 LINE",
"313 868 OFFCURVE",
"332 857 OFFCURVE",
"356 842 CURVE",
"382 826 LINE SMOOTH",
"399 816 OFFCURVE",
"425 801 OFFCURVE",
"450 801 CURVE",
"490 801 OFFCURVE",
"524 840 OFFCURVE",
"531 900 CURVE",
"512 900 LINE",
"503 872 OFFCURVE",
"485 849 OFFCURVE",
"458 849 CURVE",
"440 849 OFFCURVE",
"417 862 OFFCURVE",
"407 868 CURVE",
"370 890 LINE SMOOTH",
"357 898 OFFCURVE",
"328 916 OFFCURVE",
"303 916 CURVE",
"242 916 OFFCURVE",
"217 841 OFFCURVE",
"217 812 CURVE",
"236 812 LINE",
"242 836 OFFCURVE",
"266 868 OFFCURVE",
"295 868 CURVE"
);
},
{
closed = 1;
nodes = (
"655 683 LINE",
"682 688 LINE",
"682 713 LINE",
"576 708 LINE",
"444 713 LINE",
"444 688 LINE",
"473 685 LINE SMOOTH",
"506 682 OFFCURVE",
"530 672 OFFCURVE",
"530 644 CURVE",
"530 629 OFFCURVE",
"523 609 OFFCURVE",
"508 582 CURVE",
"363 328 LINE",
"217 582 LINE SMOOTH",
"202 608 OFFCURVE",
"195 628 OFFCURVE",
"195 643 CURVE",
"195 670 OFFCURVE",
"217 682 OFFCURVE",
"250 685 CURVE",
"282 688 LINE",
"282 713 LINE",
"132 710 LINE",
"-20 713 LINE",
"-20 688 LINE",
"9 682 LINE SMOOTH",
"63 671 OFFCURVE",
"88 647 OFFCURVE",
"119 593 CURVE",
"294 287 LINE",
"294 133 LINE SMOOTH",
"294 34 OFFCURVE",
"277 32 OFFCURVE",
"208 24 CURVE",
"188 22 LINE",
"188 -3 LINE",
"336 0 LINE",
"337 0 LINE",
"485 -3 LINE",
"485 22 LINE",
"465 24 LINE SMOOTH",
"396 32 OFFCURVE",
"379 34 OFFCURVE",
"379 133 CURVE",
"379 288 LINE",
"561 606 LINE SMOOTH",
"589 655 OFFCURVE",
"612 675 OFFCURVE",
"655 683 CURVE"
);
}
);
width = 662;
}
);
leftKerningGroup = Y;
note = "\012		uni1EF8\012  ";
rightKerningGroup = Y;
unicode = 1EF8;
},
{
glyphname = a;
layers = (
{
layerId = "72C12618-BAE4-4A2B-8370-CBFBBD108EB7";
paths = (
{
closed = 1;
nodes = (
"490 52 LINE",
"472 59 LINE",
"466 41 OFFCURVE",
"451 24 OFFCURVE",
"431 24 CURVE",
"400 24 OFFCURVE",
"395 57 OFFCURVE",
"395 116 CURVE",
"395 296 LINE SMOOTH",
"395 408 OFFCURVE",
"348 454 OFFCURVE",
"241 454 CURVE",
"166 454 OFFCURVE",
"69 427 OFFCURVE",
"69 356 CURVE",
"69 331 OFFCURVE",
"87 310 OFFCURVE",
"111 310 CURVE",
"136 310 OFFCURVE",
"157 325 OFFCURVE",
"157 350 CURVE",
"157 360 OFFCURVE",
"155 369 OFFCURVE",
"152 377 CURVE",
"150 383 OFFCURVE",
"148 390 OFFCURVE",
"148 396 CURVE",
"148 421 OFFCURVE",
"191 429 OFFCURVE",
"227 429 CURVE",
"303 429 OFFCURVE",
"325 393 OFFCURVE",
"325 320 CURVE",
"325 288 LINE",
"287 273 OFFCURVE",
"232 252 OFFCURVE",
"180 223 CURVE",
"111 185 OFFCURVE",
"50 141 OFFCURVE",
"50 82 CURVE",
"50 23 OFFCURVE",
"97 -11 OFFCURVE",
"161 -11 CURVE",
"229 -11 OFFCURVE",
"289 21 OFFCURVE",
"326 82 CURVE",
"329 26 OFFCURVE",
"346 -11 OFFCURVE",
"405 -11 CURVE",
"453 -11 OFFCURVE",
"479 13 OFFCURVE",
"490 52 CURVE"
);
},
{
closed = 1;
nodes = (
"193 26 LINE",
"150 26 OFFCURVE",
"128 50 OFFCURVE",
"128 87 CURVE",
"128 168 OFFCURVE",
"237 231 OFFCURVE",
"325 268 CURVE",
"325 122 LINE",
"306 73 OFFCURVE",
"251 26 OFFCURVE",
"193 26 CURVE"
);
}
);
width = 490;
}
);
leftKerningGroup = a;
note = "\012		a\012  ";
rightKerningGroup = a;
unicode = 0061;
},
{
glyphname = aacute;
layers = (
{
layerId = "72C12618-BAE4-4A2B-8370-CBFBBD108EB7";
paths = (
{
closed = 1;
nodes = (
"245 665 LINE",
"206 517 LINE",
"228 517 LINE",
"302 636 LINE SMOOTH",
"312 652 OFFCURVE",
"319 669 OFFCURVE",
"319 685 CURVE",
"319 709 OFFCURVE",
"304 721 OFFCURVE",
"288 721 CURVE",
"272 721 OFFCURVE",
"256 707 OFFCURVE",
"245 665 CURVE"
);
},
{
closed = 1;
nodes = (
"490 52 LINE",
"472 59 LINE",
"466 41 OFFCURVE",
"451 24 OFFCURVE",
"431 24 CURVE",
"400 24 OFFCURVE",
"395 57 OFFCURVE",
"395 116 CURVE",
"395 296 LINE SMOOTH",
"395 408 OFFCURVE",
"348 454 OFFCURVE",
"241 454 CURVE",
"166 454 OFFCURVE",
"69 427 OFFCURVE",
"69 356 CURVE",
"69 331 OFFCURVE",
"87 310 OFFCURVE",
"111 310 CURVE",
"136 310 OFFCURVE",
"157 325 OFFCURVE",
"157 350 CURVE",
"157 360 OFFCURVE",
"155 369 OFFCURVE",
"152 377 CURVE",
"150 383 OFFCURVE",
"148 390 OFFCURVE",
"148 396 CURVE",
"148 421 OFFCURVE",
"191 429 OFFCURVE",
"227 429 CURVE",
"303 429 OFFCURVE",
"325 393 OFFCURVE",
"325 320 CURVE",
"325 288 LINE",
"287 273 OFFCURVE",
"232 252 OFFCURVE",
"180 223 CURVE",
"111 185 OFFCURVE",
"50 141 OFFCURVE",
"50 82 CURVE",
"50 23 OFFCURVE",
"97 -11 OFFCURVE",
"161 -11 CURVE",
"229 -11 OFFCURVE",
"289 21 OFFCURVE",
"326 82 CURVE",
"329 26 OFFCURVE",
"346 -11 OFFCURVE",
"405 -11 CURVE",
"453 -11 OFFCURVE",
"479 13 OFFCURVE",
"490 52 CURVE"
);
},
{
closed = 1;
nodes = (
"193 26 LINE",
"150 26 OFFCURVE",
"128 50 OFFCURVE",
"128 87 CURVE",
"128 168 OFFCURVE",
"237 231 OFFCURVE",
"325 268 CURVE",
"325 122 LINE",
"306 73 OFFCURVE",
"251 26 OFFCURVE",
"193 26 CURVE"
);
}
);
width = 490;
}
);
leftKerningGroup = a;
note = "\012		aacute\012  ";
rightKerningGroup = a;
unicode = 00E1;
},
{
glyphname = abreve;
layers = (
{
layerId = "72C12618-BAE4-4A2B-8370-CBFBBD108EB7";
paths = (
{
closed = 1;
nodes = (
"242 544 LINE",
"309 544 OFFCURVE",
"343 595 OFFCURVE",
"343 660 CURVE",
"343 693 LINE",
"318 693 LINE",
"318 688 LINE SMOOTH",
"318 622 OFFCURVE",
"290 604 OFFCURVE",
"242 604 CURVE",
"194 604 OFFCURVE",
"166 622 OFFCURVE",
"166 688 CURVE",
"166 693 LINE",
"141 693 LINE",
"141 660 LINE SMOOTH",
"141 595 OFFCURVE",
"175 544 OFFCURVE",
"242 544 CURVE"
);
},
{
closed = 1;
nodes = (
"490 52 LINE",
"472 59 LINE",
"466 41 OFFCURVE",
"451 24 OFFCURVE",
"431 24 CURVE",
"400 24 OFFCURVE",
"395 57 OFFCURVE",
"395 116 CURVE",
"395 296 LINE SMOOTH",
"395 408 OFFCURVE",
"348 454 OFFCURVE",
"241 454 CURVE",
"166 454 OFFCURVE",
"69 427 OFFCURVE",
"69 356 CURVE",
"69 331 OFFCURVE",
"87 310 OFFCURVE",
"111 310 CURVE",
"136 310 OFFCURVE",
"157 325 OFFCURVE",
"157 350 CURVE",
"157 360 OFFCURVE",
"155 369 OFFCURVE",
"152 377 CURVE",
"150 383 OFFCURVE",
"148 390 OFFCURVE",
"148 396 CURVE",
"148 421 OFFCURVE",
"191 429 OFFCURVE",
"227 429 CURVE",
"303 429 OFFCURVE",
"325 393 OFFCURVE",
"325 320 CURVE",
"325 288 LINE",
"287 273 OFFCURVE",
"232 252 OFFCURVE",
"180 223 CURVE",
"111 185 OFFCURVE",
"50 141 OFFCURVE",
"50 82 CURVE",
"50 23 OFFCURVE",
"97 -11 OFFCURVE",
"161 -11 CURVE",
"229 -11 OFFCURVE",
"289 21 OFFCURVE",
"326 82 CURVE",
"329 26 OFFCURVE",
"346 -11 OFFCURVE",
"405 -11 CURVE",
"453 -11 OFFCURVE",
"479 13 OFFCURVE",
"490 52 CURVE"
);
},
{
closed = 1;
nodes = (
"193 26 LINE",
"150 26 OFFCURVE",
"128 50 OFFCURVE",
"128 87 CURVE",
"128 168 OFFCURVE",
"237 231 OFFCURVE",
"325 268 CURVE",
"325 122 LINE",
"306 73 OFFCURVE",
"251 26 OFFCURVE",
"193 26 CURVE"
);
}
);
width = 490;
}
);
leftKerningGroup = a;
note = "\012		abreve\012  ";
rightKerningGroup = a;
unicode = 0103;
},
{
glyphname = acircumflex;
layers = (
{
layerId = "72C12618-BAE4-4A2B-8370-CBFBBD108EB7";
paths = (
{
closed = 1;
nodes = (
"230 707 LINE",
"136 517 LINE",
"160 517 LINE",
"238 615 LINE",
"244 615 LINE",
"322 517 LINE",
"346 517 LINE",
"252 707 LINE"
);
},
{
closed = 1;
nodes = (
"490 52 LINE",
"472 59 LINE",
"466 41 OFFCURVE",
"451 24 OFFCURVE",
"431 24 CURVE",
"400 24 OFFCURVE",
"395 57 OFFCURVE",
"395 116 CURVE",
"395 296 LINE SMOOTH",
"395 408 OFFCURVE",
"348 454 OFFCURVE",
"241 454 CURVE",
"166 454 OFFCURVE",
"69 427 OFFCURVE",
"69 356 CURVE",
"69 331 OFFCURVE",
"87 310 OFFCURVE",
"111 310 CURVE",
"136 310 OFFCURVE",
"157 325 OFFCURVE",
"157 350 CURVE",
"157 360 OFFCURVE",
"155 369 OFFCURVE",
"152 377 CURVE",
"150 383 OFFCURVE",
"148 390 OFFCURVE",
"148 396 CURVE",
"148 421 OFFCURVE",
"191 429 OFFCURVE",
"227 429 CURVE",
"303 429 OFFCURVE",
"325 393 OFFCURVE",
"325 320 CURVE",
"325 288 LINE",
"287 273 OFFCURVE",
"232 252 OFFCURVE",
"180 223 CURVE",
"111 185 OFFCURVE",
"50 141 OFFCURVE",
"50 82 CURVE",
"50 23 OFFCURVE",
"97 -11 OFFCURVE",
"161 -11 CURVE",
"229 -11 OFFCURVE",
"289 21 OFFCURVE",
"326 82 CURVE",
"329 26 OFFCURVE",
"346 -11 OFFCURVE",
"405 -11 CURVE",
"453 -11 OFFCURVE",
"479 13 OFFCURVE",
"490 52 CURVE"
);
},
{
closed = 1;
nodes = (
"193 26 LINE",
"150 26 OFFCURVE",
"128 50 OFFCURVE",
"128 87 CURVE",
"128 168 OFFCURVE",
"237 231 OFFCURVE",
"325 268 CURVE",
"325 122 LINE",
"306 73 OFFCURVE",
"251 26 OFFCURVE",
"193 26 CURVE"
);
}
);
width = 490;
}
);
leftKerningGroup = a;
note = "\012		acircumflex\012  ";
rightKerningGroup = a;
unicode = 00E2;
},
{
glyphname = adieresis;
layers = (
{
layerId = "72C12618-BAE4-4A2B-8370-CBFBBD108EB7";
paths = (
{
closed = 1;
nodes = (
"144 564 LINE",
"178 564 OFFCURVE",
"194 589 OFFCURVE",
"194 621 CURVE",
"194 652 OFFCURVE",
"178 677 OFFCURVE",
"144 677 CURVE",
"112 677 OFFCURVE",
"93 652 OFFCURVE",
"93 621 CURVE",
"93 589 OFFCURVE",
"112 564 OFFCURVE",
"144 564 CURVE"
);
},
{
closed = 1;
nodes = (
"334 564 LINE",
"368 564 OFFCURVE",
"384 589 OFFCURVE",
"384 621 CURVE",
"384 652 OFFCURVE",
"368 677 OFFCURVE",
"334 677 CURVE",
"302 677 OFFCURVE",
"283 652 OFFCURVE",
"283 621 CURVE",
"283 589 OFFCURVE",
"302 564 OFFCURVE",
"334 564 CURVE"
);
},
{
closed = 1;
nodes = (
"490 52 LINE",
"472 59 LINE",
"466 41 OFFCURVE",
"451 24 OFFCURVE",
"431 24 CURVE",
"400 24 OFFCURVE",
"395 57 OFFCURVE",
"395 116 CURVE",
"395 296 LINE SMOOTH",
"395 408 OFFCURVE",
"348 454 OFFCURVE",
"241 454 CURVE",
"166 454 OFFCURVE",
"69 427 OFFCURVE",
"69 356 CURVE",
"69 331 OFFCURVE",
"87 310 OFFCURVE",
"111 310 CURVE",
"136 310 OFFCURVE",
"157 325 OFFCURVE",
"157 350 CURVE",
"157 360 OFFCURVE",
"155 369 OFFCURVE",
"152 377 CURVE",
"150 383 OFFCURVE",
"148 390 OFFCURVE",
"148 396 CURVE",
"148 421 OFFCURVE",
"191 429 OFFCURVE",
"227 429 CURVE",
"303 429 OFFCURVE",
"325 393 OFFCURVE",
"325 320 CURVE",
"325 288 LINE",
"287 273 OFFCURVE",
"232 252 OFFCURVE",
"180 223 CURVE",
"111 185 OFFCURVE",
"50 141 OFFCURVE",
"50 82 CURVE",
"50 23 OFFCURVE",
"97 -11 OFFCURVE",
"161 -11 CURVE",
"229 -11 OFFCURVE",
"289 21 OFFCURVE",
"326 82 CURVE",
"329 26 OFFCURVE",
"346 -11 OFFCURVE",
"405 -11 CURVE",
"453 -11 OFFCURVE",
"479 13 OFFCURVE",
"490 52 CURVE"
);
},
{
closed = 1;
nodes = (
"193 26 LINE",
"150 26 OFFCURVE",
"128 50 OFFCURVE",
"128 87 CURVE",
"128 168 OFFCURVE",
"237 231 OFFCURVE",
"325 268 CURVE",
"325 122 LINE",
"306 73 OFFCURVE",
"251 26 OFFCURVE",
"193 26 CURVE"
);
}
);
width = 490;
}
);
leftKerningGroup = a;
note = "\012		adieresis\012  ";
rightKerningGroup = a;
unicode = 00E4;
},
{
glyphname = agrave;
layers = (
{
layerId = "72C12618-BAE4-4A2B-8370-CBFBBD108EB7";
paths = (
{
closed = 1;
nodes = (
"178 636 LINE",
"252 517 LINE",
"274 517 LINE",
"235 665 LINE SMOOTH",
"224 707 OFFCURVE",
"208 721 OFFCURVE",
"192 721 CURVE",
"176 721 OFFCURVE",
"161 709 OFFCURVE",
"161 685 CURVE",
"161 669 OFFCURVE",
"168 652 OFFCURVE",
"178 636 CURVE"
);
},
{
closed = 1;
nodes = (
"490 52 LINE",
"472 59 LINE",
"466 41 OFFCURVE",
"451 24 OFFCURVE",
"431 24 CURVE",
"400 24 OFFCURVE",
"395 57 OFFCURVE",
"395 116 CURVE",
"395 296 LINE SMOOTH",
"395 408 OFFCURVE",
"348 454 OFFCURVE",
"241 454 CURVE",
"166 454 OFFCURVE",
"69 427 OFFCURVE",
"69 356 CURVE",
"69 331 OFFCURVE",
"87 310 OFFCURVE",
"111 310 CURVE",
"136 310 OFFCURVE",
"157 325 OFFCURVE",
"157 350 CURVE",
"157 360 OFFCURVE",
"155 369 OFFCURVE",
"152 377 CURVE",
"150 383 OFFCURVE",
"148 390 OFFCURVE",
"148 396 CURVE",
"148 421 OFFCURVE",
"191 429 OFFCURVE",
"227 429 CURVE",
"303 429 OFFCURVE",
"325 393 OFFCURVE",
"325 320 CURVE",
"325 288 LINE",
"287 273 OFFCURVE",
"232 252 OFFCURVE",
"180 223 CURVE",
"111 185 OFFCURVE",
"50 141 OFFCURVE",
"50 82 CURVE",
"50 23 OFFCURVE",
"97 -11 OFFCURVE",
"161 -11 CURVE",
"229 -11 OFFCURVE",
"289 21 OFFCURVE",
"326 82 CURVE",
"329 26 OFFCURVE",
"346 -11 OFFCURVE",
"405 -11 CURVE",
"453 -11 OFFCURVE",
"479 13 OFFCURVE",
"490 52 CURVE"
);
},
{
closed = 1;
nodes = (
"193 26 LINE",
"150 26 OFFCURVE",
"128 50 OFFCURVE",
"128 87 CURVE",
"128 168 OFFCURVE",
"237 231 OFFCURVE",
"325 268 CURVE",
"325 122 LINE",
"306 73 OFFCURVE",
"251 26 OFFCURVE",
"193 26 CURVE"
);
}
);
width = 490;
}
);
leftKerningGroup = a;
note = "\012		agrave\012  ";
rightKerningGroup = a;
unicode = 00E0;
},
{
glyphname = amacron;
layers = (
{
layerId = "72C12618-BAE4-4A2B-8370-CBFBBD108EB7";
paths = (
{
closed = 1;
nodes = (
"127 638 LINE",
"127 598 LINE",
"354 598 LINE",
"354 638 LINE"
);
},
{
closed = 1;
nodes = (
"490 52 LINE",
"472 59 LINE",
"466 41 OFFCURVE",
"451 24 OFFCURVE",
"431 24 CURVE",
"400 24 OFFCURVE",
"395 57 OFFCURVE",
"395 116 CURVE",
"395 296 LINE SMOOTH",
"395 408 OFFCURVE",
"348 454 OFFCURVE",
"241 454 CURVE",
"166 454 OFFCURVE",
"69 427 OFFCURVE",
"69 356 CURVE",
"69 331 OFFCURVE",
"87 310 OFFCURVE",
"111 310 CURVE",
"136 310 OFFCURVE",
"157 325 OFFCURVE",
"157 350 CURVE",
"157 360 OFFCURVE",
"155 369 OFFCURVE",
"152 377 CURVE",
"150 383 OFFCURVE",
"148 390 OFFCURVE",
"148 396 CURVE",
"148 421 OFFCURVE",
"191 429 OFFCURVE",
"227 429 CURVE",
"303 429 OFFCURVE",
"325 393 OFFCURVE",
"325 320 CURVE",
"325 288 LINE",
"287 273 OFFCURVE",
"232 252 OFFCURVE",
"180 223 CURVE",
"111 185 OFFCURVE",
"50 141 OFFCURVE",
"50 82 CURVE",
"50 23 OFFCURVE",
"97 -11 OFFCURVE",
"161 -11 CURVE",
"229 -11 OFFCURVE",
"289 21 OFFCURVE",
"326 82 CURVE",
"329 26 OFFCURVE",
"346 -11 OFFCURVE",
"405 -11 CURVE",
"453 -11 OFFCURVE",
"479 13 OFFCURVE",
"490 52 CURVE"
);
},
{
closed = 1;
nodes = (
"193 26 LINE",
"150 26 OFFCURVE",
"128 50 OFFCURVE",
"128 87 CURVE",
"128 168 OFFCURVE",
"237 231 OFFCURVE",
"325 268 CURVE",
"325 122 LINE",
"306 73 OFFCURVE",
"251 26 OFFCURVE",
"193 26 CURVE"
);
}
);
width = 490;
}
);
leftKerningGroup = a;
note = "\012		amacron\012  ";
rightKerningGroup = a;
unicode = 0101;
},
{
glyphname = aogonek;
layers = (
{
layerId = "72C12618-BAE4-4A2B-8370-CBFBBD108EB7";
paths = (
{
closed = 1;
nodes = (
"561 -178 LINE",
"541 -170 LINE",
"522 -206 OFFCURVE",
"492 -229 OFFCURVE",
"449 -229 CURVE",
"405 -229 OFFCURVE",
"370 -206 OFFCURVE",
"370 -157 CURVE",
"370 -103 OFFCURVE",
"404 -61 OFFCURVE",
"454 1 CURVE",
"469 10 OFFCURVE",
"479 23 OFFCURVE",
"486 40 CURVE",
"487 44 OFFCURVE",
"489 48 OFFCURVE",
"490 52 CURVE",
"472 59 LINE",
"466 41 OFFCURVE",
"451 24 OFFCURVE",
"431 24 CURVE",
"400 24 OFFCURVE",
"395 57 OFFCURVE",
"395 116 CURVE",
"395 296 LINE SMOOTH",
"395 408 OFFCURVE",
"348 454 OFFCURVE",
"241 454 CURVE",
"166 454 OFFCURVE",
"69 427 OFFCURVE",
"69 356 CURVE",
"69 331 OFFCURVE",
"87 310 OFFCURVE",
"111 310 CURVE",
"136 310 OFFCURVE",
"157 325 OFFCURVE",
"157 350 CURVE",
"157 360 OFFCURVE",
"155 369 OFFCURVE",
"152 377 CURVE",
"150 383 OFFCURVE",
"148 390 OFFCURVE",
"148 396 CURVE",
"148 421 OFFCURVE",
"191 429 OFFCURVE",
"227 429 CURVE",
"303 429 OFFCURVE",
"325 393 OFFCURVE",
"325 320 CURVE",
"325 288 LINE",
"287 273 OFFCURVE",
"232 252 OFFCURVE",
"180 223 CURVE",
"111 185 OFFCURVE",
"50 141 OFFCURVE",
"50 82 CURVE",
"50 23 OFFCURVE",
"97 -11 OFFCURVE",
"161 -11 CURVE",
"229 -11 OFFCURVE",
"289 21 OFFCURVE",
"326 82 CURVE",
"329 26 OFFCURVE",
"346 -11 OFFCURVE",
"405 -11 CURVE",
"415 -11 LINE",
"352 -72 OFFCURVE",
"310 -132 OFFCURVE",
"310 -187 CURVE",
"310 -251 OFFCURVE",
"356 -294 OFFCURVE",
"413 -294 CURVE",
"502 -294 OFFCURVE",
"554 -229 OFFCURVE",
"561 -178 CURVE"
);
},
{
closed = 1;
nodes = (
"193 26 LINE",
"150 26 OFFCURVE",
"128 50 OFFCURVE",
"128 87 CURVE",
"128 168 OFFCURVE",
"237 231 OFFCURVE",
"325 268 CURVE",
"325 122 LINE",
"306 73 OFFCURVE",
"251 26 OFFCURVE",
"193 26 CURVE"
);
}
);
width = 490;
}
);
leftKerningGroup = a;
note = "\012		aogonek\012  ";
rightKerningGroup = a;
unicode = 0105;
},
{
glyphname = aring;
layers = (
{
layerId = "72C12618-BAE4-4A2B-8370-CBFBBD108EB7";
paths = (
{
closed = 1;
nodes = (
"240 527 LINE",
"280 527 OFFCURVE",
"323 553 OFFCURVE",
"323 612 CURVE",
"323 649 OFFCURVE",
"298 697 OFFCURVE",
"239 697 CURVE",
"184 697 OFFCURVE",
"154 654 OFFCURVE",
"154 612 CURVE",
"154 565 OFFCURVE",
"188 527 OFFCURVE",
"240 527 CURVE"
);
},
{
closed = 1;
nodes = (
"239 666 LINE",
"265 666 OFFCURVE",
"290 647 OFFCURVE",
"290 612 CURVE",
"290 576 OFFCURVE",
"265 558 OFFCURVE",
"240 558 CURVE",
"212 558 OFFCURVE",
"187 578 OFFCURVE",
"187 612 CURVE",
"187 650 OFFCURVE",
"216 666 OFFCURVE",
"239 666 CURVE"
);
},
{
closed = 1;
nodes = (
"490 52 LINE",
"472 59 LINE",
"466 41 OFFCURVE",
"451 24 OFFCURVE",
"431 24 CURVE",
"400 24 OFFCURVE",
"395 57 OFFCURVE",
"395 116 CURVE",
"395 296 LINE SMOOTH",
"395 408 OFFCURVE",
"348 454 OFFCURVE",
"241 454 CURVE",
"166 454 OFFCURVE",
"69 427 OFFCURVE",
"69 356 CURVE",
"69 331 OFFCURVE",
"87 310 OFFCURVE",
"111 310 CURVE",
"136 310 OFFCURVE",
"157 325 OFFCURVE",
"157 350 CURVE",
"157 360 OFFCURVE",
"155 369 OFFCURVE",
"152 377 CURVE",
"150 383 OFFCURVE",
"148 390 OFFCURVE",
"148 396 CURVE",
"148 421 OFFCURVE",
"191 429 OFFCURVE",
"227 429 CURVE",
"303 429 OFFCURVE",
"325 393 OFFCURVE",
"325 320 CURVE",
"325 288 LINE",
"287 273 OFFCURVE",
"232 252 OFFCURVE",
"180 223 CURVE",
"111 185 OFFCURVE",
"50 141 OFFCURVE",
"50 82 CURVE",
"50 23 OFFCURVE",
"97 -11 OFFCURVE",
"161 -11 CURVE",
"229 -11 OFFCURVE",
"289 21 OFFCURVE",
"326 82 CURVE",
"329 26 OFFCURVE",
"346 -11 OFFCURVE",
"405 -11 CURVE",
"453 -11 OFFCURVE",
"479 13 OFFCURVE",
"490 52 CURVE"
);
},
{
closed = 1;
nodes = (
"193 26 LINE",
"150 26 OFFCURVE",
"128 50 OFFCURVE",
"128 87 CURVE",
"128 168 OFFCURVE",
"237 231 OFFCURVE",
"325 268 CURVE",
"325 122 LINE",
"306 73 OFFCURVE",
"251 26 OFFCURVE",
"193 26 CURVE"
);
}
);
width = 490;
}
);
leftKerningGroup = a;
note = "\012		aring\012  ";
rightKerningGroup = a;
unicode = 00E5;
},
{
glyphname = atilde;
layers = (
{
layerId = "72C12618-BAE4-4A2B-8370-CBFBBD108EB7";
paths = (
{
closed = 1;
nodes = (
"162 617 LINE",
"180 617 OFFCURVE",
"199 606 OFFCURVE",
"223 591 CURVE",
"249 575 LINE SMOOTH",
"266 565 OFFCURVE",
"292 550 OFFCURVE",
"317 550 CURVE",
"357 550 OFFCURVE",
"391 589 OFFCURVE",
"398 649 CURVE",
"379 649 LINE",
"370 621 OFFCURVE",
"352 598 OFFCURVE",
"325 598 CURVE",
"307 598 OFFCURVE",
"284 611 OFFCURVE",
"274 617 CURVE",
"237 639 LINE SMOOTH",
"224 647 OFFCURVE",
"195 665 OFFCURVE",
"170 665 CURVE",
"109 665 OFFCURVE",
"84 590 OFFCURVE",
"84 561 CURVE",
"103 561 LINE",
"109 585 OFFCURVE",
"133 617 OFFCURVE",
"162 617 CURVE"
);
},
{
closed = 1;
nodes = (
"490 52 LINE",
"472 59 LINE",
"466 41 OFFCURVE",
"451 24 OFFCURVE",
"431 24 CURVE",
"400 24 OFFCURVE",
"395 57 OFFCURVE",
"395 116 CURVE",
"395 296 LINE SMOOTH",
"395 408 OFFCURVE",
"348 454 OFFCURVE",
"241 454 CURVE",
"166 454 OFFCURVE",
"69 427 OFFCURVE",
"69 356 CURVE",
"69 331 OFFCURVE",
"87 310 OFFCURVE",
"111 310 CURVE",
"136 310 OFFCURVE",
"157 325 OFFCURVE",
"157 350 CURVE",
"157 360 OFFCURVE",
"155 369 OFFCURVE",
"152 377 CURVE",
"150 383 OFFCURVE",
"148 390 OFFCURVE",
"148 396 CURVE",
"148 421 OFFCURVE",
"191 429 OFFCURVE",
"227 429 CURVE",
"303 429 OFFCURVE",
"325 393 OFFCURVE",
"325 320 CURVE",
"325 288 LINE",
"287 273 OFFCURVE",
"232 252 OFFCURVE",
"180 223 CURVE",
"111 185 OFFCURVE",
"50 141 OFFCURVE",
"50 82 CURVE",
"50 23 OFFCURVE",
"97 -11 OFFCURVE",
"161 -11 CURVE",
"229 -11 OFFCURVE",
"289 21 OFFCURVE",
"326 82 CURVE",
"329 26 OFFCURVE",
"346 -11 OFFCURVE",
"405 -11 CURVE",
"453 -11 OFFCURVE",
"479 13 OFFCURVE",
"490 52 CURVE"
);
},
{
closed = 1;
nodes = (
"193 26 LINE",
"150 26 OFFCURVE",
"128 50 OFFCURVE",
"128 87 CURVE",
"128 168 OFFCURVE",
"237 231 OFFCURVE",
"325 268 CURVE",
"325 122 LINE",
"306 73 OFFCURVE",
"251 26 OFFCURVE",
"193 26 CURVE"
);
}
);
width = 490;
}
);
leftKerningGroup = a;
note = "\012		atilde\012  ";
rightKerningGroup = a;
unicode = 00E3;
},
{
glyphname = ae;
layers = (
{
layerId = "72C12618-BAE4-4A2B-8370-CBFBBD108EB7";
paths = (
{
closed = 1;
nodes = (
"711 117 LINE",
"687 124 LINE",
"661 55 OFFCURVE",
"609 21 OFFCURVE",
"550 21 CURVE",
"454 21 OFFCURVE",
"395 105 OFFCURVE",
"395 222 CURVE",
"395 245 LINE",
"697 245 LINE",
"699 251 OFFCURVE",
"702 262 OFFCURVE",
"702 275 CURVE",
"702 383 OFFCURVE",
"638 454 OFFCURVE",
"538 454 CURVE",
"466 454 OFFCURVE",
"414 421 OFFCURVE",
"381 379 CURVE",
"363 421 OFFCURVE",
"325 454 OFFCURVE",
"243 454 CURVE",
"166 454 OFFCURVE",
"69 424 OFFCURVE",
"69 353 CURVE",
"69 328 OFFCURVE",
"87 310 OFFCURVE",
"110 310 CURVE",
"136 310 OFFCURVE",
"157 325 OFFCURVE",
"157 350 CURVE",
"157 360 OFFCURVE",
"155 369 OFFCURVE",
"152 377 CURVE",
"150 383 OFFCURVE",
"148 390 OFFCURVE",
"148 396 CURVE",
"148 421 OFFCURVE",
"202 429 OFFCURVE",
"238 429 CURVE",
"317 429 OFFCURVE",
"325 373 OFFCURVE",
"325 306 CURVE",
"325 288 LINE",
"237 255 OFFCURVE",
"50 179 OFFCURVE",
"50 83 CURVE",
"50 18 OFFCURVE",
"100 -11 OFFCURVE",
"169 -11 CURVE",
"230 -11 OFFCURVE",
"297 27 OFFCURVE",
"337 93 CURVE",
"378 32 OFFCURVE",
"445 -11 OFFCURVE",
"536 -11 CURVE",
"624 -11 OFFCURVE",
"683 31 OFFCURVE",
"711 117 CURVE"
);
},
{
closed = 1;
nodes = (
"538 429 LINE",
"585 429 OFFCURVE",
"636 393 OFFCURVE",
"636 335 CURVE",
"636 305 OFFCURVE",
"617 268 OFFCURVE",
"524 268 CURVE",
"396 268 LINE",
"404 358 OFFCURVE",
"459 429 OFFCURVE",
"538 429 CURVE"
);
},
{
closed = 1;
nodes = (
"199 24 LINE",
"159 24 OFFCURVE",
"128 49 OFFCURVE",
"128 87 CURVE",
"128 168 OFFCURVE",
"237 231 OFFCURVE",
"325 268 CURVE",
"325 121 LINE",
"306 72 OFFCURVE",
"246 24 OFFCURVE",
"199 24 CURVE"
);
}
);
width = 756;
}
);
leftKerningGroup = a;
note = "\012		ae\012  ";
rightKerningGroup = ae;
unicode = 00E6;
},
{
glyphname = b;
layers = (
{
layerId = "72C12618-BAE4-4A2B-8370-CBFBBD108EB7";
paths = (
{
closed = 1;
nodes = (
"289 454 LINE",
"232 454 OFFCURVE",
"185 429 OFFCURVE",
"150 391 CURVE",
"150 725 LINE",
"95 715 OFFCURVE",
"47 713 OFFCURVE",
"-8 713 CURVE",
"-8 690 LINE",
"-1 690 LINE SMOOTH",
"49 690 OFFCURVE",
"80 678 OFFCURVE",
"80 609 CURVE",
"80 -11 LINE",
"96 -11 LINE",
"149 48 LINE",
"179 17 OFFCURVE",
"228 -11 OFFCURVE",
"285 -11 CURVE",
"404 -11 OFFCURVE",
"492 91 OFFCURVE",
"492 220 CURVE",
"492 351 OFFCURVE",
"404 454 OFFCURVE",
"289 454 CURVE"
);
},
{
closed = 1;
nodes = (
"276 19 LINE",
"221 19 OFFCURVE",
"172 53 OFFCURVE",
"150 87 CURVE",
"150 357 LINE",
"180 394 OFFCURVE",
"222 424 OFFCURVE",
"279 424 CURVE",
"368 424 OFFCURVE",
"412 336 OFFCURVE",
"412 220 CURVE",
"412 106 OFFCURVE",
"368 19 OFFCURVE",
"276 19 CURVE"
);
}
);
width = 537;
}
);
leftKerningGroup = b;
note = "\012		b\012  ";
rightKerningGroup = ae;
unicode = 0062;
},
{
glyphname = c;
layers = (
{
layerId = "72C12618-BAE4-4A2B-8370-CBFBBD108EB7";
paths = (
{
closed = 1;
nodes = (
"266 -11 LINE",
"342 -11 OFFCURVE",
"415 23 OFFCURVE",
"440 115 CURVE",
"416 123 LINE",
"393 47 OFFCURVE",
"337 19 OFFCURVE",
"281 19 CURVE",
"179 19 OFFCURVE",
"125 110 OFFCURVE",
"125 216 CURVE",
"125 344 OFFCURVE",
"186 429 OFFCURVE",
"279 429 CURVE",
"299 429 OFFCURVE",
"335 424 OFFCURVE",
"335 406 CURVE",
"335 398 OFFCURVE",
"333 391 OFFCURVE",
"331 384 CURVE",
"329 377 OFFCURVE",
"327 369 OFFCURVE",
"327 359 CURVE",
"327 339 OFFCURVE",
"344 314 OFFCURVE",
"379 314 CURVE",
"405 314 OFFCURVE",
"427 335 OFFCURVE",
"427 365 CURVE",
"427 423 OFFCURVE",
"344 454 OFFCURVE",
"280 454 CURVE",
"146 454 OFFCURVE",
"45 351 OFFCURVE",
"45 211 CURVE",
"45 83 OFFCURVE",
"131 -11 OFFCURVE",
"266 -11 CURVE"
);
}
);
width = 475;
}
);
leftKerningGroup = c;
note = "\012		c\012  ";
rightKerningGroup = ae;
unicode = 0063;
},
{
glyphname = cacute;
layers = (
{
layerId = "72C12618-BAE4-4A2B-8370-CBFBBD108EB7";
paths = (
{
closed = 1;
nodes = (
"266 665 LINE",
"227 517 LINE",
"249 517 LINE",
"323 636 LINE SMOOTH",
"333 652 OFFCURVE",
"340 669 OFFCURVE",
"340 685 CURVE",
"340 709 OFFCURVE",
"325 721 OFFCURVE",
"309 721 CURVE",
"293 721 OFFCURVE",
"277 707 OFFCURVE",
"266 665 CURVE"
);
},
{
closed = 1;
nodes = (
"266 -11 LINE",
"342 -11 OFFCURVE",
"415 23 OFFCURVE",
"440 115 CURVE",
"416 123 LINE",
"393 47 OFFCURVE",
"337 19 OFFCURVE",
"281 19 CURVE",
"179 19 OFFCURVE",
"125 110 OFFCURVE",
"125 216 CURVE",
"125 344 OFFCURVE",
"186 429 OFFCURVE",
"279 429 CURVE",
"299 429 OFFCURVE",
"335 424 OFFCURVE",
"335 406 CURVE",
"335 398 OFFCURVE",
"333 391 OFFCURVE",
"331 384 CURVE",
"329 377 OFFCURVE",
"327 369 OFFCURVE",
"327 359 CURVE",
"327 339 OFFCURVE",
"344 314 OFFCURVE",
"379 314 CURVE",
"405 314 OFFCURVE",
"427 335 OFFCURVE",
"427 365 CURVE",
"427 423 OFFCURVE",
"344 454 OFFCURVE",
"280 454 CURVE",
"146 454 OFFCURVE",
"45 351 OFFCURVE",
"45 211 CURVE",
"45 83 OFFCURVE",
"131 -11 OFFCURVE",
"266 -11 CURVE"
);
}
);
width = 475;
}
);
leftKerningGroup = c;
note = "\012		cacute\012  ";
rightKerningGroup = ae;
unicode = 0107;
},
{
glyphname = ccaron;
layers = (
{
layerId = "72C12618-BAE4-4A2B-8370-CBFBBD108EB7";
paths = (
{
closed = 1;
nodes = (
"266 610 LINE",
"260 610 LINE",
"182 708 LINE",
"158 708 LINE",
"252 518 LINE",
"274 518 LINE",
"368 708 LINE",
"344 708 LINE"
);
},
{
closed = 1;
nodes = (
"266 -11 LINE",
"342 -11 OFFCURVE",
"415 23 OFFCURVE",
"440 115 CURVE",
"416 123 LINE",
"393 47 OFFCURVE",
"337 19 OFFCURVE",
"281 19 CURVE",
"179 19 OFFCURVE",
"125 110 OFFCURVE",
"125 216 CURVE",
"125 344 OFFCURVE",
"186 429 OFFCURVE",
"279 429 CURVE",
"299 429 OFFCURVE",
"335 424 OFFCURVE",
"335 406 CURVE",
"335 398 OFFCURVE",
"333 391 OFFCURVE",
"331 384 CURVE",
"329 377 OFFCURVE",
"327 369 OFFCURVE",
"327 359 CURVE",
"327 339 OFFCURVE",
"344 314 OFFCURVE",
"379 314 CURVE",
"405 314 OFFCURVE",
"427 335 OFFCURVE",
"427 365 CURVE",
"427 423 OFFCURVE",
"344 454 OFFCURVE",
"280 454 CURVE",
"146 454 OFFCURVE",
"45 351 OFFCURVE",
"45 211 CURVE",
"45 83 OFFCURVE",
"131 -11 OFFCURVE",
"266 -11 CURVE"
);
}
);
width = 475;
}
);
leftKerningGroup = c;
note = "\012		ccaron\012  ";
rightKerningGroup = ae;
unicode = 010D;
},
{
glyphname = ccedilla;
layers = (
{
layerId = "72C12618-BAE4-4A2B-8370-CBFBBD108EB7";
paths = (
{
closed = 1;
nodes = (
"440 115 LINE",
"416 123 LINE",
"393 47 OFFCURVE",
"337 19 OFFCURVE",
"281 19 CURVE",
"179 19 OFFCURVE",
"125 110 OFFCURVE",
"125 216 CURVE",
"125 344 OFFCURVE",
"186 429 OFFCURVE",
"279 429 CURVE",
"299 429 OFFCURVE",
"335 424 OFFCURVE",
"335 406 CURVE",
"335 398 OFFCURVE",
"333 391 OFFCURVE",
"331 384 CURVE",
"329 377 OFFCURVE",
"327 369 OFFCURVE",
"327 359 CURVE",
"327 339 OFFCURVE",
"344 314 OFFCURVE",
"379 314 CURVE",
"405 314 OFFCURVE",
"427 335 OFFCURVE",
"427 365 CURVE",
"427 423 OFFCURVE",
"344 454 OFFCURVE",
"280 454 CURVE",
"146 454 OFFCURVE",
"45 351 OFFCURVE",
"45 211 CURVE",
"45 90 OFFCURVE",
"122 0 OFFCURVE",
"244 -10 CURVE",
"228 -57 LINE",
"192 -57 OFFCURVE",
"158 -75 OFFCURVE",
"139 -109 CURVE",
"159 -122 LINE",
"174 -99 OFFCURVE",
"198 -82 OFFCURVE",
"221 -82 CURVE",
"265 -82 OFFCURVE",
"289 -120 OFFCURVE",
"289 -166 CURVE",
"289 -214 OFFCURVE",
"265 -264 OFFCURVE",
"218 -264 CURVE",
"177 -264 OFFCURVE",
"149 -234 OFFCURVE",
"143 -203 CURVE",
"121 -210 LINE",
"130 -249 OFFCURVE",
"164 -292 OFFCURVE",
"224 -292 CURVE",
"286 -292 OFFCURVE",
"340 -243 OFFCURVE",
"340 -169 CURVE",
"340 -115 OFFCURVE",
"305 -72 OFFCURVE",
"256 -60 CURVE",
"273 -11 LINE",
"347 -9 OFFCURVE",
"416 26 OFFCURVE",
"440 115 CURVE"
);
}
);
width = 475;
}
);
leftKerningGroup = c;
note = "\012		ccedilla\012  ";
rightKerningGroup = ae;
unicode = 00E7;
},
{
glyphname = cdotaccent;
layers = (
{
layerId = "72C12618-BAE4-4A2B-8370-CBFBBD108EB7";
paths = (
{
closed = 1;
nodes = (
"259 562 LINE",
"297 562 OFFCURVE",
"315 589 OFFCURVE",
"315 623 CURVE",
"315 657 OFFCURVE",
"297 684 OFFCURVE",
"259 684 CURVE",
"224 684 OFFCURVE",
"203 657 OFFCURVE",
"203 623 CURVE",
"203 589 OFFCURVE",
"224 562 OFFCURVE",
"259 562 CURVE"
);
},
{
closed = 1;
nodes = (
"266 -11 LINE",
"342 -11 OFFCURVE",
"415 23 OFFCURVE",
"440 115 CURVE",
"416 123 LINE",
"393 47 OFFCURVE",
"337 19 OFFCURVE",
"281 19 CURVE",
"179 19 OFFCURVE",
"125 110 OFFCURVE",
"125 216 CURVE",
"125 344 OFFCURVE",
"186 429 OFFCURVE",
"279 429 CURVE",
"299 429 OFFCURVE",
"335 424 OFFCURVE",
"335 406 CURVE",
"335 398 OFFCURVE",
"333 391 OFFCURVE",
"331 384 CURVE",
"329 377 OFFCURVE",
"327 369 OFFCURVE",
"327 359 CURVE",
"327 339 OFFCURVE",
"344 314 OFFCURVE",
"379 314 CURVE",
"405 314 OFFCURVE",
"427 335 OFFCURVE",
"427 365 CURVE",
"427 423 OFFCURVE",
"344 454 OFFCURVE",
"280 454 CURVE",
"146 454 OFFCURVE",
"45 351 OFFCURVE",
"45 211 CURVE",
"45 83 OFFCURVE",
"131 -11 OFFCURVE",
"266 -11 CURVE"
);
}
);
width = 475;
}
);
leftKerningGroup = c;
note = "\012		cdotaccent\012  ";
rightKerningGroup = ae;
unicode = 010B;
},
{
glyphname = d;
layers = (
{
layerId = "72C12618-BAE4-4A2B-8370-CBFBBD108EB7";
paths = (
{
closed = 1;
nodes = (
"457 109 LINE",
"457 725 LINE",
"402 715 OFFCURVE",
"354 713 OFFCURVE",
"299 713 CURVE",
"299 690 LINE",
"306 690 LINE SMOOTH",
"356 690 OFFCURVE",
"387 678 OFFCURVE",
"387 609 CURVE",
"387 397 LINE",
"357 427 OFFCURVE",
"308 454 OFFCURVE",
"252 454 CURVE",
"133 454 OFFCURVE",
"45 352 OFFCURVE",
"45 223 CURVE",
"45 92 OFFCURVE",
"133 -11 OFFCURVE",
"248 -11 CURVE",
"310 -11 OFFCURVE",
"360 19 OFFCURVE",
"396 62 CURVE",
"409 -8 LINE",
"444 -1 OFFCURVE",
"469 0 OFFCURVE",
"499 0 CURVE",
"540 0 LINE",
"540 23 LINE",
"486 23 OFFCURVE",
"457 34 OFFCURVE",
"457 109 CURVE"
);
},
{
closed = 1;
nodes = (
"258 19 LINE",
"169 19 OFFCURVE",
"125 107 OFFCURVE",
"125 223 CURVE",
"125 337 OFFCURVE",
"169 424 OFFCURVE",
"261 424 CURVE",
"316 424 OFFCURVE",
"365 390 OFFCURVE",
"387 356 CURVE",
"387 86 LINE",
"357 49 OFFCURVE",
"315 19 OFFCURVE",
"258 19 CURVE"
);
}
);
width = 545;
}
);
leftKerningGroup = c;
note = "\012		d\012  ";
unicode = 0064;
},
{
glyphname = eth;
layers = (
{
layerId = "72C12618-BAE4-4A2B-8370-CBFBBD108EB7";
paths = (
{
closed = 1;
nodes = (
"311 620 LINE",
"419 661 LINE",
"410 684 LINE",
"289 638 LINE",
"243 674 OFFCURVE",
"190 703 OFFCURVE",
"131 724 CURVE",
"121 702 LINE",
"168 681 OFFCURVE",
"210 654 OFFCURVE",
"247 622 CURVE",
"130 578 LINE",
"138 555 LINE",
"268 604 LINE",
"323 552 OFFCURVE",
"366 489 OFFCURVE",
"394 421 CURVE",
"359 442 OFFCURVE",
"319 454 OFFCURVE",
"275 454 CURVE",
"146 454 OFFCURVE",
"45 351 OFFCURVE",
"45 220 CURVE",
"45 92 OFFCURVE",
"146 -11 OFFCURVE",
"275 -11 CURVE",
"404 -11 OFFCURVE",
"505 92 OFFCURVE",
"505 237 CURVE",
"505 367 OFFCURVE",
"435 515 OFFCURVE",
"311 620 CURVE"
);
},
{
closed = 1;
nodes = (
"275 14 LINE",
"167 14 OFFCURVE",
"125 104 OFFCURVE",
"125 220 CURVE",
"125 339 OFFCURVE",
"167 429 OFFCURVE",
"275 429 CURVE",
"383 429 OFFCURVE",
"425 339 OFFCURVE",
"425 220 CURVE",
"425 104 OFFCURVE",
"383 14 OFFCURVE",
"275 14 CURVE"
);
}
);
width = 550;
}
);
leftKerningGroup = c;
note = "\012		eth\012  ";
rightKerningGroup = D;
unicode = 00F0;
},
{
glyphname = dcaron;
layers = (
{
layerId = "72C12618-BAE4-4A2B-8370-CBFBBD108EB7";
paths = (
{
closed = 1;
nodes = (
"457 109 LINE",
"457 725 LINE",
"402 715 OFFCURVE",
"354 713 OFFCURVE",
"299 713 CURVE",
"299 690 LINE",
"306 690 LINE SMOOTH",
"356 690 OFFCURVE",
"387 678 OFFCURVE",
"387 609 CURVE",
"387 397 LINE",
"357 427 OFFCURVE",
"308 454 OFFCURVE",
"252 454 CURVE",
"133 454 OFFCURVE",
"45 352 OFFCURVE",
"45 223 CURVE",
"45 92 OFFCURVE",
"133 -11 OFFCURVE",
"248 -11 CURVE",
"310 -11 OFFCURVE",
"360 19 OFFCURVE",
"396 62 CURVE",
"409 -8 LINE",
"444 -1 OFFCURVE",
"469 0 OFFCURVE",
"499 0 CURVE",
"540 0 LINE",
"540 23 LINE",
"486 23 OFFCURVE",
"457 34 OFFCURVE",
"457 109 CURVE"
);
},
{
closed = 1;
nodes = (
"574 721 LINE",
"557 721 OFFCURVE",
"543 709 OFFCURVE",
"538 663 CURVE",
"519 506 LINE",
"543 506 LINE",
"595 652 LINE SMOOTH",
"606 684 OFFCURVE",
"607 721 OFFCURVE",
"574 721 CURVE"
);
},
{
closed = 1;
nodes = (
"258 19 LINE",
"169 19 OFFCURVE",
"125 107 OFFCURVE",
"125 223 CURVE",
"125 337 OFFCURVE",
"169 424 OFFCURVE",
"261 424 CURVE",
"316 424 OFFCURVE",
"365 390 OFFCURVE",
"387 356 CURVE",
"387 86 LINE",
"357 49 OFFCURVE",
"315 19 OFFCURVE",
"258 19 CURVE"
);
}
);
width = 545;
}
);
leftKerningGroup = c;
note = "\012		dcaron\012  ";
rightKerningGroup = dcaron;
unicode = 010F;
},
{
glyphname = dcroat;
layers = (
{
layerId = "72C12618-BAE4-4A2B-8370-CBFBBD108EB7";
paths = (
{
closed = 1;
nodes = (
"457 109 LINE",
"457 554 LINE",
"512 554 LINE",
"512 579 LINE",
"457 579 LINE",
"457 725 LINE",
"402 715 OFFCURVE",
"354 713 OFFCURVE",
"299 713 CURVE",
"299 690 LINE",
"306 690 LINE SMOOTH",
"356 690 OFFCURVE",
"387 678 OFFCURVE",
"387 609 CURVE",
"387 579 LINE",
"257 579 LINE",
"257 554 LINE",
"387 554 LINE",
"387 397 LINE",
"357 427 OFFCURVE",
"308 454 OFFCURVE",
"252 454 CURVE",
"133 454 OFFCURVE",
"45 352 OFFCURVE",
"45 223 CURVE",
"45 92 OFFCURVE",
"133 -11 OFFCURVE",
"248 -11 CURVE",
"310 -11 OFFCURVE",
"360 19 OFFCURVE",
"396 62 CURVE",
"409 -8 LINE",
"444 -1 OFFCURVE",
"469 0 OFFCURVE",
"499 0 CURVE",
"540 0 LINE",
"540 23 LINE",
"486 23 OFFCURVE",
"457 34 OFFCURVE",
"457 109 CURVE"
);
},
{
closed = 1;
nodes = (
"258 19 LINE",
"169 19 OFFCURVE",
"125 107 OFFCURVE",
"125 223 CURVE",
"125 337 OFFCURVE",
"169 424 OFFCURVE",
"261 424 CURVE",
"316 424 OFFCURVE",
"365 390 OFFCURVE",
"387 356 CURVE",
"387 86 LINE",
"357 49 OFFCURVE",
"315 19 OFFCURVE",
"258 19 CURVE"
);
}
);
width = 545;
}
);
leftKerningGroup = c;
note = "\012		dcroat\012  ";
unicode = 0111;
},
{
glyphname = e;
layers = (
{
layerId = "72C12618-BAE4-4A2B-8370-CBFBBD108EB7";
paths = (
{
closed = 1;
nodes = (
"447 115 LINE",
"423 124 LINE",
"396 54 OFFCURVE",
"345 19 OFFCURVE",
"283 19 CURVE",
"182 19 OFFCURVE",
"130 110 OFFCURVE",
"130 217 CURVE",
"130 227 OFFCURVE",
"130 236 OFFCURVE",
"131 245 CURVE",
"433 245 LINE",
"434 249 OFFCURVE",
"436 260 OFFCURVE",
"436 276 CURVE",
"436 382 OFFCURVE",
"374 454 OFFCURVE",
"272 454 CURVE",
"150 454 OFFCURVE",
"50 351 OFFCURVE",
"50 212 CURVE",
"50 81 OFFCURVE",
"137 -11 OFFCURVE",
"269 -11 CURVE",
"360 -11 OFFCURVE",
"419 31 OFFCURVE",
"447 115 CURVE"
);
},
{
closed = 1;
nodes = (
"272 429 LINE",
"321 429 OFFCURVE",
"369 393 OFFCURVE",
"369 335 CURVE",
"369 305 OFFCURVE",
"350 268 OFFCURVE",
"260 268 CURVE",
"133 268 LINE",
"144 365 OFFCURVE",
"190 429 OFFCURVE",
"272 429 CURVE"
);
}
);
width = 482;
}
);
leftKerningGroup = c;
note = "\012		e\012  ";
rightKerningGroup = ae;
unicode = 0065;
},
{
glyphname = eacute;
layers = (
{
layerId = "72C12618-BAE4-4A2B-8370-CBFBBD108EB7";
paths = (
{
closed = 1;
nodes = (
"275 668 LINE",
"236 520 LINE",
"258 520 LINE",
"332 639 LINE SMOOTH",
"342 655 OFFCURVE",
"349 672 OFFCURVE",
"349 688 CURVE",
"349 712 OFFCURVE",
"334 724 OFFCURVE",
"318 724 CURVE",
"302 724 OFFCURVE",
"286 710 OFFCURVE",
"275 668 CURVE"
);
},
{
closed = 1;
nodes = (
"447 115 LINE",
"423 124 LINE",
"396 54 OFFCURVE",
"345 19 OFFCURVE",
"283 19 CURVE",
"182 19 OFFCURVE",
"130 110 OFFCURVE",
"130 217 CURVE",
"130 227 OFFCURVE",
"130 236 OFFCURVE",
"131 245 CURVE",
"433 245 LINE",
"434 249 OFFCURVE",
"436 260 OFFCURVE",
"436 276 CURVE",
"436 382 OFFCURVE",
"374 454 OFFCURVE",
"272 454 CURVE",
"150 454 OFFCURVE",
"50 351 OFFCURVE",
"50 212 CURVE",
"50 81 OFFCURVE",
"137 -11 OFFCURVE",
"269 -11 CURVE",
"360 -11 OFFCURVE",
"419 31 OFFCURVE",
"447 115 CURVE"
);
},
{
closed = 1;
nodes = (
"272 429 LINE",
"321 429 OFFCURVE",
"369 393 OFFCURVE",
"369 335 CURVE",
"369 305 OFFCURVE",
"350 268 OFFCURVE",
"260 268 CURVE",
"133 268 LINE",
"144 365 OFFCURVE",
"190 429 OFFCURVE",
"272 429 CURVE"
);
}
);
width = 482;
}
);
leftKerningGroup = c;
note = "\012		eacute\012  ";
rightKerningGroup = ae;
unicode = 00E9;
},
{
glyphname = ecaron;
layers = (
{
layerId = "72C12618-BAE4-4A2B-8370-CBFBBD108EB7";
paths = (
{
closed = 1;
nodes = (
"191 711 LINE",
"167 711 LINE",
"261 521 LINE",
"283 521 LINE",
"377 711 LINE",
"353 711 LINE",
"275 613 LINE",
"269 613 LINE"
);
},
{
closed = 1;
nodes = (
"447 115 LINE",
"423 124 LINE",
"396 54 OFFCURVE",
"345 19 OFFCURVE",
"283 19 CURVE",
"182 19 OFFCURVE",
"130 110 OFFCURVE",
"130 217 CURVE",
"130 227 OFFCURVE",
"130 236 OFFCURVE",
"131 245 CURVE",
"433 245 LINE",
"434 249 OFFCURVE",
"436 260 OFFCURVE",
"436 276 CURVE",
"436 382 OFFCURVE",
"374 454 OFFCURVE",
"272 454 CURVE",
"150 454 OFFCURVE",
"50 351 OFFCURVE",
"50 212 CURVE",
"50 81 OFFCURVE",
"137 -11 OFFCURVE",
"269 -11 CURVE",
"360 -11 OFFCURVE",
"419 31 OFFCURVE",
"447 115 CURVE"
);
},
{
closed = 1;
nodes = (
"272 429 LINE",
"321 429 OFFCURVE",
"369 393 OFFCURVE",
"369 335 CURVE",
"369 305 OFFCURVE",
"350 268 OFFCURVE",
"260 268 CURVE",
"133 268 LINE",
"144 365 OFFCURVE",
"190 429 OFFCURVE",
"272 429 CURVE"
);
}
);
width = 482;
}
);
leftKerningGroup = c;
note = "\012		ecaron\012  ";
rightKerningGroup = ae;
unicode = 011B;
},
{
glyphname = ecircumflex;
layers = (
{
layerId = "72C12618-BAE4-4A2B-8370-CBFBBD108EB7";
paths = (
{
closed = 1;
nodes = (
"260 710 LINE",
"166 520 LINE",
"190 520 LINE",
"268 618 LINE",
"274 618 LINE",
"352 520 LINE",
"376 520 LINE",
"282 710 LINE"
);
},
{
closed = 1;
nodes = (
"447 115 LINE",
"423 124 LINE",
"396 54 OFFCURVE",
"345 19 OFFCURVE",
"283 19 CURVE",
"182 19 OFFCURVE",
"130 110 OFFCURVE",
"130 217 CURVE",
"130 227 OFFCURVE",
"130 236 OFFCURVE",
"131 245 CURVE",
"433 245 LINE",
"434 249 OFFCURVE",
"436 260 OFFCURVE",
"436 276 CURVE",
"436 382 OFFCURVE",
"374 454 OFFCURVE",
"272 454 CURVE",
"150 454 OFFCURVE",
"50 351 OFFCURVE",
"50 212 CURVE",
"50 81 OFFCURVE",
"137 -11 OFFCURVE",
"269 -11 CURVE",
"360 -11 OFFCURVE",
"419 31 OFFCURVE",
"447 115 CURVE"
);
},
{
closed = 1;
nodes = (
"272 429 LINE",
"321 429 OFFCURVE",
"369 393 OFFCURVE",
"369 335 CURVE",
"369 305 OFFCURVE",
"350 268 OFFCURVE",
"260 268 CURVE",
"133 268 LINE",
"144 365 OFFCURVE",
"190 429 OFFCURVE",
"272 429 CURVE"
);
}
);
width = 482;
}
);
leftKerningGroup = c;
note = "\012		ecircumflex\012  ";
rightKerningGroup = ae;
unicode = 00EA;
},
{
glyphname = edieresis;
layers = (
{
layerId = "72C12618-BAE4-4A2B-8370-CBFBBD108EB7";
paths = (
{
closed = 1;
nodes = (
"174 567 LINE",
"208 567 OFFCURVE",
"224 592 OFFCURVE",
"224 624 CURVE",
"224 655 OFFCURVE",
"208 680 OFFCURVE",
"174 680 CURVE",
"142 680 OFFCURVE",
"123 655 OFFCURVE",
"123 624 CURVE",
"123 592 OFFCURVE",
"142 567 OFFCURVE",
"174 567 CURVE"
);
},
{
closed = 1;
nodes = (
"364 567 LINE",
"398 567 OFFCURVE",
"414 592 OFFCURVE",
"414 624 CURVE",
"414 655 OFFCURVE",
"398 680 OFFCURVE",
"364 680 CURVE",
"332 680 OFFCURVE",
"313 655 OFFCURVE",
"313 624 CURVE",
"313 592 OFFCURVE",
"332 567 OFFCURVE",
"364 567 CURVE"
);
},
{
closed = 1;
nodes = (
"447 115 LINE",
"423 124 LINE",
"396 54 OFFCURVE",
"345 19 OFFCURVE",
"283 19 CURVE",
"182 19 OFFCURVE",
"130 110 OFFCURVE",
"130 217 CURVE",
"130 227 OFFCURVE",
"130 236 OFFCURVE",
"131 245 CURVE",
"433 245 LINE",
"434 249 OFFCURVE",
"436 260 OFFCURVE",
"436 276 CURVE",
"436 382 OFFCURVE",
"374 454 OFFCURVE",
"272 454 CURVE",
"150 454 OFFCURVE",
"50 351 OFFCURVE",
"50 212 CURVE",
"50 81 OFFCURVE",
"137 -11 OFFCURVE",
"269 -11 CURVE",
"360 -11 OFFCURVE",
"419 31 OFFCURVE",
"447 115 CURVE"
);
},
{
closed = 1;
nodes = (
"272 429 LINE",
"321 429 OFFCURVE",
"369 393 OFFCURVE",
"369 335 CURVE",
"369 305 OFFCURVE",
"350 268 OFFCURVE",
"260 268 CURVE",
"133 268 LINE",
"144 365 OFFCURVE",
"190 429 OFFCURVE",
"272 429 CURVE"
);
}
);
width = 482;
}
);
leftKerningGroup = c;
note = "\012		edieresis\012  ";
rightKerningGroup = ae;
unicode = 00EB;
},
{
glyphname = edotaccent;
layers = (
{
layerId = "72C12618-BAE4-4A2B-8370-CBFBBD108EB7";
paths = (
{
closed = 1;
nodes = (
"268 565 LINE",
"306 565 OFFCURVE",
"324 592 OFFCURVE",
"324 626 CURVE",
"324 660 OFFCURVE",
"306 687 OFFCURVE",
"268 687 CURVE",
"233 687 OFFCURVE",
"212 660 OFFCURVE",
"212 626 CURVE",
"212 592 OFFCURVE",
"233 565 OFFCURVE",
"268 565 CURVE"
);
},
{
closed = 1;
nodes = (
"447 115 LINE",
"423 124 LINE",
"396 54 OFFCURVE",
"345 19 OFFCURVE",
"283 19 CURVE",
"182 19 OFFCURVE",
"130 110 OFFCURVE",
"130 217 CURVE",
"130 227 OFFCURVE",
"130 236 OFFCURVE",
"131 245 CURVE",
"433 245 LINE",
"434 249 OFFCURVE",
"436 260 OFFCURVE",
"436 276 CURVE",
"436 382 OFFCURVE",
"374 454 OFFCURVE",
"272 454 CURVE",
"150 454 OFFCURVE",
"50 351 OFFCURVE",
"50 212 CURVE",
"50 81 OFFCURVE",
"137 -11 OFFCURVE",
"269 -11 CURVE",
"360 -11 OFFCURVE",
"419 31 OFFCURVE",
"447 115 CURVE"
);
},
{
closed = 1;
nodes = (
"272 429 LINE",
"321 429 OFFCURVE",
"369 393 OFFCURVE",
"369 335 CURVE",
"369 305 OFFCURVE",
"350 268 OFFCURVE",
"260 268 CURVE",
"133 268 LINE",
"144 365 OFFCURVE",
"190 429 OFFCURVE",
"272 429 CURVE"
);
}
);
width = 482;
}
);
leftKerningGroup = c;
note = "\012		edotaccent\012  ";
rightKerningGroup = ae;
unicode = 0117;
},
{
glyphname = egrave;
layers = (
{
layerId = "72C12618-BAE4-4A2B-8370-CBFBBD108EB7";
paths = (
{
closed = 1;
nodes = (
"208 639 LINE",
"282 520 LINE",
"304 520 LINE",
"265 668 LINE SMOOTH",
"254 710 OFFCURVE",
"238 724 OFFCURVE",
"222 724 CURVE",
"206 724 OFFCURVE",
"191 712 OFFCURVE",
"191 688 CURVE",
"191 672 OFFCURVE",
"198 655 OFFCURVE",
"208 639 CURVE"
);
},
{
closed = 1;
nodes = (
"447 115 LINE",
"423 124 LINE",
"396 54 OFFCURVE",
"345 19 OFFCURVE",
"283 19 CURVE",
"182 19 OFFCURVE",
"130 110 OFFCURVE",
"130 217 CURVE",
"130 227 OFFCURVE",
"130 236 OFFCURVE",
"131 245 CURVE",
"433 245 LINE",
"434 249 OFFCURVE",
"436 260 OFFCURVE",
"436 276 CURVE",
"436 382 OFFCURVE",
"374 454 OFFCURVE",
"272 454 CURVE",
"150 454 OFFCURVE",
"50 351 OFFCURVE",
"50 212 CURVE",
"50 81 OFFCURVE",
"137 -11 OFFCURVE",
"269 -11 CURVE",
"360 -11 OFFCURVE",
"419 31 OFFCURVE",
"447 115 CURVE"
);
},
{
closed = 1;
nodes = (
"272 429 LINE",
"321 429 OFFCURVE",
"369 393 OFFCURVE",
"369 335 CURVE",
"369 305 OFFCURVE",
"350 268 OFFCURVE",
"260 268 CURVE",
"133 268 LINE",
"144 365 OFFCURVE",
"190 429 OFFCURVE",
"272 429 CURVE"
);
}
);
width = 482;
}
);
leftKerningGroup = c;
note = "\012		egrave\012  ";
rightKerningGroup = ae;
unicode = 00E8;
},
{
glyphname = emacron;
layers = (
{
layerId = "72C12618-BAE4-4A2B-8370-CBFBBD108EB7";
paths = (
{
closed = 1;
nodes = (
"157 641 LINE",
"157 601 LINE",
"384 601 LINE",
"384 641 LINE"
);
},
{
closed = 1;
nodes = (
"447 115 LINE",
"423 124 LINE",
"396 54 OFFCURVE",
"345 19 OFFCURVE",
"283 19 CURVE",
"182 19 OFFCURVE",
"130 110 OFFCURVE",
"130 217 CURVE",
"130 227 OFFCURVE",
"130 236 OFFCURVE",
"131 245 CURVE",
"433 245 LINE",
"434 249 OFFCURVE",
"436 260 OFFCURVE",
"436 276 CURVE",
"436 382 OFFCURVE",
"374 454 OFFCURVE",
"272 454 CURVE",
"150 454 OFFCURVE",
"50 351 OFFCURVE",
"50 212 CURVE",
"50 81 OFFCURVE",
"137 -11 OFFCURVE",
"269 -11 CURVE",
"360 -11 OFFCURVE",
"419 31 OFFCURVE",
"447 115 CURVE"
);
},
{
closed = 1;
nodes = (
"272 429 LINE",
"321 429 OFFCURVE",
"369 393 OFFCURVE",
"369 335 CURVE",
"369 305 OFFCURVE",
"350 268 OFFCURVE",
"260 268 CURVE",
"133 268 LINE",
"144 365 OFFCURVE",
"190 429 OFFCURVE",
"272 429 CURVE"
);
}
);
width = 482;
}
);
leftKerningGroup = c;
note = "\012		emacron\012  ";
rightKerningGroup = ae;
unicode = 0113;
},
{
glyphname = eogonek;
layers = (
{
layerId = "72C12618-BAE4-4A2B-8370-CBFBBD108EB7";
paths = (
{
closed = 1;
nodes = (
"479 -178 LINE",
"459 -170 LINE",
"440 -206 OFFCURVE",
"410 -229 OFFCURVE",
"367 -229 CURVE",
"323 -229 OFFCURVE",
"288 -206 OFFCURVE",
"288 -157 CURVE",
"288 -92 OFFCURVE",
"336 -45 OFFCURVE",
"404 39 CURVE",
"422 59 OFFCURVE",
"437 84 OFFCURVE",
"447 115 CURVE",
"423 124 LINE",
"396 54 OFFCURVE",
"345 19 OFFCURVE",
"283 19 CURVE",
"182 19 OFFCURVE",
"130 110 OFFCURVE",
"130 217 CURVE",
"130 227 OFFCURVE",
"130 236 OFFCURVE",
"131 245 CURVE",
"433 245 LINE",
"434 249 OFFCURVE",
"436 260 OFFCURVE",
"436 276 CURVE",
"436 382 OFFCURVE",
"374 454 OFFCURVE",
"272 454 CURVE",
"150 454 OFFCURVE",
"50 351 OFFCURVE",
"50 212 CURVE",
"50 81 OFFCURVE",
"137 -11 OFFCURVE",
"269 -11 CURVE",
"297 -11 OFFCURVE",
"323 -7 OFFCURVE",
"345 1 CURVE",
"275 -65 OFFCURVE",
"228 -128 OFFCURVE",
"228 -187 CURVE",
"228 -251 OFFCURVE",
"274 -294 OFFCURVE",
"331 -294 CURVE",
"420 -294 OFFCURVE",
"472 -229 OFFCURVE",
"479 -178 CURVE"
);
},
{
closed = 1;
nodes = (
"272 429 LINE",
"321 429 OFFCURVE",
"369 393 OFFCURVE",
"369 335 CURVE",
"369 305 OFFCURVE",
"350 268 OFFCURVE",
"260 268 CURVE",
"133 268 LINE",
"144 365 OFFCURVE",
"190 429 OFFCURVE",
"272 429 CURVE"
);
}
);
width = 482;
}
);
leftKerningGroup = c;
note = "\012		eogonek\012  ";
rightKerningGroup = ae;
unicode = 0119;
},
